<?xml version="1.0" standalone="no"?>
<!DOCTYPE svg PUBLIC "-//W3C//DTD SVG 1.1//EN" "http://www.w3.org/Graphics/SVG/1.1/DTD/svg11.dtd" >
<svg xmlns="http://www.w3.org/2000/svg">
<metadata>
This is a custom SVG webfont generated by Font Squirrel.
Copyright   : Copyright 19901993 Bitstream Inc  All rights reserved
</metadata>
<defs>
<font id="CooperMdBTMediumItalic" horiz-adv-x="569" >
<font-face units-per-em="2048" ascent="1638" descent="-410" />
<missing-glyph horiz-adv-x="500" />
<glyph unicode=" " />
<glyph unicode="!" d="M43 133q0 69 46 115.5t114 46.5t115 -46.5t47 -115.5q0 -67 -47.5 -114.5t-114.5 -47.5t-113.5 47t-46.5 115zM166 782q0 159 21 311t59 273q25 79 56 114.5t75 35.5q50 0 75 -43t25 -130q0 -130 -24.5 -290.5t-71.5 -335.5q-44 -163 -73.5 -221t-65.5 -58 q-42 0 -59 76.5t-17 267.5z" />
<glyph unicode="&#x22;" horiz-adv-x="694" d="M84 1354q0 52 24.5 80t69.5 28q47 0 71.5 -27.5t24.5 -80.5q0 -16 -0.5 -24.5t-1.5 -15.5l-73 -458h-39l-74 459q-1 7 -1.5 15.5t-0.5 23.5zM420 1354q0 51 25.5 79.5t70.5 28.5t70.5 -28t25.5 -78q0 -13 -3 -36q-1 -4 -1 -5l-73 -459h-39l-74 458q-1 8 -1.5 16.5 t-0.5 23.5z" />
<glyph unicode="#" horiz-adv-x="1575" d="M70 428l59 168h301l92 262h-319l61 166h318l155 436h183l-156 -436h268l156 436h182l-156 -436h291l-59 -166h-291l-92 -262h307l-59 -168h-307l-154 -434h-184l155 434h-268l-154 -434h-184l156 434h-301zM608 594h275l94 264h-275z" />
<glyph unicode="$" horiz-adv-x="1139" d="M109 182q0 93 33 166.5t71 73.5q47 0 66 -100q6 -33 10 -52q13 -58 72.5 -94.5t144.5 -36.5q98 0 163.5 57t65.5 140q0 101 -212 222l-27 15q-19 11 -53 30q-121 68 -158 112q-39 46 -58.5 99.5t-19.5 113.5q0 152 110 255t287 113l21 134q5 35 16 46t39 11h37 q20 0 28.5 -6.5t8.5 -22.5q0 -10 -0.5 -15.5t-1.5 -10.5l-19 -140q182 -16 234.5 -57t52.5 -156q0 -59 -13.5 -81.5t-45.5 -22.5q-26 0 -45.5 15t-45.5 61q-33 59 -82.5 86.5t-123.5 27.5q-92 0 -145.5 -47.5t-53.5 -128.5q0 -41 27.5 -79.5t76.5 -65.5q19 -10 55 -29 q169 -88 226 -131q66 -49 101.5 -121t35.5 -155q0 -158 -121 -270.5t-315 -131.5l-27 -179q-5 -35 -16 -45.5t-39 -10.5h-35q-21 0 -30 6.5t-9 23.5q0 10 0.5 15t1.5 9l25 175q-156 15 -234.5 61t-78.5 121z" />
<glyph unicode="%" horiz-adv-x="1511" d="M55 918q0 166 116.5 285.5t279.5 119.5q127 0 204.5 -82.5t77.5 -216.5q0 -167 -115 -287.5t-274 -120.5q-129 0 -209 83t-80 219zM229 39q0 21 54 81t86 101q496 657 643 860.5t147 223.5q0 6 11 16t22 10q31 0 67.5 -24t36.5 -45q0 -17 -173.5 -230t-321.5 -409 q-150 -199 -248.5 -339.5t-159.5 -242.5q-5 -9 -13 -22q-28 -50 -46 -50q-31 0 -68 24.5t-37 45.5zM250 948q0 -106 36 -166.5t99 -60.5q68 0 110 71.5t42 192.5q0 110 -34 172t-93 62q-70 0 -115 -75.5t-45 -195.5zM778 272q0 167 116.5 286.5t279.5 119.5q126 0 204 -83 t78 -218q0 -166 -114.5 -286t-274.5 -120q-129 0 -209 83t-80 218zM973 303q0 -106 37 -166.5t100 -60.5q68 0 109 71t41 193q0 110 -34 171.5t-93 61.5q-70 0 -115 -75t-45 -195z" />
<glyph unicode="&#x26;" horiz-adv-x="1567" d="M53 477q0 161 91.5 290.5t267.5 217.5q-51 50 -76 105.5t-25 115.5q0 138 108.5 225t282.5 87q126 0 207.5 -35t81.5 -84q0 -29 -21 -53.5t-46 -24.5q-13 0 -76 28.5t-115 28.5q-80 0 -132 -49.5t-52 -126.5q0 -61 28.5 -102.5t86.5 -63.5q13 -5 38 -14q89 -32 89 -49 q0 -8 -10 -23.5t-25 -31.5q-29 -32 -48 -45t-36 -13q-19 0 -50.5 10t-80.5 31q-112 -62 -170 -159.5t-58 -221.5q0 -186 106 -295.5t286 -109.5q172 0 290.5 107t118.5 261q0 88 -37 135.5t-104 47.5q-55 0 -105 -39t-75 -101q-7 -16 -14 -50q-14 -72 -62 -73 q-27 0 -44.5 23t-17.5 59q0 82 77.5 169t248.5 198q42 27 121 76q297 183 297 309q0 45 -21 68.5t-61 23.5q-17 0 -46.5 -8t-43.5 -8q-22 0 -33.5 11t-11.5 32q0 50 64.5 97.5t142.5 47.5q98 0 161.5 -60t63.5 -155q0 -123 -115 -235.5t-366 -235.5q113 -21 172 -90.5 t59 -181.5q0 -121 -66.5 -230.5t-197.5 -201.5q-93 -67 -210.5 -102.5t-246.5 -35.5q-91 0 -171 18t-134 50q-145 87 -215 194t-70 242z" />
<glyph unicode="'" horiz-adv-x="358" d="M84 1354q0 52 24.5 80t69.5 28q47 0 71.5 -27.5t24.5 -80.5q0 -16 -0.5 -24.5t-1.5 -15.5l-73 -458h-39l-74 459q-1 7 -1.5 15.5t-0.5 23.5z" />
<glyph unicode="(" horiz-adv-x="829" d="M135 449q0 257 119 498.5t330 412.5q89 72 180.5 115t148.5 43q23 0 35.5 -11t12.5 -30q0 -25 -64.5 -56.5t-101.5 -60.5q-106 -82 -173.5 -166t-111.5 -186q-62 -146 -93.5 -299.5t-31.5 -309.5q0 -223 51.5 -352.5t173.5 -226.5q21 -17 58 -38q51 -29 51 -54 q0 -20 -14 -30.5t-39 -10.5q-36 0 -94 23.5t-111 62.5q-156 112 -241 288.5t-85 387.5z" />
<glyph unicode=")" horiz-adv-x="829" d="M-164 -274q0 24 64 55.5t102 60.5q106 82 174.5 167t112.5 188q61 143 92 296.5t31 311.5q0 223 -51.5 351.5t-174.5 225.5q-19 17 -56 38q-52 30 -52 57q0 19 14 30t39 11q36 0 94 -24t111 -62q155 -112 240.5 -288.5t85.5 -387.5q0 -258 -119 -499t-330 -413 q-90 -73 -180.5 -116t-147.5 -43q-22 0 -35.5 11t-13.5 30z" />
<glyph unicode="*" horiz-adv-x="1024" d="M199 1229q0 53 34 90t84 37q35 0 63 -16.5t48 -49.5q5 -8 13 -22q48 -84 83 -84q12 0 18.5 6t6.5 16q0 37 -34 96.5t-34 90.5q0 52 34.5 88.5t84.5 36.5t86.5 -35.5t36.5 -83.5q0 -46 -54.5 -109.5t-54.5 -93.5q1 -12 6.5 -17t18.5 -5q17 0 35.5 11t40.5 34q6 6 17 19 q53 62 112 62q49 0 86 -35.5t37 -82.5q0 -51 -37.5 -88t-89.5 -37q-26 0 -78.5 26.5t-87.5 26.5q-17 0 -26 -5t-9 -15q0 -22 23.5 -43.5t66.5 -36.5q53 -21 77.5 -53t24.5 -80q0 -47 -36 -81t-86 -34t-85.5 35.5t-35.5 85.5q0 14 5 43t5 45q0 36 -9.5 58t-25.5 22 q-17 0 -29 -24t-18 -69v-4q-22 -161 -125 -161q-52 0 -88.5 36t-36.5 89q0 52 32 83t99 41q50 9 77.5 26.5t27.5 39.5q0 12 -17.5 19.5t-46.5 7.5q-22 0 -60 -11.5t-54 -11.5q-53 0 -89 34t-36 83z" />
<glyph unicode="+" horiz-adv-x="1706" d="M254 528v166h514v527h170v-527h514v-166h-514v-528h-170v528h-514z" />
<glyph unicode="," d="M31 -326q0 8 29.5 44.5t50.5 66.5q42 62 60.5 100.5t18.5 61.5q0 18 -29 30q-13 5 -20 9q-41 21 -56 46.5t-15 69.5q0 83 47.5 136t122.5 53q64 0 99.5 -45.5t35.5 -126.5q0 -72 -35 -153.5t-123 -209.5q-46 -68 -74 -92t-57 -24q-24 0 -39.5 10t-15.5 24z" />
<glyph unicode="-" horiz-adv-x="711" d="M68 471q0 18 8.5 45t25.5 64q14 29 29 39t57 10q2 0 50.5 -1t95.5 -1q85 0 177 6q23 2 28 2q32 0 46.5 -12t14.5 -39q0 -62 -32 -111t-81 -49q-12 0 -48 2t-58 2q-119 0 -233 -9q-17 -1 -21 -1q-32 0 -45.5 12t-13.5 41z" />
<glyph unicode="." d="M74 133q0 69 46.5 115.5t115.5 46.5q68 0 114.5 -46.5t46.5 -115.5q0 -67 -47 -114.5t-114 -47.5q-68 0 -115 47.5t-47 114.5z" />
<glyph unicode="/" horiz-adv-x="598" d="M-20 -166q0 6 0.5 9.5t1.5 5.5l421 1624q6 23 32 34t77 11q30 0 40.5 -5.5t10.5 -19.5q0 -7 -1.5 -16t-4.5 -21l-412 -1603q-6 -23 -33 -33t-79 -10q-32 0 -42.5 5t-10.5 19z" />
<glyph unicode="0" horiz-adv-x="1139" d="M45 524q0 164 50 315.5t141 264.5q84 106 190.5 162.5t218.5 56.5q198 0 322.5 -149.5t124.5 -391.5q0 -159 -43 -307.5t-121 -259.5q-83 -119 -194.5 -184.5t-231.5 -65.5q-211 0 -334 150t-123 409zM295 487q0 -187 56 -288t161 -101q68 0 125 44t96 126q51 106 80 250 t29 291q0 174 -59.5 277.5t-157.5 103.5q-141 0 -235.5 -197t-94.5 -506z" />
<glyph unicode="1" horiz-adv-x="1139" d="M209 53q0 23 12 38t40 26q7 3 52.5 10t65.5 37q14 21 29.5 101.5t40.5 256.5q28 205 44.5 351.5t16.5 191.5q0 35 -16 51.5t-52 16.5h-14q-30 0 -46.5 12.5t-16.5 34.5q0 32 30 53.5t109 40.5q85 21 154 32t114 11q38 0 59 -15.5t21 -44.5q0 -28 -36 -51q-5 -3 -9 -6 q-34 -23 -46 -94q-2 -13 -3 -20q-21 -106 -43.5 -255t-42.5 -325q-13 -105 -21 -194.5t-8 -116.5t10.5 -43t30.5 -21q10 -2 28 -5q85 -14 85 -63q0 -42 -56.5 -57.5t-253.5 -15.5q-191 0 -234.5 13.5t-43.5 49.5z" />
<glyph unicode="2" horiz-adv-x="1139" d="M-51 41q0 25 61 85q9 10 15 15l340 348q208 214 287 336t79 217q0 57 -38.5 94.5t-98.5 37.5q-56 0 -116 -23.5t-116 -67.5q-30 -23 -75 -67q-65 -62 -94 -62q-18 0 -29.5 13.5t-11.5 33.5q0 26 22 60.5t64 73.5q98 89 218.5 139.5t235.5 50.5q152 0 238 -74.5t86 -206.5 q0 -104 -68 -210.5t-307 -327.5l-346 -322h350q108 0 143 9.5t56 31.5q17 19 44 56q50 67 87 67q18 0 30.5 -17t12.5 -42q0 -34 -27.5 -101t-72.5 -137q-40 -59 -64.5 -80.5t-48.5 -21.5q-5 0 -47 25.5t-103 25.5h-606q-57 0 -78.5 9t-21.5 32z" />
<glyph unicode="3" horiz-adv-x="1139" d="M-63 -80q0 24 18 40.5t45 16.5q21 0 109.5 -18t156.5 -18q191 0 310.5 101t119.5 259q0 105 -59.5 168t-159.5 63q-28 0 -80 -10t-75 -10t-31 10t-8 37q0 59 71 82q18 6 28 10q148 53 227 140t79 196q0 89 -48.5 138t-137.5 49q-41 0 -83.5 -12t-86.5 -36 q-21 -11 -55 -31q-61 -36 -84 -36q-25 0 -39.5 12.5t-14.5 34.5q0 16 13.5 34.5t40.5 39.5q90 66 206 103.5t230 37.5q158 0 247 -78.5t89 -216.5q0 -107 -63.5 -200t-184.5 -164q121 -17 188.5 -99t67.5 -211q0 -242 -190 -393.5t-498 -151.5q-167 0 -257.5 29.5 t-90.5 83.5z" />
<glyph unicode="4" horiz-adv-x="1139" d="M-55 168q0 71 148 244q29 33 44 51q202 237 379.5 440t284.5 320q50 53 82.5 73.5t64.5 20.5q37 0 53.5 -19t16.5 -61q0 -13 -3 -43q-1 -7 -1 -10l-125 -899h94q34 0 45.5 -8t11.5 -29q0 -9 -0.5 -14.5t-1.5 -10.5l-8 -57q-6 -33 -17.5 -43t-47.5 -10h-101l-43 -312 q-6 -42 -19.5 -54.5t-49.5 -12.5h-105q-40 0 -52.5 7.5t-12.5 29.5q0 8 0.5 13t1.5 10l45 319h-600q-49 0 -66.5 12t-17.5 43zM154 285h499l99 696q-156 -164 -305.5 -338t-292.5 -358z" />
<glyph unicode="5" horiz-adv-x="1139" d="M63 -80q0 27 19.5 45.5t48.5 18.5q17 0 90.5 -18.5t130.5 -18.5q148 0 243 91.5t95 233.5q0 111 -71.5 178.5t-245.5 116.5q-40 12 -97 21q-77 13 -77 57q0 42 52 193.5t136 343.5q33 76 57.5 94t100.5 18h395q59 0 126 23q17 6 21 6q7 0 11 -10t4 -27q0 -30 -19 -83 t-34 -70t-42 -24t-75 -7h-322q-43 0 -67.5 -7.5t-36.5 -23.5q-23 -31 -52 -105.5t-71 -207.5q305 -50 439 -153t134 -286q0 -121 -58.5 -226t-164.5 -175q-81 -54 -174 -81t-194 -27q-135 0 -218.5 31t-83.5 79z" />
<glyph unicode="6" horiz-adv-x="1139" d="M104 428q0 214 102 428t294 401q78 77 141.5 123.5t87.5 46.5q30 0 62 -22.5t32 -40.5q0 -22 -74 -96t-120 -131q-69 -85 -120 -175.5t-85 -187.5q54 62 124.5 94.5t149.5 32.5q148 0 232 -98t84 -271q0 -110 -35 -210t-102 -183q-67 -82 -160 -125t-205 -43 q-186 0 -297 124t-111 333zM354 340q0 -112 44.5 -173t125.5 -61q104 0 174 104t70 265q0 118 -44.5 182t-127.5 64q-113 0 -177.5 -101.5t-64.5 -279.5z" />
<glyph unicode="7" horiz-adv-x="1139" d="M123 -178q0 14 8.5 35t30.5 57l645 1077q15 24 23 45.5t8 36.5q0 21 -18.5 29t-74.5 8h-333q-48 0 -76.5 -10t-42.5 -31q-10 -16 -27 -45q-45 -78 -86 -78q-20 0 -35.5 18.5t-15.5 41.5q0 42 18.5 100t53.5 125q25 50 44.5 71t41.5 21q3 0 15 -5q56 -24 120 -24h557 q83 0 107 -12t24 -47q0 -18 -11 -49.5t-32 -71.5l-629 -1237q-5 -10 -13 -27q-49 -100 -108 -100q-79 0 -136.5 21.5t-57.5 50.5z" />
<glyph unicode="8" horiz-adv-x="1139" d="M72 309q0 126 87 237.5t251 192.5q-99 70 -144 141t-45 154q0 163 140.5 277t345.5 114q174 0 279.5 -80t105.5 -210q0 -99 -77 -195t-229 -186q129 -86 185.5 -170.5t56.5 -190.5q0 -87 -48.5 -172.5t-133.5 -146.5q-72 -54 -158 -80.5t-188 -26.5q-190 0 -309 95.5 t-119 246.5zM311 346q0 -108 62 -175t162 -67q99 0 173 73t74 167q0 83 -59 154.5t-199 154.5q-108 -63 -160.5 -138.5t-52.5 -168.5zM475 1087q0 -67 41 -122.5t139 -118.5q102 68 149.5 132t47.5 132q0 76 -52 128t-128 52q-81 0 -139 -59.5t-58 -143.5z" />
<glyph unicode="9" horiz-adv-x="1139" d="M131 762q0 112 34.5 211.5t100.5 181.5q67 82 160.5 125t206.5 43q186 0 296.5 -124t110.5 -333q0 -214 -101.5 -428t-293.5 -401q-78 -77 -141.5 -123.5t-87.5 -46.5q-30 0 -62 22.5t-32 40.5q0 22 74 96.5t120 131.5q68 85 119.5 175.5t85.5 186.5q-55 -62 -125 -94.5 t-150 -32.5q-147 0 -231 98t-84 271zM377 819q0 -118 44.5 -182t127.5 -64q112 0 177 101.5t65 279.5q0 112 -44.5 173t-125.5 61q-104 0 -174 -104t-70 -265z" />
<glyph unicode=":" d="M43 133q0 69 47 115.5t115 46.5t114 -46.5t46 -115.5q0 -68 -46.5 -115t-113.5 -47q-68 0 -115 47.5t-47 114.5zM154 895q0 68 46.5 115t114.5 47q69 0 115.5 -47t46.5 -115q0 -67 -47 -113.5t-115 -46.5t-114.5 46.5t-46.5 113.5z" />
<glyph unicode=";" d="M-2 -326q0 9 29 46t49 65q42 62 61 100.5t19 61.5q0 18 -28 30q-12 5 -20 9q-41 21 -56 46.5t-15 69.5q0 83 47 136t121 53q64 0 99.5 -45.5t35.5 -126.5q0 -73 -35 -155.5t-121 -207.5q-46 -68 -74 -92t-57 -24q-23 0 -39 10t-16 24zM143 895q0 69 46 115.5t114 46.5 t115 -47t47 -115q0 -67 -47 -113.5t-115 -46.5q-67 0 -113.5 46t-46.5 114z" />
<glyph unicode="&#x3c;" horiz-adv-x="1706" d="M264 530v160l1178 486v-185l-934 -381l934 -381v-182z" />
<glyph unicode="=" horiz-adv-x="1706" d="M254 322v165h1198v-165h-1198zM254 733v168h1198v-168h-1198z" />
<glyph unicode="&#x3e;" horiz-adv-x="1706" d="M264 47v182l934 381l-934 381v185l1178 -486v-160z" />
<glyph unicode="?" horiz-adv-x="948" d="M106 1178q0 130 140.5 235t333.5 105q156 0 249 -77.5t93 -207.5q0 -68 -32 -138t-91 -132q-41 -44 -132 -122t-126 -124q-43 -57 -55 -173q-4 -35 -7 -53q-5 -30 -26 -48.5t-50 -18.5q-37 0 -54 21t-17 65q0 99 34.5 190.5t108.5 188.5q16 20 49 60q148 180 148 308 q0 68 -36.5 104t-105.5 36q-63 0 -107 -25.5t-63 -73.5q-10 -25 -23 -73q-38 -133 -134 -133q-48 0 -72.5 21.5t-24.5 64.5zM211 133q0 69 46 115.5t114 46.5t114.5 -46.5t46.5 -115.5q0 -67 -47 -114.5t-114 -47.5q-68 0 -114 47t-46 115z" />
<glyph unicode="@" horiz-adv-x="2019" d="M139 537q0 203 86 381t250 313q135 111 297.5 168t345.5 57q348 0 557 -188.5t209 -501.5q0 -159 -59 -297.5t-168 -237.5q-62 -54 -129 -82t-133 -28q-98 0 -152.5 52.5t-60.5 152.5q-64 -105 -137.5 -154t-165.5 -49q-134 0 -212.5 92t-78.5 248q0 112 49 219t141 195 q68 65 147.5 99t161.5 34q90 0 145.5 -47.5t72.5 -139.5l51 170h172l-172 -616l-2 -6q-15 -59 -15 -90q0 -49 22 -76t60 -27q34 0 84 22t92 56q110 88 169 222t59 296q0 279 -191 450t-504 171q-173 0 -328.5 -65t-273.5 -185q-122 -125 -183.5 -286t-61.5 -357 q0 -172 59.5 -306.5t179.5 -234.5q106 -88 247 -135t302 -47q166 0 321 51.5t304 157.5l37 -47q-148 -111 -315 -167.5t-347 -56.5q-188 0 -347 46.5t-275 134.5q-151 113 -230.5 277t-79.5 362zM772 367q0 -83 36.5 -133t94.5 -50q62 0 115.5 41.5t107.5 132.5 q56 96 89.5 210t33.5 204q0 83 -37.5 132.5t-99.5 49.5q-64 0 -117 -45t-106 -147q-57 -107 -87 -209.5t-30 -185.5z" />
<glyph unicode="A" horiz-adv-x="1417" d="M-109 61q0 50 63 73q21 8 31 13q109 57 210 251q22 42 34 65q67 123 181 332q255 466 284 564q5 18 13 49q27 105 94 105q36 0 53.5 -9t32.5 -34q13 -22 43 -132t127 -498q26 -104 66 -276q83 -351 120 -390q14 -15 66.5 -37t52.5 -59q0 -48 -64.5 -68t-226.5 -20 q-191 0 -241 15.5t-50 57.5q0 28 16.5 44t61.5 30q49 15 64.5 34t15.5 60q0 42 -9 93.5t-20 78.5q-6 19 -51 26t-170 7q-201 0 -258 -4.5t-76 -15.5q-26 -17 -56 -82.5t-30 -108.5q0 -15 7.5 -32t19.5 -29q8 -8 53 -26t45 -58q0 -49 -52.5 -69.5t-182.5 -20.5 q-164 0 -215.5 15.5t-51.5 55.5zM445 594h5q134 4 201 4q70 0 207 -4h6q-22 86 -55 223q-55 234 -90 234q-45 0 -269 -446z" />
<glyph unicode="B" horiz-adv-x="1389" d="M-47 66q0 25 18.5 42.5t64.5 32.5q4 1 12 4q48 14 63 43q10 19 29.5 134t43.5 296q38 292 55 448.5t17 203.5q0 34 -8 48t-35 28q-7 3 -21 8q-45 17 -45 53q0 44 39 66t117 22q277 0 531 5q36 1 43 1q204 0 310.5 -86.5t106.5 -253.5q0 -143 -94.5 -238t-277.5 -135 q172 -18 263 -109t91 -245q0 -218 -152 -333t-440 -115q-89 0 -230.5 6t-193.5 6q-30 0 -82.5 -2t-73.5 -2q-77 0 -114 17.5t-37 54.5zM401 240q0 -74 36 -98.5t143 -24.5q195 0 300 87t105 249q0 133 -82 196.5t-256 63.5q-26 0 -73.5 -1.5t-114.5 -5.5l-45 -323 q-6 -41 -9.5 -77.5t-3.5 -65.5zM473 852q36 -4 71.5 -6t73.5 -2q203 0 295.5 80t92.5 256q0 105 -61.5 147.5t-223.5 42.5q-82 0 -113.5 -8t-44.5 -29q-16 -25 -28.5 -79t-34.5 -210z" />
<glyph unicode="C" horiz-adv-x="1403" d="M59 633q0 153 39.5 286.5t118.5 245.5q115 166 293 259.5t379 93.5q98 0 201.5 -28t109.5 -28q12 0 39 12.5t43 12.5q43 0 72.5 -79t29.5 -200q0 -69 -18 -101t-57 -32q-23 0 -40.5 14t-49.5 68q-79 127 -158.5 177t-192.5 50q-232 0 -378 -197t-146 -519 q0 -256 112 -410t296 -154q107 0 199.5 53t170.5 158q8 11 21 32q38 61 74 61q27 0 42 -23.5t15 -67.5q0 -96 -29.5 -160.5t-70.5 -64.5q-6 0 -13 1t-10 1q-21 0 -47 -13q-7 -4 -10 -5q-131 -67 -219 -90t-183 -23q-285 0 -459 183.5t-174 486.5z" />
<glyph unicode="D" horiz-adv-x="1569" d="M-47 72q0 20 11.5 33.5t41.5 25.5q3 1 10 4q71 28 86 66q12 29 30.5 127t45.5 274q37 238 58.5 412.5t21.5 228.5q0 79 -74 122q-1 1 -2 1l-3 2q-38 20 -38 53q0 38 33 56t105 18q11 0 77 -3t121 -3q58 0 178 10t181 10q321 0 497 -169t176 -478q0 -201 -69 -369.5 t-201 -287.5q-115 -106 -272.5 -160.5t-345.5 -54.5q-60 0 -176 7t-173 7q-70 0 -149 -2h-25q-86 0 -115.5 15.5t-29.5 54.5zM406 262q0 -73 38.5 -103t135.5 -30q316 0 474 181.5t158 545.5q0 252 -116.5 381t-343.5 129q-105 0 -145 -24t-58 -97q-15 -61 -39.5 -205 t-52.5 -335q-28 -200 -39.5 -301t-11.5 -142z" />
<glyph unicode="E" horiz-adv-x="1284" d="M-47 72q0 20 11.5 33.5t41.5 25.5q3 1 10 4q71 28 86 66q12 29 30.5 127t45.5 274q37 238 58.5 412.5t21.5 228.5q0 79 -74 122q-1 1 -2 1l-3 2q-38 20 -38 53q0 37 31.5 55t97.5 17h760q94 0 162 18q8 2 10 2q34 0 48 -37.5t14 -129.5q0 -87 -17.5 -126.5t-54.5 -39.5 q-40 0 -78 71q-14 27 -22 41q-16 27 -54 42.5t-90 15.5h-250q-56 0 -96.5 -17.5t-56.5 -48.5q-11 -23 -17.5 -44t-9.5 -40q-19 -113 -30 -190.5t-11 -102.5q0 -33 8.5 -42t38.5 -9h146q92 0 125.5 19t54.5 73q8 22 19 62q22 84 71 84q34 0 47.5 -21.5t13.5 -75.5 q0 -59 -14.5 -169.5t-40.5 -229.5q-16 -75 -34.5 -102t-51.5 -27q-28 0 -39.5 19t-15.5 89q-5 74 -29.5 105t-77.5 31h-196q-29 0 -43.5 -19.5t-24.5 -72.5q-20 -101 -31.5 -196t-11.5 -153q0 -71 42 -101t142 -30h181q96 0 159.5 27t108.5 88q22 30 50 87q39 79 75 79 q25 0 36 -14t11 -46q0 -37 -18 -96.5t-64 -169.5q-26 -62 -49.5 -91.5t-48.5 -29.5q-4 0 -48.5 12.5t-88.5 12.5h-807q-60 0 -89.5 18t-29.5 54z" />
<glyph unicode="F" horiz-adv-x="1247" d="M-23 72q0 20 12 33.5t42 25.5q2 1 7 3q72 28 87 67q13 32 33 135t45 266q36 235 58 411t22 230q0 79 -75 122l-1 1l-6 3q-37 20 -37 52q0 37 32 54.5t99 17.5h760q94 0 162 18q8 2 10 2q32 0 45.5 -36t13.5 -131q0 -88 -16.5 -127t-52.5 -39q-40 0 -78 71q-14 27 -23 41 q-16 27 -53.5 42.5t-89.5 15.5h-252q-56 0 -95.5 -17.5t-56.5 -48.5q-10 -23 -16.5 -43.5t-9.5 -39.5q-20 -114 -30.5 -191.5t-10.5 -102.5q0 -34 8 -42.5t37 -8.5h145q94 0 128 19.5t54 72.5q9 22 20 62q22 84 71 84q33 0 47 -21.5t14 -75.5q0 -59 -14.5 -169.5 t-40.5 -229.5q-16 -75 -34.5 -102t-51.5 -27q-29 0 -41.5 20t-16.5 89q-5 75 -28.5 105t-75.5 30h-199q-27 0 -41 -18.5t-24 -73.5q-22 -109 -33.5 -211t-11.5 -172q0 -38 9.5 -63t27.5 -32q8 -3 21 -8q67 -25 67 -63q0 -47 -56.5 -64.5t-259.5 -17.5q-139 0 -192.5 18.5 t-53.5 63.5z" />
<glyph unicode="G" horiz-adv-x="1536" d="M59 631q0 153 39.5 286.5t118.5 245.5q115 166 293 259.5t379 93.5q98 0 201.5 -28t109.5 -28q12 0 39 12.5t43 12.5q43 0 72.5 -79t29.5 -200q0 -68 -18 -99.5t-57 -31.5q-24 0 -41.5 14t-48.5 66q-79 127 -158.5 177t-192.5 50q-232 0 -378 -197t-146 -519 q0 -249 110 -406.5t279 -157.5q134 0 231 101t97 239q0 39 -11.5 57.5t-41.5 30.5q-16 7 -57 11t-62 10q-20 6 -32.5 22t-12.5 35q0 49 59.5 66.5t288.5 17.5q220 0 281 -17.5t61 -66.5q0 -46 -74 -64q-19 -4 -30 -7q-37 -12 -55.5 -28.5t-35.5 -62.5q-7 -19 -20 -57 q-75 -216 -195 -305q-78 -57 -188 -88t-238 -31q-291 0 -465 181t-174 485z" />
<glyph unicode="H" horiz-adv-x="1526" d="M-47 72q0 20 11.5 33.5t41.5 25.5q3 1 10 4q71 28 86 66q12 29 30.5 127t45.5 274q37 235 58.5 411t21.5 230q0 79 -74 122q-1 1 -2 1l-3 2q-38 20 -38 53q0 47 54 64.5t225 17.5q166 0 222 -18t56 -64q0 -41 -62 -63.5t-75 -34.5q-26 -26 -51 -139t-25 -238 q0 -46 33 -62t180 -16h25h127q108 0 155 5t70 16q12 5 18.5 15.5t12.5 35.5q17 78 27 155.5t10 129.5v41q0 31 -6.5 48t-19.5 29q-3 2 -49 21t-46 57q0 47 55 64.5t217 17.5q168 0 224.5 -18t56.5 -64q0 -19 -12 -32.5t-43 -26.5q-3 -1 -8 -3q-71 -28 -87 -67 q-12 -32 -32 -135t-45 -266q-37 -235 -58.5 -411t-21.5 -230q0 -79 74 -122l1 -1l6 -3q37 -20 37 -52q0 -47 -54.5 -64.5t-225.5 -17.5q-162 0 -217 18t-55 64q0 40 74 68q35 13 53 22q16 9 27.5 31.5t19.5 62.5q23 114 37 216t14 153q0 47 -28.5 64.5t-121.5 17.5 q-16 0 -61 -1t-74 -1h-86q-131 0 -173 -8.5t-54 -28.5q-22 -33 -39 -157q-3 -19 -4 -27q-15 -112 -22 -172.5t-7 -84.5q0 -32 9.5 -54.5t24.5 -28.5q9 -4 23 -9q66 -25 66 -63q0 -46 -52.5 -63t-228.5 -17q-173 0 -225.5 17t-52.5 63z" />
<glyph unicode="I" horiz-adv-x="657" d="M-47 72q0 20 11.5 33.5t41.5 25.5q3 1 10 4q71 28 86 66q12 29 30.5 127t45.5 274q37 235 58.5 411t21.5 230q0 79 -74 122q-1 1 -2 1l-3 2q-38 20 -38 53q0 47 56 64.5t233 17.5q166 0 222.5 -18t56.5 -64q0 -19 -9.5 -31t-44.5 -28q-8 -4 -24 -11q-66 -28 -80 -61 q-19 -45 -41 -164.5t-49 -328.5q-28 -222 -45 -378t-17 -190q0 -33 9.5 -56t26.5 -30q7 -3 21 -8q66 -25 66 -63q0 -46 -52.5 -63t-227.5 -17q-181 0 -235 17t-54 63z" />
<glyph unicode="J" horiz-adv-x="1161" d="M-33 272q0 91 52 149t133 58q59 0 99 -37t40 -92q0 -29 -24.5 -71.5t-24.5 -63.5q0 -49 42 -83t107 -34q108 0 165.5 74t94.5 272q1 4 29.5 221.5t54.5 413.5q7 49 11 91.5t4 72.5q0 79 -75 122l-1 1l-4 2q-37 20 -37 53q0 47 56 64.5t233 17.5q165 0 221.5 -18t56.5 -64 q0 -36 -61 -62q-21 -10 -33 -16q-76 -36 -106 -219q-4 -27 -7 -43q-27 -165 -60 -456.5t-69 -374.5q-60 -138 -189.5 -213.5t-305.5 -75.5q-173 0 -287.5 89.5t-114.5 221.5z" />
<glyph unicode="K" horiz-adv-x="1356" d="M-47 72q0 20 11.5 33.5t41.5 25.5q3 1 10 4q71 28 86 66q12 29 30.5 127t45.5 274q37 235 58.5 411t21.5 230q0 79 -74 122q-1 1 -2 1l-3 2q-38 20 -38 53q0 47 54 64.5t225 17.5q166 0 222 -18t56 -64q0 -41 -62.5 -63.5t-74.5 -34.5q-13 -14 -23.5 -42t-21.5 -81 q-17 -86 -27 -164t-10 -112q0 -32 6.5 -44t22.5 -12q17 0 39 16.5t82 80.5l276 288q31 32 45.5 51.5t14.5 28.5q0 12 -50.5 31.5t-50.5 52.5q0 47 58 66.5t202 19.5q153 0 199.5 -16.5t46.5 -61.5q0 -49 -87 -64q-19 -3 -30 -5q-47 -10 -106 -50t-125 -108l-358 -371 l403 -538q55 -76 81.5 -101.5t52.5 -36.5q11 -4 34 -12q65 -22 65 -67q0 -42 -41.5 -62t-130.5 -20q-106 0 -149 22.5t-109 112.5l-350 479q-18 26 -32 38.5t-23 12.5q-10 0 -16.5 -9.5t-10.5 -31.5q-22 -130 -35.5 -243.5t-13.5 -143.5q0 -32 9.5 -54.5t24.5 -28.5 q9 -4 23 -9q66 -25 66 -63q0 -46 -52.5 -63t-228.5 -17q-173 0 -225.5 17t-52.5 63z" />
<glyph unicode="L" horiz-adv-x="1157" d="M-33 72q0 20 11.5 33.5t42.5 25.5q2 1 7 3q71 28 87 67q13 32 32.5 135t45.5 266q36 235 57.5 411t21.5 230q0 79 -74 122l-1 1l-6 3q-37 20 -37 52q0 47 57 64.5t235 17.5q166 0 222.5 -18t56.5 -64q0 -22 -13.5 -36t-60.5 -31q-2 -1 -7 -3q-65 -24 -85 -77q0 -1 -1 -5 q-34 -114 -56 -263q-44 -299 -67 -492t-23 -254q0 -56 28.5 -80t94.5 -24h167q79 0 133.5 30t102.5 101q14 21 36 61q46 84 87 84q26 0 38.5 -16.5t12.5 -50.5q0 -41 -18.5 -106t-53.5 -148q-29 -70 -55.5 -104t-52.5 -34l-46 13q-46 14 -100 14h-641q-109 0 -143.5 15.5 t-34.5 56.5z" />
<glyph unicode="M" horiz-adv-x="1843" d="M-43 72q0 24 14 39t55 30q5 2 14 5q50 18 75 83q18 52 43 172t51 279q34 211 53 357.5t19 201.5q0 52 -7 70.5t-27 30.5q-8 5 -30 10q-53 12 -53 55q0 54 51 75t195 21q89 0 123 -6t49 -20q17 -16 64 -226q38 -167 65 -276q74 -305 114 -423t66 -118q25 0 93.5 118 t313.5 613q24 49 62 132q73 164 117 190q13 9 49.5 13.5t95.5 4.5q138 0 190 -18t52 -64q0 -20 -11.5 -33.5t-42.5 -25.5q-6 -3 -16 -7q-62 -24 -78 -63q-13 -34 -26 -107t-39 -294q-28 -245 -43 -408.5t-15 -230.5q0 -79 71 -121l3 -2l4 -2q39 -21 39 -53q0 -46 -55 -64 t-217 -18q-160 0 -214.5 18t-54.5 64q0 20 10.5 33t43.5 28q9 4 29 12q53 20 65 41q24 48 52.5 279.5t68.5 710.5q-82 -160 -218 -431q-365 -724 -429 -724q-54 0 -136.5 259.5t-232.5 907.5q-66 -356 -108 -630t-42 -329q0 -35 10.5 -57t31.5 -33q7 -4 24 -10 q45 -15 45 -53q0 -49 -44.5 -67.5t-182.5 -18.5q-111 0 -155 18t-44 62z" />
<glyph unicode="N" horiz-adv-x="1554" d="M-47 66q0 40 62 66q5 2 7 3q3 1 10 4q56 25 81 86q18 46 36.5 143t49.5 310q29 206 45 362.5t16 239.5q0 30 -7.5 44t-24.5 19q-7 2 -19 5q-62 16 -62 57q0 52 51.5 74t182.5 22q43 0 63 -3t37 -9q37 -14 84 -113q18 -36 29 -57q124 -237 271 -471.5t313 -458.5 q62 439 87 633t25 231q0 39 -10 62t-33 35q-7 4 -24 10q-47 16 -47 53q0 50 46.5 69t184.5 19q127 0 170 -16.5t43 -59.5q0 -41 -64 -66q-23 -9 -36 -16q-66 -31 -130 -424l-3 -21q-40 -251 -68.5 -529t-30.5 -290q-8 -61 -23 -81.5t-46 -20.5q-35 0 -83.5 52t-193.5 266 q-183 271 -319.5 491t-216.5 375q-57 -356 -89 -603t-32 -322q0 -35 5.5 -52.5t18.5 -29.5q7 -6 47.5 -23t40.5 -53q0 -50 -45.5 -69t-183.5 -19q-128 0 -171.5 16.5t-43.5 59.5z" />
<glyph unicode="O" horiz-adv-x="1622" d="M59 649q0 210 84.5 386.5t245.5 303.5q108 87 246 133t291 46q285 0 461 -185.5t176 -486.5q0 -195 -69.5 -358t-211.5 -302q-109 -106 -257 -165.5t-302 -59.5q-144 0 -262 45.5t-209 136.5q-90 90 -141.5 224.5t-51.5 281.5zM358 659q0 -254 111.5 -406.5t294.5 -152.5 q213 0 357.5 198.5t144.5 500.5q0 267 -112 422t-304 155q-218 0 -355 -197.5t-137 -519.5z" />
<glyph unicode="P" horiz-adv-x="1237" d="M-47 72q0 20 11.5 33.5t41.5 25.5l15 6q67 26 81 62q12 30 30.5 127.5t45.5 275.5q38 246 59 415.5t21 221.5q0 81 -74 122l-2 1l-2 1q-39 21 -39 54q0 45 48 62.5t188 17.5h188q37 0 112 1t111 1q247 0 353 -81t106 -267q0 -236 -177 -361.5t-511 -125.5 q-21 0 -45.5 0.5t-75.5 2.5q-27 -176 -42 -290.5t-15 -149.5q0 -32 9.5 -54.5t25.5 -29.5q8 -3 21 -8q67 -25 67 -63q0 -46 -55 -63t-226 -17q-161 0 -215.5 17.5t-54.5 62.5zM459 805q7 -1 19 -2q78 -6 108 -6q185 0 283 89t98 259q0 112 -64.5 168.5t-191.5 56.5 q-37 0 -70.5 -4.5t-58.5 -11.5q-46 -14 -69 -171q-2 -14 -3 -22z" />
<glyph unicode="Q" horiz-adv-x="1622" d="M59 649q0 210 84.5 386.5t245.5 303.5q108 87 246 133t291 46q285 0 461 -185.5t176 -486.5q0 -234 -102.5 -429t-289.5 -319q-100 -67 -216 -101t-248 -36q67 -26 185 -76q234 -100 325 -100q76 0 141.5 44t75.5 44q14 0 24 -14t10 -35q0 -84 -98 -150.5t-235 -66.5 q-77 0 -161.5 22t-166.5 64q-77 38 -205 103q-259 132 -301 132q-37 0 -93.5 -39t-84.5 -39q-23 0 -38 19t-15 47q0 52 56 86.5t142 34.5q31 0 68 -3.5t84 -10.5q-171 87 -266 252t-95 374zM358 659q0 -254 111.5 -406.5t294.5 -152.5q213 0 357.5 198.5t144.5 500.5 q0 267 -112 422t-304 155q-218 0 -355 -197.5t-137 -519.5z" />
<glyph unicode="R" horiz-adv-x="1380" d="M-47 72q0 20 11.5 33.5t41.5 25.5l15 6q67 26 81 62q12 30 30.5 127.5t45.5 275.5q38 246 59 415.5t21 221.5q0 81 -74 122l-2 1l-2 1q-39 21 -39 54q0 45 48 62.5t188 17.5h188q37 0 112 1t111 1q247 0 353 -81t106 -265q0 -179 -105.5 -297.5t-283.5 -138.5 q120 -21 177.5 -85t76.5 -200l27 -197q6 -47 19 -75t36 -43q10 -7 52 -16t42 -46q0 -39 -46 -63.5t-124 -24.5q-112 0 -161 57t-87 314q-2 17 -6 52q-17 141 -61 192q-39 46 -96 67t-146 21h-123q-27 -180 -42 -294.5t-15 -148.5q0 -32 9.5 -54.5t25.5 -29.5q8 -3 21 -8 q67 -25 67 -63q0 -46 -55 -63t-226 -17q-161 0 -215.5 17.5t-54.5 62.5zM459 805q7 -1 19 -2q78 -6 108 -6q185 0 283 89t98 259q0 112 -64.5 168.5t-191.5 56.5q-37 0 -70.5 -4.5t-58.5 -11.5q-46 -14 -69 -171q-2 -14 -3 -22z" />
<glyph unicode="S" horiz-adv-x="1227" d="M43 256q0 113 20.5 163t65.5 50q51 0 95 -108q2 -6 3 -8q57 -142 125.5 -197.5t179.5 -55.5q136 0 217.5 72.5t81.5 189.5q0 73 -46 127.5t-207 141.5q-15 8 -44 23q-165 88 -243 159q-54 51 -82.5 119t-28.5 147q0 188 146 312.5t372 124.5q51 0 107 -10.5t63 -10.5 q21 0 64.5 15.5t64.5 15.5q59 0 104.5 -98t45.5 -228q0 -56 -20 -86.5t-56 -30.5q-50 0 -108 104q-19 34 -31 54q-45 72 -98.5 104.5t-128.5 32.5q-111 0 -177.5 -60.5t-66.5 -160.5q0 -41 13.5 -78.5t41.5 -74.5q28 -38 195 -128q63 -33 98 -53q161 -89 229 -180t68 -215 q0 -202 -169.5 -334.5t-432.5 -132.5q-98 0 -191 18t-161 50q-60 28 -84.5 77t-24.5 150z" />
<glyph unicode="T" horiz-adv-x="1294" d="M76 1161q0 45 18.5 116.5t48.5 139.5q23 50 47.5 75.5t49.5 25.5q1 0 11 -3q69 -22 173 -22h670q95 0 165 18q10 2 13 2q43 0 63.5 -50.5t20.5 -159.5q0 -113 -19.5 -162t-62.5 -49q-53 0 -84 104q-9 32 -14 49q-17 49 -49 70.5t-87 21.5h-61q-66 0 -89 -20t-36 -86 q-22 -110 -38.5 -214.5t-29.5 -213.5q-27 -225 -44 -382.5t-17 -191.5q0 -32 9.5 -54.5t24.5 -28.5q9 -4 24 -10q65 -25 65 -64q0 -46 -53 -63t-228 -17q-179 0 -233.5 17t-54.5 63q0 21 12 35t41 26q8 4 22 9q61 26 74 59q15 38 39 174t65 428q28 188 41 301.5t13 165.5 q0 42 -16.5 54.5t-82.5 12.5h-55q-60 0 -96 -16.5t-62 -54.5q-20 -30 -48 -84q-48 -90 -93 -90q-29 0 -43 17t-14 52z" />
<glyph unicode="U" horiz-adv-x="1546" d="M141 1421q0 47 54 64.5t225 17.5q166 0 222 -18t56 -64q0 -22 -13.5 -36t-59.5 -31q-3 -1 -10 -4q-60 -23 -81 -77q-8 -22 -20 -81.5t-23 -139.5q-9 -68 -26 -190q-51 -358 -51 -450q0 -153 80.5 -231.5t238.5 -78.5q150 0 258 69t144 187q22 74 50 296q8 67 13 104 q23 178 36 306t13 169q0 51 -11 78.5t-33 37.5q-9 5 -25 11q-48 16 -48 53q0 50 47 69t185 19q134 0 176.5 -16t42.5 -60q0 -41 -64 -66q-23 -9 -36 -16q-41 -19 -69 -106.5t-52 -273.5q-11 -84 -27 -233q-45 -399 -104 -505q-75 -131 -211 -198.5t-330 -67.5 q-262 0 -396 104t-134 308q0 80 36 325q10 63 15 97q23 149 36 273t13 177q0 46 -12 70t-64 53l-3 2q-38 20 -38 53z" />
<glyph unicode="V" horiz-adv-x="1346" d="M10 1421q0 47 56 64.5t231 17.5q186 0 242.5 -17.5t56.5 -64.5q0 -23 -14 -37.5t-64 -31.5q-56 -22 -70 -40t-14 -50q0 -23 22 -139.5t56 -260.5q53 -223 87 -325.5t54 -102.5q23 0 78.5 86.5t167.5 296.5q130 242 170.5 335.5t40.5 137.5q0 18 -11.5 35t-28.5 24 q-7 3 -18 7q-71 28 -71 65q0 46 54 64t202 18q138 0 190 -18t52 -64q0 -38 -60 -61q-19 -7 -30 -12q-100 -47 -159 -158l-1 -2q-163 -295 -383 -729q-242 -477 -299 -477q-79 0 -261 770q-50 212 -79 333q-3 12 -8 35q-43 188 -98 221q-12 7 -35 18q-56 27 -56 62z" />
<glyph unicode="W" horiz-adv-x="2157" d="M86 1421q0 47 56 64.5t231 17.5q185 0 241 -17.5t56 -64.5q0 -23 -14.5 -37.5t-63.5 -31.5q-54 -21 -68 -39t-14 -51q0 -29 21 -144.5t55 -255.5q53 -226 87 -327t56 -101q33 0 114.5 138.5t186.5 375.5q-3 15 -9 43q-62 289 -110 336q-13 14 -61.5 36.5t-48.5 57.5 q0 47 55.5 64.5t230.5 17.5q187 0 243 -17.5t56 -64.5q0 -23 -14 -37.5t-63 -31.5q-56 -22 -70 -40t-14 -50q0 -23 22 -139.5t56 -260.5q53 -223 86.5 -325.5t54.5 -102.5q22 0 78 86.5t168 296.5q129 242 170 335.5t41 137.5q0 18 -12 35t-30 25q-5 2 -16 6q-69 27 -69 65 q0 46 53 64t201 18q138 0 190.5 -18.5t52.5 -63.5q0 -37 -60 -60q-21 -8 -31 -13q-96 -45 -161 -157l-2 -4q-47 -81 -240 -457q-114 -223 -184 -357l-29 -58q-172 -333 -227 -333q-48 0 -98.5 141t-163.5 641q-30 -62 -86 -174q-302 -608 -366 -608q-30 0 -51 30.5 t-58 149.5q-45 148 -107 392t-126 531q-3 10 -7 27q-45 197 -99 229q-12 7 -34 18q-55 27 -55 62z" />
<glyph unicode="X" horiz-adv-x="1341" d="M-80 72q0 43 82 65q46 12 72 23q49 20 114 90.5t172 222.5l185 264l-105 254q-11 28 -32 79q-89 222 -178 273q-12 7 -35 18q-54 24 -54 60q0 47 57 65t236 17q175 0 231 -17.5t56 -64.5q0 -21 -11.5 -34t-41.5 -25q-3 -1 -10 -3q-50 -18 -50 -65q0 -33 67 -189 q3 -7 5 -11l61 -144l103 137q70 95 105.5 155t35.5 83q0 16 -43 40.5t-43 55.5q0 46 52.5 64t193.5 18t194.5 -18t53.5 -64q0 -43 -83 -65q-45 -12 -71 -23q-48 -18 -111.5 -87t-173.5 -226l-141 -201q37 -85 99 -231q159 -377 223 -420q20 -13 57 -31q63 -28 63 -65 q0 -47 -56 -64.5t-222 -17.5q-198 0 -253.5 17.5t-55.5 64.5q0 22 12 36t41 25q5 2 13 5q48 16 48 61q0 21 -19.5 75t-53.5 125l-99 205l-141 -198q-91 -128 -116 -172t-25 -64q0 -16 43 -41.5t43 -56.5q0 -46 -53 -64t-193 -18q-141 0 -194.5 18t-53.5 64z" />
<glyph unicode="Y" horiz-adv-x="1290" d="M88 1421q0 47 56 64.5t231 17.5q185 0 241 -17.5t56 -64.5q0 -22 -14.5 -36.5t-67.5 -34.5q-9 -4 -22 -8q-40 -13 -40 -48t37.5 -112.5t163.5 -290.5q163 189 222 273.5t59 125.5q0 21 -9.5 38t-22.5 22q-7 3 -21 8q-66 25 -66 63q0 46 54 64t202 18q137 0 189.5 -18 t52.5 -64q0 -38 -67 -64q-35 -13 -54 -24q-52 -28 -143.5 -134t-352.5 -454q-34 -224 -50.5 -352.5t-16.5 -165.5q0 -32 9 -54.5t26 -29.5q7 -3 21 -8q66 -25 66 -63q0 -46 -52.5 -63t-227.5 -17q-174 0 -226.5 17t-52.5 63q0 37 63 62q38 15 56 28q41 29 92 337 q23 145 39 232q-100 174 -202.5 375.5t-118.5 218.5q-13 12 -61 37t-48 59z" />
<glyph unicode="Z" horiz-adv-x="1294" d="M-47 68q0 59 140 225l1 2l694 819q21 25 57 67q93 110 93 126q0 19 -22.5 26.5t-92.5 7.5h-293q-73 0 -111.5 -21t-84.5 -101l-9 -15q-70 -121 -122 -121q-21 0 -34 16t-13 42q0 38 15 102.5t42 132.5q33 83 56 112.5t50 29.5q7 0 55.5 -12.5t96.5 -12.5h670 q118 0 150 -14t32 -52q0 -56 -132 -214l-11 -13l-693 -821q-20 -25 -56 -67q-93 -110 -93 -126q0 -19 22.5 -26.5t92.5 -7.5h360q72 0 110 20.5t85 102.5q3 5 8 14q71 121 123 121q20 0 33.5 -16t13.5 -42q0 -36 -15 -98.5t-41 -130.5q-33 -90 -55.5 -119t-52.5 -29 q-6 0 -55 12.5t-97 12.5h-735q-115 0 -148.5 14.5t-33.5 53.5z" />
<glyph unicode="[" horiz-adv-x="829" d="M147 -190q1 7 1.5 15t3.5 26l206 1495q12 90 46.5 118.5t136.5 28.5h260q52 0 72 -11t20 -38q0 -52 -20 -69t-87 -17h-120q-48 0 -66.5 -19.5t-28.5 -89.5l-180 -1298v-47q0 -38 15.5 -51t62.5 -13h90q60 0 81.5 -12.5t21.5 -44.5q0 -43 -23 -59.5t-96 -16.5h-228 q-94 0 -131 23t-37 80z" />
<glyph unicode="\" horiz-adv-x="598" d="M86 1475q0 23 16 33t56 10q43 0 60 -12.5t22 -47.5l239 -1593q0 -3 1 -7.5t1 -7.5q0 -23 -15.5 -33t-55.5 -10q-45 0 -62.5 13t-21.5 46l-238 1594q0 3 -1 8t-1 7z" />
<glyph unicode="]" horiz-adv-x="829" d="M-106 -244q0 52 20 69t86 17h119q47 0 66 20t28 89l180 1298q0 2 1 17.5t1 29.5q0 38 -15.5 51t-62.5 13h-92q-59 0 -79.5 12t-20.5 45q0 43 22.5 59.5t96.5 16.5h227q95 0 131.5 -23t36.5 -79q0 -6 -1 -15t-3 -26l-207 -1495q-12 -90 -46.5 -119t-137.5 -29h-260 q-52 0 -71 11t-19 38z" />
<glyph unicode="^" horiz-adv-x="2048" d="M412 897l503 565h215l502 -565h-104l-506 397l-506 -397h-104z" />
<glyph unicode="_" horiz-adv-x="1024" d="M0 -311h1024v-172h-1024v172z" />
<glyph unicode="`" horiz-adv-x="1024" d="M250 1393q0 47 25 82.5t55 35.5q10 0 25 -5t32 -15l348 -211q13 -8 19 -17.5t6 -21.5q0 -27 -17.5 -50.5t-40.5 -23.5q-15 0 -79 29q-2 1 -5 2l-313 135q-26 12 -40.5 27.5t-14.5 32.5z" />
<glyph unicode="a" horiz-adv-x="1180" d="M23 301q0 148 58.5 289.5t168.5 259.5q91 96 198 145t224 49q64 0 131.5 -23.5t70.5 -23.5q31 0 79 30t65 30q18 0 32.5 -19t14.5 -45q0 -31 -24 -172.5t-37 -245.5l-25 -192l-3 -22q-13 -112 -13 -123q0 -24 6 -30.5t24 -6.5q7 0 22 1t23 1q19 0 31 -13t12 -32 q0 -28 -22.5 -53t-77.5 -56q-66 -38 -113 -57t-77 -19q-40 0 -57 31t-17 105q0 23 0.5 36.5t0.5 23.5q-116 -104 -209.5 -151t-184.5 -47q-135 0 -218 91t-83 239zM276 319q0 -88 39 -132t117 -44q74 0 156 64.5t129 163.5q46 98 74 210t28 191q0 72 -34 114t-93 42 q-74 0 -146 -50.5t-136 -148.5q-62 -91 -98 -201.5t-36 -208.5z" />
<glyph unicode="b" horiz-adv-x="1161" d="M41 1382q0 23 18 42t56 34q70 29 134 44.5t118 15.5q57 0 77.5 -17t20.5 -59q0 -12 -24 -145.5t-42 -243.5l-20 -125q-1 -3 -1.5 -7t-0.5 -10q0 -9 3.5 -13.5t10.5 -4.5q6 0 31 24.5t47 40.5q75 55 139.5 79t134.5 24q152 0 240 -103t88 -282q0 -124 -39 -241t-112 -216 q-91 -120 -213 -184t-261 -64q-183 0 -276.5 81t-93.5 239q0 76 40 349q7 48 11 75q31 214 45 337.5t14 174.5t-11.5 71t-45.5 31q-10 3 -31 8q-57 13 -57 45zM309 285q0 -93 43.5 -145t120.5 -52q54 0 106 31.5t95 89.5q62 87 99.5 203.5t37.5 224.5q0 115 -49.5 176 t-143.5 61q-108 0 -185 -85t-93 -226l-27 -221v-5q-4 -36 -4 -52z" />
<glyph unicode="c" horiz-adv-x="1014" d="M33 379q0 128 48.5 247.5t139.5 217.5q96 102 215 156.5t246 54.5q133 0 219 -72t86 -180q0 -65 -34.5 -102t-94.5 -37q-57 0 -92 31.5t-35 84.5q0 13 6 41.5t6 44.5q0 28 -30 47t-76 19q-149 0 -249.5 -147.5t-100.5 -372.5q0 -151 58.5 -231.5t168.5 -80.5q48 0 98 18 t113 58q10 7 28 20q53 37 76 37q25 0 39.5 -13t14.5 -36q0 -68 -135 -140.5t-299 -72.5q-198 0 -307 107t-109 301z" />
<glyph unicode="d" horiz-adv-x="1186" d="M23 299q0 148 58 290.5t167 260.5q88 95 194 143.5t222 48.5q49 0 100.5 -12t56.5 -12q18 0 27.5 50t9.5 142q0 67 -11 86.5t-44 30.5q-11 4 -31 8q-57 13 -57 47q0 23 17.5 40.5t55.5 33.5q69 30 135 46t117 16q54 0 74.5 -17.5t20.5 -60.5q0 -16 -27.5 -160.5 t-46.5 -275.5q-39 -268 -64.5 -495.5t-25.5 -268.5q0 -27 6.5 -34t28.5 -7q13 0 32.5 3t26.5 3q19 0 32 -14t13 -33q0 -21 -17 -43t-49 -43q-60 -41 -120.5 -63.5t-108.5 -22.5q-49 0 -67.5 29t-18.5 108q0 9 1 29.5t1 31.5q-110 -109 -209 -161t-194 -52q-139 0 -222 89 t-83 239zM274 305q0 -87 39 -130.5t117 -43.5q74 0 156 63.5t129 161.5q46 98 74 210t28 192q0 72 -34 113.5t-93 41.5q-74 0 -147 -50.5t-137 -147.5q-61 -90 -96.5 -200.5t-35.5 -209.5z" />
<glyph unicode="e" horiz-adv-x="1038" d="M33 379q0 128 48.5 247.5t139.5 217.5q98 104 218.5 157.5t256.5 53.5q140 0 215.5 -65t75.5 -185q0 -89 -47 -167t-141 -144q-85 -58 -187.5 -88.5t-208.5 -30.5q-20 0 -48 2.5t-66 7.5q2 -137 60.5 -211t164.5 -74q48 0 98 18t113 58q10 7 28 20q53 37 76 37 q25 0 39.5 -13t14.5 -36q0 -68 -135 -140.5t-299 -72.5q-198 0 -307 107t-109 301zM291 502q30 -3 56 -4.5t46 -1.5q149 0 252 92t103 221q0 63 -30.5 98t-84.5 35q-118 0 -212 -120t-130 -320z" />
<glyph unicode="f" horiz-adv-x="653" d="M-59 -338q0 31 42.5 58t53.5 40q35 43 73 350l1 3l98 794h-135q-17 0 -24 5t-7 18q0 3 1 8t1 8l8 53q3 17 10 23t27 6h135v6q0 231 108.5 357.5t305.5 126.5q109 0 176.5 -50t67.5 -129q0 -45 -31 -73.5t-80 -28.5q-36 0 -59 16.5t-35 50.5l-9 27q-26 78 -73 78 q-67 0 -95 -64t-38 -317h174q15 0 22 -6t7 -18v-13l-9 -56q-2 -16 -9 -22t-27 -6h-172l-119 -952q-6 -44 -9.5 -77.5t-3.5 -55.5q0 -33 6.5 -74.5t6.5 -50.5q0 -46 -77.5 -73t-207.5 -27q-52 0 -78 16.5t-26 48.5z" />
<glyph unicode="g" horiz-adv-x="1112" d="M-12 -174q0 64 39 115t120 94q-49 28 -73.5 63.5t-24.5 79.5q0 62 45.5 110t141.5 87q-70 47 -106 116.5t-36 155.5q0 173 133 291.5t330 118.5q34 0 89 -6t134 -19h11q45 0 93.5 23.5t110.5 74.5q29 -15 42.5 -34t13.5 -43q0 -38 -25.5 -74t-79.5 -76q32 -38 48 -85.5 t16 -106.5q0 -176 -135 -293t-340 -117q-61 0 -109.5 7.5t-89.5 23.5q-47 -22 -69.5 -45.5t-22.5 -50.5q0 -31 38 -48.5t105 -17.5q82 0 186 8t125 8q135 0 212 -64t77 -173q0 -158 -162 -264.5t-411 -106.5q-198 0 -312 67t-114 181zM186 -133q0 -82 70.5 -127t198.5 -45 q140 0 239 57t99 131q0 48 -35 72.5t-105 24.5q-23 0 -99.5 -6.5t-129.5 -6.5q-47 0 -95 6t-94 16q-24 -30 -36.5 -60.5t-12.5 -61.5zM340 610q0 -83 50.5 -137.5t127.5 -54.5q100 0 174 93.5t74 223.5q0 93 -51 150t-133 57q-98 0 -170 -97t-72 -235z" />
<glyph unicode="h" horiz-adv-x="1208" d="M70 29q0 13 3 38.5t13 86.5l76 501q34 224 51.5 368t17.5 200q0 54 -11 73.5t-44 30.5q-10 3 -31 8q-57 13 -57 47q0 23 18 40.5t56 33.5q70 30 136.5 46t117.5 16q53 0 74.5 -18t21.5 -60q0 -16 -24 -146t-42 -243l-14 -97q-1 -3 -1.5 -6.5t-0.5 -9.5q0 -8 3.5 -12 t10.5 -4q3 0 38 25t69 46q50 34 108 51t121 17q126 0 194 -82.5t68 -235.5q0 -34 -3 -73t-9 -82l-27 -206l-2 -20q-14 -113 -14 -124q0 -24 6 -30.5t25 -6.5q7 0 21.5 1t23.5 1q19 0 31 -13t12 -32q0 -28 -28 -55.5t-91 -61.5t-113.5 -52t-80.5 -18q-39 0 -60.5 21.5 t-21.5 58.5q0 21 30 208q14 90 23 144q15 95 23 171.5t8 119.5q0 89 -35 133.5t-105 44.5q-137 0 -206 -126.5t-97 -442.5q-4 -46 -6 -119q-4 -123 -31 -147q-29 -27 -86 -46.5t-102 -19.5q-30 0 -43.5 14t-13.5 44z" />
<glyph unicode="i" d="M27 922q0 23 19 42.5t56 34.5q68 28 138 44t120 16q49 0 70 -18t21 -60q0 -12 -24 -145.5t-40 -260.5l-25 -192q-8 -62 -12 -95t-4 -48q0 -26 6.5 -33.5t28.5 -7.5q13 0 32.5 3t26.5 3q19 0 32 -14t13 -33q0 -21 -17 -43.5t-50 -44.5q-65 -44 -140.5 -71.5t-119.5 -27.5 t-66 20.5t-22 59.5q0 21 13 94t19 115l33 195q20 124 27.5 192t7.5 115q0 58 -11.5 77t-43.5 29q-12 4 -33 8q-55 12 -55 46zM174 1358q0 67 58 113.5t145 46.5q57 0 96 -34t39 -83q0 -62 -56.5 -110t-133.5 -48q-69 0 -108.5 31t-39.5 84z" />
<glyph unicode="j" horiz-adv-x="553" d="M-225 -342q0 22 15.5 33.5t49.5 13.5q9 0 26 1q99 1 134 44q28 36 48 107t44 241q35 232 56.5 422.5t21.5 245.5q0 54 -11 72.5t-44 29.5q-12 4 -33 8q-55 12 -55 46q0 23 19 42.5t56 34.5q68 28 138 44t120 16q49 0 70 -18t21 -60q0 -7 -12 -74q-53 -316 -91 -645 q-4 -38 -12 -111q-39 -353 -100 -444q-46 -68 -114.5 -99.5t-170.5 -31.5q-82 0 -129 22.5t-47 59.5zM174 1358q0 67 58 113.5t145 46.5q57 0 96 -34t39 -83q0 -62 -56.5 -110t-133.5 -48q-69 0 -108.5 31t-39.5 84z" />
<glyph unicode="k" horiz-adv-x="1110" d="M70 29q0 13 3 38.5t13 86.5l76 501q34 224 51.5 368t17.5 200q0 54 -11 73.5t-44 30.5q-10 3 -31 8q-57 13 -57 47q0 23 18 40.5t56 33.5q70 30 136.5 46t117.5 16q53 0 74.5 -18t21.5 -60q0 -16 -24 -146t-42 -243l-14 -97q-1 -3 -1.5 -6.5t-0.5 -9.5q0 -8 3.5 -12 t10.5 -4q5 0 28 18q156 117 319 117q104 0 161.5 -51t57.5 -144q0 -113 -83 -202t-247 -152q3 -7 9 -19q159 -327 243 -327q3 0 21 1t32 1q17 0 31 -14.5t14 -32.5q0 -22 -12 -39.5t-41 -36.5q-45 -32 -95.5 -52t-82.5 -20q-90 0 -204 200q-12 20 -17 30q-24 41 -59 105 q-66 124 -116 124q-53 0 -58 -221q-1 -20 -1 -31v-19q-3 -96 -29 -120q-29 -26 -87 -47t-101 -21q-29 0 -43 14.5t-14 45.5zM383 553q163 14 276 91.5t113 162.5q0 40 -26 65t-68 25q-100 0 -187.5 -99t-107.5 -245z" />
<glyph unicode="l" d="M70 51q0 14 28.5 184.5t51.5 323.5q6 45 18 127q65 436 65 526q0 63 -11.5 83t-45.5 32q-10 3 -31 8q-57 13 -57 47q0 23 18 40.5t56 33.5q70 30 136.5 46t117.5 16q54 0 75 -17.5t21 -60.5q0 -15 -28 -159.5t-48 -276.5q-39 -265 -64.5 -490.5t-25.5 -273.5 q0 -26 6.5 -33.5t28.5 -7.5q13 0 32.5 3t26.5 3q19 0 32 -14t13 -33q0 -21 -17 -43.5t-50 -44.5q-65 -44 -140.5 -71.5t-119.5 -27.5t-66 20.5t-22 59.5z" />
<glyph unicode="m" horiz-adv-x="1849" d="M27 922q0 23 18.5 41.5t56.5 33.5q67 28 132 45t94 17q35 0 50 -15t15 -49q0 -11 -0.5 -17.5t-1.5 -11.5l-8 -51v-16q0 -11 2.5 -14.5t9.5 -3.5q6 0 29.5 22t42.5 37q75 61 146 89t149 28q74 0 125 -23t98 -78q15 -16 30.5 -46.5t22.5 -30.5q5 0 30.5 25t47.5 44 q62 55 131 82t146 27q143 0 219 -81t76 -233q0 -22 -4 -63.5t-11 -92.5l-26 -204l-3 -21q-14 -113 -14 -124q0 -22 7 -29.5t26 -7.5q7 0 21 1t22 1q19 0 32 -13t13 -32q0 -28 -28 -55.5t-91 -61.5q-64 -34 -115 -53t-81 -19q-38 0 -59 21.5t-21 58.5q0 8 16.5 112.5 t30.5 200.5q21 157 28 222.5t7 103.5q0 89 -38 135.5t-110 46.5q-131 0 -198.5 -127.5t-94.5 -439.5q-3 -42 -6 -113q-5 -128 -33 -153q-29 -27 -86.5 -47.5t-101.5 -20.5q-29 0 -43 14.5t-14 45.5q0 14 8 66q5 36 8 58l29 199q21 139 30 220t9 126q0 84 -37.5 128 t-108.5 44q-134 0 -203 -126.5t-96 -440.5q-4 -46 -6 -119q-4 -123 -31 -147q-30 -27 -87 -47.5t-101 -20.5q-29 0 -43 14.5t-14 45.5q0 12 3.5 40.5t12.5 84.5l74 492q5 33 7.5 64t2.5 60q0 49 -11.5 68t-43.5 30q-12 4 -33 8q-55 12 -55 46z" />
<glyph unicode="n" horiz-adv-x="1208" d="M27 922q0 23 18.5 41.5t56.5 33.5q67 28 132 45t94 17q35 0 50 -15t15 -49q0 -11 -0.5 -17.5t-1.5 -11.5l-8 -51v-16q0 -11 2.5 -14.5t9.5 -3.5t40 28q24 22 40 35q71 57 147.5 87t151.5 30q130 0 199 -82t69 -236q0 -34 -3 -73t-9 -82l-27 -206l-2 -20 q-14 -113 -14 -124q0 -24 6 -30.5t25 -6.5q7 0 21.5 1t23.5 1q19 0 31 -13t12 -32q0 -28 -28 -55.5t-91 -61.5q-65 -35 -115 -53.5t-79 -18.5q-38 0 -60 22.5t-22 59.5q0 21 30 208q14 90 23 144q15 95 23 171.5t8 119.5q0 89 -35 133.5t-105 44.5q-137 0 -206 -126.5 t-97 -442.5q-4 -46 -6 -119q-4 -123 -31 -147q-30 -27 -87 -47.5t-101 -20.5q-29 0 -43 14.5t-14 45.5q0 12 3.5 40.5t12.5 84.5l74 492q5 33 7.5 64t2.5 60q0 49 -11.5 68t-43.5 30q-12 4 -33 8q-55 12 -55 46z" />
<glyph unicode="o" horiz-adv-x="1157" d="M29 434q0 115 44.5 223t129.5 199q89 95 205.5 148t236.5 53q199 0 319.5 -122t120.5 -325q0 -120 -43.5 -232t-126.5 -206q-87 -98 -201 -150.5t-241 -52.5q-199 0 -321.5 128.5t-122.5 336.5zM289 442q0 -161 62.5 -257.5t164.5 -96.5q126 0 216.5 146t90.5 362 q0 157 -61 250.5t-162 93.5q-128 0 -219.5 -143t-91.5 -355z" />
<glyph unicode="p" horiz-adv-x="1208" d="M-106 -315q0 36 46.5 57t56.5 30q26 22 42 71.5t37 193.5l84 609q5 42 7.5 72.5t2.5 51.5q0 49 -11.5 68t-43.5 30q-12 4 -33 8q-55 12 -55 46q0 23 18.5 41.5t56.5 33.5q70 28 143.5 45t106.5 17q37 0 52.5 -14.5t15.5 -49.5q0 -11 -0.5 -17t-1.5 -11l-6 -52q0 -3 -1 -9 t-1 -9q0 -8 4 -12t12 -4q10 0 38.5 30.5t49.5 46.5q68 53 135.5 78t141.5 25q151 0 239 -103.5t88 -281.5q0 -129 -41.5 -250t-120.5 -223q-80 -105 -191 -165.5t-220 -60.5q-91 0 -189 53q-24 13 -30 13q-9 0 -17 -43q-1 -5 -2 -8l-20 -123q-1 -2 -1 -6q-3 -26 -3 -37 q0 -27 8.5 -45t23.5 -25q13 -5 39 -13q66 -20 66 -62t-61.5 -61t-196.5 -19q-152 0 -210 19t-58 65zM350 250q0 -67 49.5 -110.5t126.5 -43.5q56 0 109.5 32.5t93.5 90.5q61 89 95 200.5t34 221.5q0 112 -50.5 172.5t-143.5 60.5q-107 0 -185 -85.5t-94 -225.5l-27 -221 q-4 -30 -6 -54.5t-2 -37.5z" />
<glyph unicode="q" horiz-adv-x="1171" d="M23 301q0 148 58.5 289.5t168.5 259.5q89 95 196.5 144.5t223.5 49.5q63 0 135 -23.5t80 -23.5q31 0 79.5 30t61.5 30q21 0 35 -18.5t14 -45.5q0 -29 -17.5 -126t-25.5 -148q-67 -437 -96 -648t-29 -264q0 -20 10.5 -38.5t24.5 -24.5q10 -4 26 -9q56 -19 56 -50 q0 -44 -62 -63t-208 -19q-144 0 -195 16t-51 57q0 33 52.5 54.5t70.5 42.5q41 47 75 369l3 22q-85 -92 -186 -142.5t-199 -50.5q-135 0 -218 91t-83 239zM274 305q0 -87 39 -130.5t117 -43.5q74 0 156 63.5t129 161.5q46 98 74 210t28 192q0 72 -34 113.5t-93 41.5 q-74 0 -147 -50.5t-137 -147.5q-61 -90 -96.5 -200.5t-35.5 -209.5z" />
<glyph unicode="r" horiz-adv-x="868" d="M43 922q0 34 98 75q18 8 28 12q49 20 97.5 33t63.5 13q41 0 60 -47.5t26 -175.5q64 106 147 162.5t174 56.5q69 0 107.5 -37t38.5 -103q0 -65 -39 -107t-99 -42q-27 0 -47.5 10t-33.5 29q-11 14 -20 50t-23 36q-29 0 -65.5 -35.5t-72.5 -97.5q-38 -67 -62.5 -168.5 t-43.5 -286.5q-4 -43 -8 -114q-6 -128 -35 -152t-92.5 -43t-120.5 -19q-26 0 -37.5 5.5t-11.5 17.5q0 14 18 84q94 363 94 696q0 47 -12 65.5t-54 33.5l-21 6q-54 14 -54 43z" />
<glyph unicode="s" horiz-adv-x="930" d="M8 193q0 66 20.5 103.5t57.5 37.5q43 0 70 -71q14 -36 24 -54q35 -60 82.5 -89.5t108.5 -29.5q79 0 128.5 41t49.5 107q0 48 -25 83.5t-90 75.5q-20 13 -98.5 56t-124.5 77q-48 36 -75 89.5t-27 111.5q0 146 106 236t281 90q75 0 137 -15t112 -45q34 -20 47 -46.5 t13 -84.5q0 -67 -12.5 -91.5t-42.5 -24.5q-25 0 -42 11.5t-38 45.5q-5 7 -12 19q-70 110 -156 110q-60 0 -98.5 -36t-38.5 -91q0 -41 22 -71t84 -66q22 -13 69 -38q103 -56 152 -93q46 -35 70 -87.5t24 -115.5q0 -150 -125 -259.5t-305 -109.5q-168 0 -258 58t-90 166z" />
<glyph unicode="t" horiz-adv-x="702" d="M63 938q0 47 33.5 69.5t130.5 32.5q6 23 14 60q27 114 54 127q29 14 67 23.5t64 9.5t36.5 -9.5t10.5 -31.5q0 -12 -1 -22.5t-3 -20.5l-20 -148h241q17 0 24 -5t7 -17q0 -2 -1 -6.5t-1 -8.5l-8 -55q-3 -17 -10 -23t-25 -6h-211q-20 0 -27 -6.5t-10 -25.5l-80 -560 q-3 -19 -4.5 -36.5t-1.5 -36.5q0 -45 24 -68.5t70 -23.5q29 0 79.5 19t74.5 19q21 0 33 -13t12 -38q0 -19 -19 -39.5t-55 -40.5q-72 -39 -152 -60.5t-151 -21.5q-73 0 -116.5 53.5t-43.5 145.5q0 29 4 71t11 89l88 573h-105q-20 0 -26 6.5t-7 24.5z" />
<glyph unicode="u" horiz-adv-x="1208" d="M37 883q0 23 19 46t57 44q67 38 136.5 62t102.5 24q39 0 59.5 -23t20.5 -65q0 -59 -41 -272.5t-41 -360.5q0 -88 35.5 -133t103.5 -45q137 0 206.5 126.5t97.5 440.5q3 45 6 119q4 121 30 145q30 27 87.5 47.5t101.5 20.5q29 0 43 -14.5t14 -45.5q0 -19 -3.5 -50.5 t-10.5 -73.5l-43 -269q-14 -89 -21.5 -177.5t-7.5 -160.5q0 -44 10 -69.5t31 -34.5q10 -4 31 -9q57 -13 57 -44q0 -24 -16 -44.5t-45 -33.5q-56 -27 -118.5 -43.5t-96.5 -16.5q-41 0 -57.5 31t-27.5 151q-107 -94 -201 -139t-185 -45q-130 0 -199.5 82t-69.5 236 q0 39 3 77.5t10 77.5l30 205l8 56q11 71 11 88q0 39 -69 45q-9 1 -16 2q-18 1 -30 13t-12 30z" />
<glyph unicode="v" horiz-adv-x="1100" d="M27 922q0 22 18 41t55 34q71 30 137 46t117 16q54 0 75.5 -17.5t21.5 -60.5q0 -30 -40 -238.5t-40 -375.5q0 -101 39 -152t116 -51q47 0 93 24.5t86 69.5q68 81 104.5 182t36.5 211q0 103 -36 213.5t-36 120.5q0 34 35 54t94 20t84 -53.5t25 -182.5q0 -164 -48 -317.5 t-141 -284.5q-84 -118 -190.5 -184t-212.5 -66q-138 0 -219.5 84.5t-81.5 229.5q0 79 25.5 238.5t25.5 238.5q0 57 -11 75.5t-44 30.5q-12 4 -33 8q-55 12 -55 46z" />
<glyph unicode="w" horiz-adv-x="1706" d="M20 922q0 22 18 41t54 34q67 29 132 45.5t114 16.5q51 0 71.5 -17.5t20.5 -60.5q0 -32 -39 -239.5t-39 -374.5q0 -100 38.5 -151.5t113.5 -51.5q118 0 182 130.5t90 432.5q4 45 6 117q4 123 31 147q30 27 86 47.5t98 20.5q28 0 42 -14.5t14 -43.5q0 -33 -40 -248.5 t-40 -385.5q0 -101 38 -152t113 -51q45 0 89.5 24.5t82.5 69.5q68 83 104 184.5t36 208.5q0 101 -36 211.5t-36 120.5q0 34 34.5 55t90.5 21q57 0 80.5 -52t23.5 -184q0 -164 -46 -317t-136 -285q-82 -119 -185 -184.5t-206 -65.5q-98 0 -170 49.5t-107 141.5 q-76 -93 -164 -142t-178 -49q-134 0 -213 85t-79 229q0 77 25.5 238t25.5 241q0 53 -11.5 72.5t-43.5 31.5q-11 4 -30 8q-55 13 -55 46z" />
<glyph unicode="x" horiz-adv-x="995" d="M-49 186q0 17 12 28t29 11q20 0 53 -25.5t51 -25.5q22 0 49.5 19t53.5 53l178 227l-94 238q-30 75 -59 105t-70 30q-6 0 -21 -1t-27 -1q-15 0 -25.5 11t-10.5 28t14.5 33.5t58.5 46.5q60 38 117 63t80 25q55 0 113 -150q2 -6 4 -11l78 -198l182 238q55 73 83.5 96 t55.5 23q48 0 103 -59t55 -97q0 -18 -11 -28.5t-28 -10.5q-14 0 -45 6t-49 6q-21 0 -46.5 -18t-52.5 -51l-188 -242l94 -248q2 -5 6 -16q57 -146 124 -150q41 -2 53 -12t12 -33q0 -45 -77 -82t-171 -37q-39 0 -62 24t-55 108l-86 227l-158 -199q-61 -77 -106.5 -118.5 t-71.5 -41.5q-44 0 -94.5 74t-50.5 135z" />
<glyph unicode="y" horiz-adv-x="1020" d="M-229 -225q0 54 30.5 86.5t81.5 32.5q47 0 69 -26t26 -86q3 -57 20 -74t57 -17q125 0 226.5 95t101.5 216q0 57 -20 144.5t-58 195.5q-51 145 -104.5 264t-87.5 168q-30 42 -53.5 57.5t-73.5 20.5q-38 4 -49 13.5t-11 29.5q0 21 18 39.5t62 42.5q59 33 110.5 52.5 t78.5 19.5q81 0 183.5 -246t199.5 -676q71 104 111 232t40 249q0 93 -37 210.5t-37 146.5q0 44 25 64t82 20q64 0 101.5 -70.5t37.5 -192.5q0 -192 -62.5 -396.5t-176.5 -387.5q-128 -204 -294 -315t-341 -111q-114 0 -185 55.5t-71 143.5z" />
<glyph unicode="z" horiz-adv-x="924" d="M-8 66q0 24 13.5 51.5t43.5 64.5l469 566q22 25 31.5 40t9.5 25q0 13 -16.5 20t-46.5 7h-211q-47 0 -63.5 -10t-33.5 -40l-10 -20q-26 -53 -63 -53q-25 0 -39.5 18.5t-14.5 50.5q0 31 8 69t23 79q26 73 43 94t41 21q3 0 14 -4q54 -17 111 -17h428q65 0 93 -14.5t28 -46.5 q0 -20 -11.5 -47t-29.5 -50l-485 -581q-18 -22 -28.5 -40.5t-10.5 -27.5q0 -13 18 -22t47 -9h258q68 0 113 75l2 3l9 15q35 57 67 57q23 0 34 -12.5t11 -38.5q0 -36 -16.5 -101t-43.5 -129q-16 -38 -33.5 -54.5t-39.5 -16.5q-2 0 -12 2q-52 10 -109 10h-500q-55 0 -76.5 15 t-21.5 51z" />
<glyph unicode="{" horiz-adv-x="1024" d="M178 602v68q159 15 216 76t57 223v200q0 200 84.5 273.5t314.5 73.5v-57q-128 -2 -175.5 -55t-47.5 -210v-137q0 -225 -56.5 -307.5t-208.5 -114.5q152 -32 208.5 -114.5t56.5 -307.5v-137q0 -157 47 -209t176 -54v-57h-10q-222 0 -305.5 74t-83.5 272v201 q0 161 -58 223.5t-215 75.5z" />
<glyph unicode="|" horiz-adv-x="1024" d="M424 -483v2048h178v-2048h-178z" />
<glyph unicode="}" horiz-adv-x="1024" d="M174 -187q129 2 176 54t47 209v137q0 227 56.5 308.5t208.5 113.5q-151 32 -208 113.5t-57 308.5v137q0 157 -47.5 210t-175.5 55v57h10q223 0 307 -74.5t84 -272.5v-200q0 -162 57 -223t216 -76v-68q-157 -13 -215 -74.5t-58 -224.5v-201q0 -197 -84 -271.5t-307 -74.5 h-10v57z" />
<glyph unicode="~" horiz-adv-x="1706" d="M178 434v187q106 72 202 107.5t185 35.5q62 0 125.5 -12t168.5 -48q13 -4 42 -15q164 -58 250 -58q85 0 177 37t202 116v-184q-103 -71 -197.5 -106t-183.5 -35q-44 0 -92.5 8.5t-98.5 26.5q-25 8 -76 26q-212 74 -319 74q-82 0 -174 -38t-211 -122z" />
<glyph unicode="&#xa1;" d="M86 143q0 135 24 296.5t70 332.5q43 159 74 219t68 60q40 0 56.5 -74.5t16.5 -269.5q0 -162 -20.5 -314t-57.5 -270q-25 -80 -56.5 -116t-74.5 -36q-50 0 -75 43t-25 129zM199 1356q0 67 46 113.5t113 46.5q68 0 115 -46.5t47 -113.5q0 -69 -46.5 -115.5t-115.5 -46.5 q-67 0 -113 46.5t-46 115.5z" />
<glyph unicode="&#xa2;" horiz-adv-x="1139" d="M152 549q0 242 135.5 413.5t369.5 223.5l15 113q5 34 16.5 45.5t40.5 11.5h35q21 0 30 -7t9 -24q0 -10 -0.5 -15t-1.5 -9l-17 -113q146 -23 217.5 -82.5t71.5 -155.5q0 -52 -29.5 -84t-76.5 -32q-87 0 -119 140q-1 6 -2 11q-7 27 -26.5 45t-51.5 27l-112 -785 q55 4 103 25.5t90 62.5q13 12 31 32q40 44 66 44q23 0 34 -12.5t11 -38.5q0 -85 -100.5 -161.5t-257.5 -104.5l-17 -132q-5 -35 -15.5 -45t-39.5 -10h-37q-21 0 -30 7t-9 24q0 10 0.5 15t1.5 9l21 138q-170 18 -263 129t-93 295zM395 571q0 -116 33.5 -189.5t99.5 -100.5 l111 770q-116 -52 -180 -177t-64 -303z" />
<glyph unicode="&#xa3;" horiz-adv-x="1139" d="M-51 143q0 95 71 158.5t179 63.5q39 0 80.5 -10t82.5 -29q15 26 22 55.5t7 64.5q0 30 -6 70t-18 90h-181q-40 0 -53.5 6.5t-13.5 22.5q0 50 14.5 72t48.5 22h156q-12 72 -18.5 125.5t-6.5 87.5q0 172 115.5 276.5t306.5 104.5q151 0 235.5 -63.5t84.5 -176.5 q0 -46 -20.5 -76t-51.5 -30q-38 0 -50 65q-4 23 -7 35q-15 56 -58 85.5t-108 29.5q-92 0 -142.5 -55t-50.5 -154q0 -38 6 -101t19 -153h170q40 0 54.5 -6.5t14.5 -22.5q0 -50 -14.5 -72t-48.5 -22h-172q0 -118 -21.5 -204t-66.5 -148q75 -42 140.5 -62t125.5 -20 q74 0 127.5 29.5t97.5 93.5q21 30 36 41.5t32 11.5t28 -15t11 -38q0 -39 -29 -93t-76 -98q-69 -64 -152.5 -98.5t-172.5 -34.5q-83 0 -161.5 30.5t-156.5 92.5q-62 -56 -121 -83t-118 -27q-77 0 -123.5 43.5t-46.5 115.5zM76 162q0 -27 19 -43.5t50 -16.5q38 0 71 19.5 t52 52.5q-23 29 -50.5 44t-57.5 15q-36 0 -60 -20.5t-24 -50.5z" />
<glyph unicode="&#xa4;" horiz-adv-x="1241" d="M76 432l203 205q-40 53 -60 115.5t-20 132.5q0 69 20 131.5t60 116.5l-203 204l92 93l203 -203q55 41 117 61.5t133 20.5t134 -20.5t117 -61.5l203 203l94 -93l-204 -204q39 -54 59 -116.5t20 -131.5q0 -70 -20 -132.5t-59 -115.5l204 -205l-94 -92l-203 205 q-57 -42 -118 -62t-131 -20q-72 0 -135 20.5t-117 61.5l-203 -205zM332 885q0 -120 84.5 -204.5t206.5 -84.5q121 0 205.5 84.5t84.5 204.5q0 119 -85.5 205t-204.5 86q-120 0 -205.5 -86t-85.5 -205z" />
<glyph unicode="&#xa5;" horiz-adv-x="1139" d="M59 610q0 25 16 36t50 11h313q-14 26 -45.5 81.5t-44.5 78.5h-186q-35 0 -50.5 11t-15.5 36t16 36t50 11h137q-18 35 -46 95q-63 133 -99 155q-10 6 -30 16q-46 23 -46 52q0 40 50 55.5t200 15.5q157 0 206.5 -15t49.5 -56q0 -19 -12.5 -31t-56.5 -28q-9 -4 -22 -8 q-34 -11 -34 -42q0 -51 163 -331q7 -13 11 -19q136 158 190 233.5t54 108.5q0 21 -7.5 36t-20.5 20l-18 6q-57 20 -57 55q0 40 46 55.5t175 15.5q117 0 164 -16t47 -55q0 -33 -55 -54q-16 -6 -25 -10q-85 -41 -242 -237l-13 -16l128 -1q36 0 51 -11t15 -36q0 -24 -16 -35.5 t-50 -11.5h-200q-42 -51 -69 -87.5t-52 -72.5h283q35 0 50 -11t15 -36q0 -24 -15.5 -35.5t-49.5 -11.5h-304q-27 -194 -36 -269t-9 -97q0 -30 8.5 -48.5t22.5 -23.5q5 -2 17 -7q59 -23 59 -57q0 -39 -46.5 -54t-195.5 -15q-148 0 -194.5 15t-46.5 54q0 34 55 55q32 13 47 23 q35 26 77 276q16 94 25 148h-315q-35 0 -50.5 11t-15.5 36z" />
<glyph unicode="&#xa6;" horiz-adv-x="1024" d="M424 -350v758h178v-758h-178zM424 674v758h178v-758h-178z" />
<glyph unicode="&#xa7;" horiz-adv-x="1067" d="M33 -193q0 60 28.5 91.5t81.5 31.5q81 0 108 -108q1 -1 1 -2q18 -68 58 -97.5t112 -29.5q113 0 184.5 62t71.5 159q0 113 -246 237q-43 22 -65 33q-189 97 -258.5 177.5t-69.5 187.5q0 110 76 198t229 154q-74 60 -108.5 121.5t-34.5 132.5q0 152 129 257.5t321 105.5 q148 0 249 -71t101 -167q0 -53 -30.5 -84t-83.5 -31q-43 0 -66.5 22t-36.5 75q-21 86 -56 113.5t-107 27.5q-97 0 -161.5 -52t-64.5 -130q0 -61 39 -111t119 -90q42 -21 116 -57q125 -59 160 -86q87 -67 122.5 -129t35.5 -142q0 -117 -72 -203.5t-221 -148.5 q94 -66 136 -134.5t42 -150.5q0 -52 -20.5 -106t-60.5 -109q-64 -85 -172 -134.5t-232 -49.5q-158 0 -256 67t-98 170zM223 602q0 -133 330 -284q15 -7 22 -11q109 29 165.5 90.5t56.5 149.5q0 133 -342 291q-5 2 -9 4q-110 -31 -166.5 -91.5t-56.5 -148.5z" />
<glyph unicode="&#xa8;" horiz-adv-x="1024" d="M266 1327q0 52 35 86.5t86 34.5q50 0 82.5 -31.5t32.5 -79.5q0 -46 -35 -80t-84 -34t-83 30t-34 74zM629 1327q0 51 35 86t86 35q50 0 82 -31.5t32 -79.5q0 -44 -35.5 -79t-83.5 -35q-49 0 -82.5 30t-33.5 74z" />
<glyph unicode="&#xa9;" horiz-adv-x="1683" d="M121 678q0 143 54 274.5t157 235.5q102 102 235 157.5t277 55.5q140 0 272.5 -55.5t233.5 -155.5q101 -102 157 -235.5t56 -276.5q0 -142 -55.5 -274t-157.5 -236q-101 -102 -231 -155.5t-277 -53.5q-145 0 -274.5 53t-233.5 156q-104 104 -158.5 234.5t-54.5 275.5z M219 678q0 -126 47.5 -239.5t136.5 -202.5q91 -91 201.5 -137t237.5 -46q126 0 238.5 47t199.5 136q88 89 136 204.5t48 237.5q0 124 -48 241.5t-136 204.5q-86 86 -200 133.5t-236 47.5q-126 0 -241 -48t-202 -137q-88 -90 -135 -203.5t-47 -238.5zM416 670 q0 184 119.5 309t295.5 125q80 0 154 -33t78 -33q28 0 41.5 14t19.5 48h41l2 -320h-47q-32 134 -102 203.5t-172 69.5q-116 0 -176 -94t-60 -275q0 -184 65 -281.5t189 -97.5q82 0 151 43.5t126 130.5l43 -26q-63 -108 -150 -160.5t-200 -52.5q-177 0 -297.5 124t-120.5 306 z" />
<glyph unicode="&#xaa;" horiz-adv-x="885" d="M16 979q0 103 44.5 202.5t127.5 182.5q68 66 148.5 100.5t167.5 34.5q49 0 99.5 -16.5t51.5 -16.5q24 0 60 20.5t49 20.5t24 -12.5t11 -30.5q0 -21 -17.5 -120t-27.5 -173l-19 -135q-6 -43 -9 -69.5t-3 -32.5q0 -17 4 -21t18 -4h33q14 0 23.5 -8.5t9.5 -21.5 q0 -20 -18 -38t-58 -38q-46 -26 -82 -39.5t-59 -13.5q-30 0 -42.5 20.5t-12.5 73.5v43q-88 -74 -157.5 -106.5t-137.5 -32.5q-101 0 -164.5 63.5t-63.5 167.5zM207 991q0 -61 29 -92t88 -31q55 0 117 45.5t98 114.5q34 68 54.5 146.5t20.5 134.5q0 50 -25.5 79t-68.5 29 q-57 0 -111 -35.5t-102 -103.5q-46 -64 -73 -142t-27 -145z" />
<glyph unicode="&#xab;" horiz-adv-x="967" d="M35 518q0 12 15 31.5t42 44.5l240 223q8 8 23 22q74 70 106 70q15 0 21.5 -7.5t6.5 -24.5q0 -30 -66 -123.5t-187 -235.5q77 -135 117 -224t40 -124q0 -21 -10.5 -33t-28.5 -12q-16 0 -32 11.5t-50 53.5l-194 244q-21 27 -32 48.5t-11 35.5zM451 518q0 12 14.5 32 t40.5 44l242 223q8 8 24 23q73 69 105 69q15 0 21.5 -7.5t6.5 -24.5q0 -30 -66 -123.5t-188 -235.5q77 -135 117.5 -224t40.5 -124q0 -21 -10.5 -33t-28.5 -12q-16 0 -32 11.5t-50 53.5l-194 244q-22 27 -32.5 48.5t-10.5 35.5z" />
<glyph unicode="&#xac;" horiz-adv-x="1706" d="M254 696v166h1198v-502h-166v336h-1032z" />
<glyph unicode="&#xad;" horiz-adv-x="711" d="M68 471q0 18 8.5 45t25.5 64q14 29 29 39t57 10q2 0 50.5 -1t95.5 -1q85 0 177 6q23 2 28 2q32 0 46.5 -12t14.5 -39q0 -62 -32 -111t-81 -49q-12 0 -48 2t-58 2q-119 0 -233 -9q-17 -1 -21 -1q-32 0 -45.5 12t-13.5 41z" />
<glyph unicode="&#xae;" horiz-adv-x="1683" d="M121 678q0 143 54.5 275t156.5 235q102 102 235 157.5t277 55.5t279 -57t235 -160q98 -102 151.5 -235.5t53.5 -278.5q0 -138 -59.5 -272.5t-166.5 -239.5q-101 -100 -228 -149.5t-282 -49.5q-135 0 -264 54.5t-229 154.5q-105 104 -159 234t-54 276zM219 678 q0 -126 47.5 -239.5t136.5 -202.5q91 -91 201.5 -137t237.5 -46q126 0 238.5 47t199.5 136q89 90 136.5 204.5t47.5 237.5q0 122 -48.5 240t-135.5 206q-86 86 -200 133.5t-236 47.5q-126 0 -241 -48t-202 -137q-89 -90 -135.5 -203t-46.5 -239zM467 287v46q64 4 88.5 24.5 t24.5 72.5v520q0 52 -23.5 72t-89.5 25v49h399q145 0 232.5 -55t87.5 -142q0 -84 -65.5 -133t-217.5 -76q96 -25 147.5 -73t69.5 -127q6 -24 10 -67q9 -91 54 -91q29 0 44 34t15 99h49v-23q0 -85 -43 -129.5t-127 -44.5q-46 0 -80 14.5t-53 43.5q-24 39 -27 111.5t-8 93.5 q-16 74 -60.5 109.5t-121.5 35.5h-24v-246q0 -49 22.5 -69.5t85.5 -26.5v-47h-389zM748 723q14 -1 27 -1.5t26 -0.5q100 0 154.5 44t54.5 126q0 70 -46.5 114t-121.5 44q-47 0 -70.5 -17.5t-23.5 -50.5v-258z" />
<glyph unicode="&#xaf;" horiz-adv-x="1024" d="M295 1280q0 67 19.5 94t70.5 27h379q55 0 68.5 -7.5t13.5 -29.5q0 -65 -19.5 -92t-70.5 -27h-379q-58 0 -70 7t-12 28z" />
<glyph unicode="&#xb0;" horiz-adv-x="674" d="M43 1163q0 125 86 211t209 86t209 -87t86 -210q0 -121 -87 -208t-210 -87t-208 85.5t-85 209.5zM152 1165q0 -76 54.5 -131t131.5 -55t130.5 54.5t53.5 131.5t-53.5 131t-130.5 54t-131.5 -54t-54.5 -131z" />
<glyph unicode="&#xb1;" horiz-adv-x="1706" d="M254 14v168h1198v-168h-1198zM254 707v165h514v334h170v-334h514v-165h-514v-334h-170v334h-514z" />
<glyph unicode="&#xb2;" horiz-adv-x="752" d="M-35 543q0 15 44 53l7 6l224 209q140 131 191.5 203t51.5 129q0 34 -25.5 57t-66.5 23q-37 0 -76.5 -14.5t-74.5 -41.5q-21 -13 -57.5 -44t-55.5 -31q-11 0 -19 7.5t-8 18.5q0 17 15 37.5t43 42.5q64 54 143.5 84.5t155.5 30.5q100 0 156.5 -44.5t56.5 -123.5 q0 -63 -45 -127t-201 -197l-229 -192h231q70 0 93.5 5.5t37.5 18.5q12 12 31 35q32 39 55 39q12 0 20.5 -10t8.5 -25q0 -22 -18 -62t-48 -81q-26 -35 -42.5 -48.5t-33.5 -13.5q-3 0 -30.5 15.5t-67.5 15.5h-399q-39 0 -53.5 5.5t-14.5 19.5z" />
<glyph unicode="&#xb3;" horiz-adv-x="752" d="M-41 471q0 14 12 23.5t29 9.5q13 0 72 -10.5t104 -10.5q126 0 204.5 60.5t78.5 154.5q0 64 -39 102t-105 38q-19 0 -53 -6.5t-49 -6.5t-21 6.5t-6 22.5q0 35 49 50q10 3 17 5q98 32 150.5 84t52.5 117q0 54 -32.5 83.5t-90.5 29.5q-28 0 -56 -7.5t-57 -21.5 q-14 -7 -38 -20q-39 -21 -54 -21q-16 0 -25.5 8t-9.5 21q0 10 8.5 21t25.5 23q62 40 139 62.5t151 22.5q103 0 162 -47t59 -129q0 -66 -41.5 -121.5t-122.5 -98.5q81 -10 125.5 -59t44.5 -127q0 -144 -125.5 -235t-329.5 -91q-111 0 -170 17.5t-59 50.5z" />
<glyph unicode="&#xb4;" horiz-adv-x="1024" d="M324 1241q0 12 6 21.5t18 17.5l346 211q16 9 32 14.5t28 5.5q29 0 53 -36.5t24 -83.5q0 -16 -14.5 -31.5t-40.5 -26.5l-311 -135l-5 -2q-63 -29 -79 -29q-23 0 -40 23.5t-17 50.5z" />
<glyph unicode="&#xb5;" horiz-adv-x="1184" d="M-109 -319q0 52 69 282.5t108 409.5l108 512h207l-100 -467q-10 -46 -15.5 -82t-5.5 -57q0 -64 37 -101t102 -37q87 0 139 53.5t76 167.5l111 523h209l-113 -533l-3 -15q-15 -70 -15 -110q0 -42 22.5 -66t63.5 -24q40 0 71 21.5t58 68.5q9 17 23 49q25 60 51 60 q11 0 16.5 -7.5t5.5 -23.5q0 -28 -17 -85.5t-40 -100.5q-41 -72 -95.5 -108t-123.5 -36q-84 0 -129.5 55t-47.5 156q-42 -104 -109.5 -157.5t-156.5 -53.5q-99 0 -156.5 58t-68.5 168q-23 -124 -48 -315q-39 -306 -134 -306q-47 0 -73 26.5t-26 74.5z" />
<glyph unicode="&#xb6;" horiz-adv-x="1024" d="M55 1130q0 158 107 253.5t284 95.5h523v-99h-117v-1380h-129v1380h-168v-1380h-131v784q-168 6 -268.5 101t-100.5 245z" />
<glyph unicode="&#xb7;" d="M123 643q0 69 46.5 115.5t115.5 46.5q68 0 113.5 -46.5t45.5 -115.5q0 -68 -46 -115t-113 -47q-68 0 -115 47t-47 115z" />
<glyph unicode="&#xb8;" horiz-adv-x="1024" d="M170 -385q0 19 13 32t34 13q10 0 73.5 -15.5t117.5 -15.5q62 0 99.5 26t37.5 69q0 41 -25.5 60.5t-104.5 29.5q-11 1 -30 2q-33 2 -33 22q0 22 49 155l3 7h96q-5 -13 -14 -38q-18 -49 -23 -68h22q105 0 160 -41.5t55 -120.5q0 -98 -71.5 -151.5t-202.5 -53.5 q-118 0 -187 24t-69 64z" />
<glyph unicode="&#xb9;" horiz-adv-x="752" d="M137 551q0 13 8.5 21.5t26.5 15.5q7 2 24 4q40 5 54 24q8 11 17 50.5t30 164.5q19 130 29 215.5t10 110.5q0 22 -10 31.5t-33 9.5h-10q-21 0 -32 7.5t-11 21.5q0 19 20.5 32t71.5 23q59 13 104.5 20t73.5 7q24 0 38.5 -10t14.5 -27t-28 -32q-1 0 -3 -1q-23 -15 -30 -58 q-2 -8 -2 -12q-14 -63 -29 -152.5t-29 -195.5q-8 -66 -13 -121t-5 -65q0 -15 7 -25.5t20 -13.5q5 -1 14 -2q61 -8 61 -37q0 -26 -37.5 -35.5t-166.5 -9.5q-127 0 -156 8.5t-29 30.5z" />
<glyph unicode="&#xba;" horiz-adv-x="868" d="M23 1071q0 82 33 158t96 139q67 66 154.5 102.5t176.5 36.5q150 0 241 -85t91 -226q0 -84 -33 -162.5t-96 -144.5q-64 -69 -149 -105t-183 -36q-148 0 -239.5 89t-91.5 234zM217 1077q0 -112 47 -180t123 -68q96 0 163.5 102.5t67.5 254.5q0 109 -46 174t-121 65 q-97 0 -165.5 -100t-68.5 -248z" />
<glyph unicode="&#xbb;" horiz-adv-x="967" d="M14 160q0 28 65 118.5t191 237.5q-77 135 -117 224t-40 124q0 21 9.5 33t27.5 12q16 0 31.5 -11.5t49.5 -53.5l195 -244q24 -31 34.5 -50t10.5 -32q0 -11 -15 -31t-42 -45l-240 -225q-6 -6 -18 -17q-80 -75 -113 -75q-15 0 -22 8.5t-7 26.5zM430 160q0 28 65 118.5 t191 237.5q-77 135 -117.5 224t-40.5 124q0 21 10 33t27 12t32.5 -11.5t49.5 -53.5l195 -244q24 -31 34.5 -50t10.5 -32q0 -11 -15 -31t-43 -45l-239 -225q-7 -6 -18 -17q-80 -75 -113 -75q-15 0 -22 8.5t-7 26.5z" />
<glyph unicode="&#xbc;" horiz-adv-x="1776" d="M131 600q0 12 8 20.5t25 14.5q5 2 33.5 6t40.5 21q8 9 18 51t27 149q18 118 28.5 198.5t10.5 104.5q0 20 -11 29.5t-32 9.5h-11q-18 0 -28.5 7t-10.5 20q0 18 19.5 29.5t68.5 21.5q50 12 94 18.5t74 6.5q25 0 38.5 -9t13.5 -24q-1 -16 -22 -29q-4 -2 -7 -4 q-21 -12 -29 -52q-1 -7 -2 -11q-12 -53 -26 -134t-29 -192q-8 -58 -12 -107.5t-4 -66.5q0 -14 6 -23t18 -12q7 -1 21 -4q51 -8 51 -35q0 -23 -37 -32t-158 -9t-148.5 8t-27.5 29zM354 39q0 21 54 81t86 101q495 657 642.5 860.5t147.5 223.5q0 6 11 16t22 10q31 0 67.5 -24 t36.5 -45q0 -17 -174 -229t-323 -410q-135 -179 -237 -325t-169 -257q-5 -9 -13 -22q-28 -50 -46 -50q-31 0 -68 24.5t-37 45.5zM1024 94q0 40 95 140l26 26q144 150 259 266t159 158q31 30 52 41.5t42 11.5q22 0 32.5 -10.5t10.5 -34.5q0 -4 -1 -13.5t-1 -14.5l-80 -504h59 q21 0 29 -4.5t8 -16.5q0 -5 -0.5 -8t-1.5 -7l-4 -32q-4 -18 -10.5 -23t-30.5 -6h-63l-27 -174q-5 -24 -13.5 -31.5t-31.5 -7.5h-66q-24 0 -32.5 4.5t-8.5 16.5q0 5 1 8t1 4l27 180h-377q-30 0 -41.5 7t-11.5 24zM1155 160h315l62 389q-96 -89 -190 -186t-187 -203z" />
<glyph unicode="&#xbd;" horiz-adv-x="1776" d="M131 600q0 12 8 20.5t25 14.5q5 2 33.5 6t40.5 21q8 9 18 51t27 149q18 118 28.5 198.5t10.5 104.5q0 20 -11 29.5t-32 9.5h-11q-18 0 -28.5 7t-10.5 20q0 18 19.5 29.5t68.5 21.5q50 12 94 18.5t74 6.5q25 0 38.5 -9t13.5 -24q-1 -16 -22 -29q-4 -2 -7 -4 q-21 -12 -29 -52q-1 -7 -2 -11q-12 -53 -26 -134t-29 -192q-8 -58 -12 -107.5t-4 -66.5q0 -14 6 -23t18 -12q7 -1 21 -4q51 -8 51 -35q0 -23 -37 -32t-158 -9t-148.5 8t-27.5 29zM354 39q0 21 54 81t86 101q495 657 642.5 860.5t147.5 223.5q0 6 11 16t22 10q31 0 67.5 -24 t36.5 -45q0 -17 -174 -229t-323 -410q-135 -179 -237 -325t-169 -257q-5 -9 -13 -22q-28 -50 -46 -50q-31 0 -68 24.5t-37 45.5zM1026 23q0 13 34 43q10 9 15 14l213 194q129 117 180.5 186.5t51.5 123.5q0 31 -24.5 52t-61.5 21q-35 0 -72.5 -13t-73.5 -38q-20 -13 -55 -42 t-53 -29q-11 0 -18 7t-7 19q0 15 14 34.5t39 39.5q63 50 138.5 78t148.5 28q96 0 149.5 -41t53.5 -114q0 -60 -42.5 -119.5t-193.5 -183.5l-217 -181h219q68 0 91 5.5t36 19.5q11 10 28 31q32 37 54 37q12 -1 19.5 -10.5t7.5 -22.5q0 -20 -17.5 -57t-46.5 -76 q-27 -35 -41 -46.5t-28 -11.5q-4 0 -30.5 14.5t-63.5 14.5h-383q-37 0 -50.5 5t-13.5 18z" />
<glyph unicode="&#xbe;" horiz-adv-x="1778" d="M-41 524q0 14 12 23.5t29 9.5q14 0 69.5 -10t98.5 -10q120 0 195 56t75 144q0 59 -37.5 95t-99.5 36q-18 0 -50.5 -6t-47.5 -6t-20 5t-5 22q0 32 44 45q13 4 20 6q93 30 142.5 79t49.5 109q0 50 -31 77.5t-88 27.5q-24 0 -51.5 -7t-54.5 -20l-26 -13q-45 -24 -62 -24 q-15 0 -24 7t-9 18q0 9 7 18.5t26 24.5q56 36 129 57t145 21q100 0 156.5 -44t56.5 -120q0 -61 -39.5 -113t-115.5 -92q74 -9 116.5 -55.5t42.5 -118.5q0 -136 -119 -220.5t-313 -84.5q-105 0 -163 16.5t-58 46.5zM354 39q0 21 54 81t86 101q495 657 642.5 860.5 t147.5 223.5q0 6 11 16t22 10q31 0 67.5 -24t36.5 -45q0 -17 -174 -229t-323 -410q-135 -179 -237 -325t-169 -257q-5 -9 -13 -22q-28 -50 -46 -50q-31 0 -68 24.5t-37 45.5zM1024 94q0 40 95 140l26 26q144 150 259 266t159 158q31 30 52 41.5t42 11.5q22 0 32.5 -10.5 t10.5 -34.5q0 -4 -1 -13.5t-1 -14.5l-80 -504h59q21 0 29 -4.5t8 -16.5q0 -5 -0.5 -8t-1.5 -7l-4 -32q-4 -18 -10.5 -23t-30.5 -6h-63l-27 -174q-5 -24 -13.5 -31.5t-31.5 -7.5h-66q-24 0 -32.5 4.5t-8.5 16.5q0 5 1 8t1 4l27 180h-377q-30 0 -41.5 7t-11.5 24zM1155 160 h315l62 389q-96 -89 -190 -186t-187 -203z" />
<glyph unicode="&#xbf;" horiz-adv-x="948" d="M31 256q0 68 31.5 136.5t91.5 131.5q40 43 130 122t126 126q42 57 55 174q3 33 6 51q5 30 27 49t51 19q36 0 52.5 -20.5t16.5 -65.5q0 -101 -33.5 -192t-107.5 -187q-16 -21 -50 -63q-148 -178 -148 -306q0 -67 36.5 -103t104.5 -36q63 0 108 26t64 72q10 27 24 76 q36 131 132 131q47 0 71.5 -21.5t24.5 -64.5q0 -130 -140 -235t-333 -105q-157 0 -248.5 77.5t-91.5 207.5zM418 1356q0 67 47 114.5t115 47.5q67 0 114 -47.5t47 -114.5q0 -69 -46.5 -115.5t-114.5 -46.5q-69 0 -115.5 46.5t-46.5 115.5z" />
<glyph unicode="&#xc0;" horiz-adv-x="1417" d="M-109 61q0 50 63 73q21 8 31 13q109 57 210 251q22 42 34 65q67 123 181 332q255 466 284 564q5 18 13 49q27 105 94 105q36 0 53.5 -9t32.5 -34q13 -22 43 -132t127 -498q26 -104 66 -276q83 -351 120 -390q14 -15 66.5 -37t52.5 -59q0 -48 -64.5 -68t-226.5 -20 q-191 0 -241 15.5t-50 57.5q0 28 16.5 44t61.5 30q49 15 64.5 34t15.5 60q0 42 -9 93.5t-20 78.5q-6 19 -51 26t-170 7q-201 0 -258 -4.5t-76 -15.5q-26 -17 -56 -82.5t-30 -108.5q0 -15 7.5 -32t19.5 -29q8 -8 53 -26t45 -58q0 -49 -52.5 -69.5t-182.5 -20.5 q-164 0 -215.5 15.5t-51.5 55.5zM445 594h5q134 4 201 4q70 0 207 -4h6q-22 86 -55 223q-55 234 -90 234q-45 0 -269 -446zM522 1854q0 47 25 82.5t55 35.5q10 0 25 -5t32 -15l348 -211q13 -8 19 -17.5t6 -21.5q0 -27 -17.5 -50.5t-40.5 -23.5q-15 0 -79 29q-2 1 -5 2 l-313 135q-26 12 -40.5 27.5t-14.5 32.5z" />
<glyph unicode="&#xc1;" horiz-adv-x="1417" d="M-109 61q0 50 63 73q21 8 31 13q109 57 210 251q22 42 34 65q67 123 181 332q255 466 284 564q5 18 13 49q27 105 94 105q36 0 53.5 -9t32.5 -34q13 -22 43 -132t127 -498q26 -104 66 -276q83 -351 120 -390q14 -15 66.5 -37t52.5 -59q0 -48 -64.5 -68t-226.5 -20 q-191 0 -241 15.5t-50 57.5q0 28 16.5 44t61.5 30q49 15 64.5 34t15.5 60q0 42 -9 93.5t-20 78.5q-6 19 -51 26t-170 7q-201 0 -258 -4.5t-76 -15.5q-26 -17 -56 -82.5t-30 -108.5q0 -15 7.5 -32t19.5 -29q8 -8 53 -26t45 -58q0 -49 -52.5 -69.5t-182.5 -20.5 q-164 0 -215.5 15.5t-51.5 55.5zM445 594h5q134 4 201 4q70 0 207 -4h6q-22 86 -55 223q-55 234 -90 234q-45 0 -269 -446zM596 1702q0 12 6 21.5t18 17.5l346 211q16 9 32 14.5t28 5.5q29 0 53 -36.5t24 -83.5q0 -16 -14.5 -31.5t-40.5 -26.5l-311 -135l-5 -2 q-63 -29 -79 -29q-23 0 -40 23.5t-17 50.5z" />
<glyph unicode="&#xc2;" horiz-adv-x="1417" d="M-109 61q0 50 63 73q21 8 31 13q109 57 210 251q22 42 34 65q67 123 181 332q255 466 284 564q5 18 13 49q27 105 94 105q36 0 53.5 -9t32.5 -34q13 -22 43 -132t127 -498q26 -104 66 -276q83 -351 120 -390q14 -15 66.5 -37t52.5 -59q0 -48 -64.5 -68t-226.5 -20 q-191 0 -241 15.5t-50 57.5q0 28 16.5 44t61.5 30q49 15 64.5 34t15.5 60q0 42 -9 93.5t-20 78.5q-6 19 -51 26t-170 7q-201 0 -258 -4.5t-76 -15.5q-26 -17 -56 -82.5t-30 -108.5q0 -15 7.5 -32t19.5 -29q8 -8 53 -26t45 -58q0 -49 -52.5 -69.5t-182.5 -20.5 q-164 0 -215.5 15.5t-51.5 55.5zM445 594h5q134 4 201 4q70 0 207 -4h6q-22 86 -55 223q-55 234 -90 234q-45 0 -269 -446zM557 1649q0 9 11 28.5t32 47.5l145 196l5 7q40 55 116 55q45 0 64 -7.5t36 -44.5l109 -233q7 -15 11.5 -28.5t4.5 -20.5q0 -12 -10.5 -17.5 t-34.5 -5.5q-67 0 -133 115q-35 60 -59 98q-33 -34 -83 -91q-108 -124 -165 -124q-23 0 -36 6.5t-13 18.5z" />
<glyph unicode="&#xc3;" horiz-adv-x="1417" d="M-109 61q0 50 63 73q21 8 31 13q109 57 210 251q22 42 34 65q67 123 181 332q255 466 284 564q5 18 13 49q27 105 94 105q36 0 53.5 -9t32.5 -34q13 -22 43 -132t127 -498q26 -104 66 -276q83 -351 120 -390q14 -15 66.5 -37t52.5 -59q0 -48 -64.5 -68t-226.5 -20 q-191 0 -241 15.5t-50 57.5q0 28 16.5 44t61.5 30q49 15 64.5 34t15.5 60q0 42 -9 93.5t-20 78.5q-6 19 -51 26t-170 7q-201 0 -258 -4.5t-76 -15.5q-26 -17 -56 -82.5t-30 -108.5q0 -15 7.5 -32t19.5 -29q8 -8 53 -26t45 -58q0 -49 -52.5 -69.5t-182.5 -20.5 q-164 0 -215.5 15.5t-51.5 55.5zM445 594h5q134 4 201 4q70 0 207 -4h6q-22 86 -55 223q-55 234 -90 234q-45 0 -269 -446zM516 1704q0 20 22 65.5t49 75.5q29 31 62.5 45.5t75.5 14.5q41 0 130 -29t140 -29q34 0 54.5 13.5t35.5 46.5q1 2 3 5q10 19 30 19q33 0 42 -6.5 t9 -23.5q0 -74 -62 -137.5t-145 -63.5q-51 0 -145 29.5t-135 29.5q-27 0 -44.5 -13t-35.5 -50l-1 -1q-12 -22 -40 -22q-19 0 -32 9t-13 22z" />
<glyph unicode="&#xc4;" horiz-adv-x="1417" d="M-109 61q0 50 63 73q21 8 31 13q109 57 210 251q22 42 34 65q67 123 181 332q255 466 284 564q5 18 13 49q27 105 94 105q36 0 53.5 -9t32.5 -34q13 -22 43 -132t127 -498q26 -104 66 -276q83 -351 120 -390q14 -15 66.5 -37t52.5 -59q0 -48 -64.5 -68t-226.5 -20 q-191 0 -241 15.5t-50 57.5q0 28 16.5 44t61.5 30q49 15 64.5 34t15.5 60q0 42 -9 93.5t-20 78.5q-6 19 -51 26t-170 7q-201 0 -258 -4.5t-76 -15.5q-26 -17 -56 -82.5t-30 -108.5q0 -15 7.5 -32t19.5 -29q8 -8 53 -26t45 -58q0 -49 -52.5 -69.5t-182.5 -20.5 q-164 0 -215.5 15.5t-51.5 55.5zM445 594h5q134 4 201 4q70 0 207 -4h6q-22 86 -55 223q-55 234 -90 234q-45 0 -269 -446zM538 1788q0 52 35 86.5t86 34.5q50 0 82.5 -31.5t32.5 -79.5q0 -46 -35 -80t-84 -34t-83 30t-34 74zM901 1788q0 51 35 86t86 35q50 0 82 -31.5 t32 -79.5q0 -44 -35.5 -79t-83.5 -35q-49 0 -82.5 30t-33.5 74z" />
<glyph unicode="&#xc5;" horiz-adv-x="1417" d="M-109 57q0 45 62 67q23 8 35 13q107 52 204 228q20 37 31 57q72 124 195 332q248 419 276 509q6 19 14 48q25 96 93 96q35 0 53 -9.5t33 -33.5q13 -20 44.5 -126.5t125.5 -457.5q26 -97 67 -257q82 -324 119 -361q15 -15 67 -35.5t52 -54.5q0 -44 -62 -62t-229 -18 q-201 0 -246 14t-45 53q0 25 17.5 40.5t60.5 27.5q49 14 64.5 31t15.5 51q0 32 -6 72t-17 77q-7 28 -35.5 38t-117.5 10h-80q-197 0 -254 -5t-74 -16q-27 -17 -56.5 -77t-29.5 -99q0 -14 7 -28t20 -27q8 -7 53 -25t45 -55q0 -46 -52.5 -64t-205.5 -18q-148 0 -196 14t-48 51 zM444 551h6q134 4 201 4q70 0 207 -4h6q-24 85 -58 217q-54 209 -87 209q-27 0 -77.5 -75.5t-197.5 -350.5zM598 1716q0 108 73.5 182t180.5 74t181.5 -74t74.5 -182q0 -107 -74 -180.5t-182 -73.5t-181 73.5t-73 180.5zM715 1716q0 -57 40 -97t97 -40t97 40t40 97 q0 59 -39.5 99t-97.5 40t-97.5 -40t-39.5 -99z" />
<glyph unicode="&#xc6;" horiz-adv-x="2122" d="M-111 61q0 52 73 82q10 4 16 7q99 41 226 216l7 9l504 690q89 123 113 164.5t24 62.5t-7.5 32.5t-24.5 18.5q-7 3 -22 9q-57 21 -57 61q0 46 48 63t212 17h107h758q94 0 163 18q9 2 11 2q32 0 45.5 -35t13.5 -126q0 -90 -17 -131t-54 -41q-40 0 -78 71q-14 27 -23 41 q-16 27 -53.5 42.5t-89.5 15.5h-250q-56 0 -97 -17.5t-57 -48.5q-10 -23 -16.5 -43.5t-9.5 -39.5q-20 -114 -30.5 -191.5t-10.5 -102.5q0 -33 8.5 -42t38.5 -9h145q93 0 126.5 19t54.5 73q8 21 18 60q24 86 74 86q33 0 47 -21.5t14 -75.5q0 -59 -14.5 -169.5t-40.5 -229.5 q-16 -73 -35.5 -101t-52.5 -28q-28 0 -40 19t-16 90q-5 75 -28.5 105t-75.5 30h-199q-27 0 -41 -18.5t-24 -73.5q-20 -101 -31.5 -196t-11.5 -153q0 -71 42 -101t142 -30h180q96 0 158.5 27t108.5 88q22 30 50 87q39 79 75 79q25 0 36 -14t11 -46q0 -39 -19 -101t-61 -165 q-25 -61 -50 -91t-51 -30q-3 0 -47.5 12.5t-89.5 12.5h-805q-59 0 -90 18t-31 54q0 39 60 60q23 8 33 13q27 15 39 26.5t18 26.5q25 65 40 132.5t15 103.5q0 35 -29 47.5t-139 12.5h-51h-110q-113 0 -155 -6t-56 -19q-19 -16 -42.5 -45t-64.5 -86q-44 -64 -57 -87t-13 -36 q0 -23 13 -39t45 -31q5 -2 14 -6q49 -22 49 -55q0 -50 -54 -72t-177 -22q-172 0 -224.5 15t-52.5 56zM555 631h6q162 4 236 4q43 0 93.5 -1t129.5 -3l88 504q12 66 20.5 118t8.5 58q0 18 -8.5 27.5t-24.5 9.5q-44 0 -248 -290l-14 -20z" />
<glyph unicode="&#xc7;" horiz-adv-x="1403" d="M59 633q0 153 39.5 286.5t118.5 245.5q115 166 293 259.5t379 93.5q98 0 201.5 -28t109.5 -28q12 0 39 12.5t43 12.5q43 0 72.5 -79t29.5 -200q0 -69 -18 -101t-57 -32q-23 0 -40.5 14t-49.5 68q-79 127 -158.5 177t-192.5 50q-232 0 -378 -197t-146 -519 q0 -256 112 -410t296 -154q107 0 199.5 53t170.5 158q8 11 21 32q38 61 74 61q27 0 42 -23.5t15 -67.5q0 -96 -29.5 -160.5t-70.5 -64.5q-6 0 -13 1t-10 1q-21 0 -47 -13q-7 -4 -10 -5q-131 -67 -219 -90t-183 -23q-285 0 -459 183.5t-174 486.5zM424 -385q0 19 13 32t34 13 q10 0 73.5 -15.5t117.5 -15.5q62 0 99.5 26t37.5 69q0 41 -25.5 60.5t-104.5 29.5q-11 1 -30 2q-33 2 -33 22q0 22 49 155l3 7h96q-5 -13 -14 -38q-18 -49 -23 -68h22q105 0 160 -41.5t55 -120.5q0 -98 -71.5 -151.5t-202.5 -53.5q-118 0 -187 24t-69 64z" />
<glyph unicode="&#xc8;" horiz-adv-x="1284" d="M-47 72q0 20 11.5 33.5t41.5 25.5q3 1 10 4q71 28 86 66q12 29 30.5 127t45.5 274q37 238 58.5 412.5t21.5 228.5q0 79 -74 122q-1 1 -2 1l-3 2q-38 20 -38 53q0 37 31.5 55t97.5 17h760q94 0 162 18q8 2 10 2q34 0 48 -37.5t14 -129.5q0 -87 -17.5 -126.5t-54.5 -39.5 q-40 0 -78 71q-14 27 -22 41q-16 27 -54 42.5t-90 15.5h-250q-56 0 -96.5 -17.5t-56.5 -48.5q-11 -23 -17.5 -44t-9.5 -40q-19 -113 -30 -190.5t-11 -102.5q0 -33 8.5 -42t38.5 -9h146q92 0 125.5 19t54.5 73q8 22 19 62q22 84 71 84q34 0 47.5 -21.5t13.5 -75.5 q0 -59 -14.5 -169.5t-40.5 -229.5q-16 -75 -34.5 -102t-51.5 -27q-28 0 -39.5 19t-15.5 89q-5 74 -29.5 105t-77.5 31h-196q-29 0 -43.5 -19.5t-24.5 -72.5q-20 -101 -31.5 -196t-11.5 -153q0 -71 42 -101t142 -30h181q96 0 159.5 27t108.5 88q22 30 50 87q39 79 75 79 q25 0 36 -14t11 -46q0 -37 -18 -96.5t-64 -169.5q-26 -62 -49.5 -91.5t-48.5 -29.5q-4 0 -48.5 12.5t-88.5 12.5h-807q-60 0 -89.5 18t-29.5 54zM457 1854q0 47 25 82.5t55 35.5q10 0 25 -5t32 -15l348 -211q13 -8 19 -17.5t6 -21.5q0 -27 -17.5 -50.5t-40.5 -23.5 q-15 0 -79 29q-2 1 -5 2l-313 135q-26 12 -40.5 27.5t-14.5 32.5z" />
<glyph unicode="&#xc9;" horiz-adv-x="1284" d="M-47 72q0 20 11.5 33.5t41.5 25.5q3 1 10 4q71 28 86 66q12 29 30.5 127t45.5 274q37 238 58.5 412.5t21.5 228.5q0 79 -74 122q-1 1 -2 1l-3 2q-38 20 -38 53q0 37 31.5 55t97.5 17h760q94 0 162 18q8 2 10 2q34 0 48 -37.5t14 -129.5q0 -87 -17.5 -126.5t-54.5 -39.5 q-40 0 -78 71q-14 27 -22 41q-16 27 -54 42.5t-90 15.5h-250q-56 0 -96.5 -17.5t-56.5 -48.5q-11 -23 -17.5 -44t-9.5 -40q-19 -113 -30 -190.5t-11 -102.5q0 -33 8.5 -42t38.5 -9h146q92 0 125.5 19t54.5 73q8 22 19 62q22 84 71 84q34 0 47.5 -21.5t13.5 -75.5 q0 -59 -14.5 -169.5t-40.5 -229.5q-16 -75 -34.5 -102t-51.5 -27q-28 0 -39.5 19t-15.5 89q-5 74 -29.5 105t-77.5 31h-196q-29 0 -43.5 -19.5t-24.5 -72.5q-20 -101 -31.5 -196t-11.5 -153q0 -71 42 -101t142 -30h181q96 0 159.5 27t108.5 88q22 30 50 87q39 79 75 79 q25 0 36 -14t11 -46q0 -37 -18 -96.5t-64 -169.5q-26 -62 -49.5 -91.5t-48.5 -29.5q-4 0 -48.5 12.5t-88.5 12.5h-807q-60 0 -89.5 18t-29.5 54zM531 1702q0 12 6 21.5t18 17.5l346 211q16 9 32 14.5t28 5.5q29 0 53 -36.5t24 -83.5q0 -16 -14.5 -31.5t-40.5 -26.5 l-311 -135l-5 -2q-63 -29 -79 -29q-23 0 -40 23.5t-17 50.5z" />
<glyph unicode="&#xca;" horiz-adv-x="1284" d="M-47 72q0 20 11.5 33.5t41.5 25.5q3 1 10 4q71 28 86 66q12 29 30.5 127t45.5 274q37 238 58.5 412.5t21.5 228.5q0 79 -74 122q-1 1 -2 1l-3 2q-38 20 -38 53q0 37 31.5 55t97.5 17h760q94 0 162 18q8 2 10 2q34 0 48 -37.5t14 -129.5q0 -87 -17.5 -126.5t-54.5 -39.5 q-40 0 -78 71q-14 27 -22 41q-16 27 -54 42.5t-90 15.5h-250q-56 0 -96.5 -17.5t-56.5 -48.5q-11 -23 -17.5 -44t-9.5 -40q-19 -113 -30 -190.5t-11 -102.5q0 -33 8.5 -42t38.5 -9h146q92 0 125.5 19t54.5 73q8 22 19 62q22 84 71 84q34 0 47.5 -21.5t13.5 -75.5 q0 -59 -14.5 -169.5t-40.5 -229.5q-16 -75 -34.5 -102t-51.5 -27q-28 0 -39.5 19t-15.5 89q-5 74 -29.5 105t-77.5 31h-196q-29 0 -43.5 -19.5t-24.5 -72.5q-20 -101 -31.5 -196t-11.5 -153q0 -71 42 -101t142 -30h181q96 0 159.5 27t108.5 88q22 30 50 87q39 79 75 79 q25 0 36 -14t11 -46q0 -37 -18 -96.5t-64 -169.5q-26 -62 -49.5 -91.5t-48.5 -29.5q-4 0 -48.5 12.5t-88.5 12.5h-807q-60 0 -89.5 18t-29.5 54zM492 1649q0 9 11 28.5t32 47.5l145 196l5 7q40 55 116 55q45 0 64 -7.5t36 -44.5l109 -233q7 -15 11.5 -28.5t4.5 -20.5 q0 -12 -10.5 -17.5t-34.5 -5.5q-67 0 -133 115q-35 60 -59 98q-33 -34 -83 -91q-108 -124 -165 -124q-23 0 -36 6.5t-13 18.5z" />
<glyph unicode="&#xcb;" horiz-adv-x="1284" d="M-47 72q0 20 11.5 33.5t41.5 25.5q3 1 10 4q71 28 86 66q12 29 30.5 127t45.5 274q37 238 58.5 412.5t21.5 228.5q0 79 -74 122q-1 1 -2 1l-3 2q-38 20 -38 53q0 37 31.5 55t97.5 17h760q94 0 162 18q8 2 10 2q34 0 48 -37.5t14 -129.5q0 -87 -17.5 -126.5t-54.5 -39.5 q-40 0 -78 71q-14 27 -22 41q-16 27 -54 42.5t-90 15.5h-250q-56 0 -96.5 -17.5t-56.5 -48.5q-11 -23 -17.5 -44t-9.5 -40q-19 -113 -30 -190.5t-11 -102.5q0 -33 8.5 -42t38.5 -9h146q92 0 125.5 19t54.5 73q8 22 19 62q22 84 71 84q34 0 47.5 -21.5t13.5 -75.5 q0 -59 -14.5 -169.5t-40.5 -229.5q-16 -75 -34.5 -102t-51.5 -27q-28 0 -39.5 19t-15.5 89q-5 74 -29.5 105t-77.5 31h-196q-29 0 -43.5 -19.5t-24.5 -72.5q-20 -101 -31.5 -196t-11.5 -153q0 -71 42 -101t142 -30h181q96 0 159.5 27t108.5 88q22 30 50 87q39 79 75 79 q25 0 36 -14t11 -46q0 -37 -18 -96.5t-64 -169.5q-26 -62 -49.5 -91.5t-48.5 -29.5q-4 0 -48.5 12.5t-88.5 12.5h-807q-60 0 -89.5 18t-29.5 54zM473 1788q0 52 35 86.5t86 34.5q50 0 82.5 -31.5t32.5 -79.5q0 -46 -35 -80t-84 -34t-83 30t-34 74zM836 1788q0 51 35 86 t86 35q50 0 82 -31.5t32 -79.5q0 -44 -35.5 -79t-83.5 -35q-49 0 -82.5 30t-33.5 74z" />
<glyph unicode="&#xcc;" horiz-adv-x="657" d="M-47 72q0 20 11.5 33.5t41.5 25.5q3 1 10 4q71 28 86 66q12 29 30.5 127t45.5 274q37 235 58.5 411t21.5 230q0 79 -74 122q-1 1 -2 1l-3 2q-38 20 -38 53q0 47 56 64.5t233 17.5q166 0 222.5 -18t56.5 -64q0 -19 -9.5 -31t-44.5 -28q-8 -4 -24 -11q-66 -28 -80 -61 q-19 -45 -41 -164.5t-49 -328.5q-28 -222 -45 -378t-17 -190q0 -33 9.5 -56t26.5 -30q7 -3 21 -8q66 -25 66 -63q0 -46 -52.5 -63t-227.5 -17q-181 0 -235 17t-54 63zM144 1854q0 47 25 82.5t55 35.5q10 0 25 -5t32 -15l348 -211q13 -8 19 -17.5t6 -21.5q0 -27 -17.5 -50.5 t-40.5 -23.5q-15 0 -79 29q-2 1 -5 2l-313 135q-26 12 -40.5 27.5t-14.5 32.5z" />
<glyph unicode="&#xcd;" horiz-adv-x="657" d="M-47 72q0 20 11.5 33.5t41.5 25.5q3 1 10 4q71 28 86 66q12 29 30.5 127t45.5 274q37 235 58.5 411t21.5 230q0 79 -74 122q-1 1 -2 1l-3 2q-38 20 -38 53q0 47 56 64.5t233 17.5q166 0 222.5 -18t56.5 -64q0 -19 -9.5 -31t-44.5 -28q-8 -4 -24 -11q-66 -28 -80 -61 q-19 -45 -41 -164.5t-49 -328.5q-28 -222 -45 -378t-17 -190q0 -33 9.5 -56t26.5 -30q7 -3 21 -8q66 -25 66 -63q0 -46 -52.5 -63t-227.5 -17q-181 0 -235 17t-54 63zM218 1702q0 12 6 21.5t18 17.5l346 211q16 9 32 14.5t28 5.5q29 0 53 -36.5t24 -83.5q0 -16 -14.5 -31.5 t-40.5 -26.5l-311 -135l-5 -2q-63 -29 -79 -29q-23 0 -40 23.5t-17 50.5z" />
<glyph unicode="&#xce;" horiz-adv-x="657" d="M-47 72q0 20 11.5 33.5t41.5 25.5q3 1 10 4q71 28 86 66q12 29 30.5 127t45.5 274q37 235 58.5 411t21.5 230q0 79 -74 122q-1 1 -2 1l-3 2q-38 20 -38 53q0 47 56 64.5t233 17.5q166 0 222.5 -18t56.5 -64q0 -19 -9.5 -31t-44.5 -28q-8 -4 -24 -11q-66 -28 -80 -61 q-19 -45 -41 -164.5t-49 -328.5q-28 -222 -45 -378t-17 -190q0 -33 9.5 -56t26.5 -30q7 -3 21 -8q66 -25 66 -63q0 -46 -52.5 -63t-227.5 -17q-181 0 -235 17t-54 63zM179 1649q0 9 11 28.5t32 47.5l145 196l5 7q40 55 116 55q45 0 64 -7.5t36 -44.5l109 -233 q7 -15 11.5 -28.5t4.5 -20.5q0 -12 -10.5 -17.5t-34.5 -5.5q-67 0 -133 115q-35 60 -59 98q-33 -34 -83 -91q-108 -124 -165 -124q-23 0 -36 6.5t-13 18.5z" />
<glyph unicode="&#xcf;" horiz-adv-x="657" d="M-47 72q0 20 11.5 33.5t41.5 25.5q3 1 10 4q71 28 86 66q12 29 30.5 127t45.5 274q37 235 58.5 411t21.5 230q0 79 -74 122q-1 1 -2 1l-3 2q-38 20 -38 53q0 47 56 64.5t233 17.5q166 0 222.5 -18t56.5 -64q0 -19 -9.5 -31t-44.5 -28q-8 -4 -24 -11q-66 -28 -80 -61 q-19 -45 -41 -164.5t-49 -328.5q-28 -222 -45 -378t-17 -190q0 -33 9.5 -56t26.5 -30q7 -3 21 -8q66 -25 66 -63q0 -46 -52.5 -63t-227.5 -17q-181 0 -235 17t-54 63zM160 1788q0 52 35 86.5t86 34.5q50 0 82.5 -31.5t32.5 -79.5q0 -46 -35 -80t-84 -34t-83 30t-34 74z M523 1788q0 51 35 86t86 35q50 0 82 -31.5t32 -79.5q0 -44 -35.5 -79t-83.5 -35q-49 0 -82.5 30t-33.5 74z" />
<glyph unicode="&#xd0;" horiz-adv-x="1587" d="M-29 72q0 37 63 62q38 15 56 28q44 32 100 396q16 100 25 157h-145q-36 0 -56 18.5t-20 50.5t21.5 52t56.5 20h163q6 44 16 120q28 221 28 267q0 79 -75 122l-1 1l-6 3q-37 20 -37 52q0 38 33 56t104 18q11 0 77 -3t122 -3q57 0 177 10t181 10q321 0 497.5 -169 t176.5 -478q0 -202 -68.5 -370.5t-199.5 -286.5q-117 -105 -274.5 -160t-344.5 -55q-73 0 -209.5 8t-200.5 8q-36 0 -81 -2t-54 -2q-66 0 -95.5 16.5t-29.5 53.5zM424 262q0 -73 39 -103t135 -30q317 0 475 182t158 549q0 253 -117 378.5t-352 125.5q-71 0 -110 -11t-58 -36 q-16 -21 -33.5 -100t-62.5 -361h270q36 0 58 -20t22 -52q0 -31 -21.5 -50t-56.5 -19h-291q-8 -61 -22 -165q-33 -234 -33 -288z" />
<glyph unicode="&#xd1;" horiz-adv-x="1554" d="M-47 66q0 40 62 66q5 2 7 3q3 1 10 4q56 25 81 86q18 46 36.5 143t49.5 310q29 206 45 362.5t16 239.5q0 30 -7.5 44t-24.5 19q-7 2 -19 5q-62 16 -62 57q0 52 51.5 74t182.5 22q43 0 63 -3t37 -9q37 -14 84 -113q18 -36 29 -57q124 -237 271 -471.5t313 -458.5 q62 439 87 633t25 231q0 39 -10 62t-33 35q-7 4 -24 10q-47 16 -47 53q0 50 46.5 69t184.5 19q127 0 170 -16.5t43 -59.5q0 -41 -64 -66q-23 -9 -36 -16q-66 -31 -130 -424l-3 -21q-40 -251 -68.5 -529t-30.5 -290q-8 -61 -23 -81.5t-46 -20.5q-35 0 -83.5 52t-193.5 266 q-183 271 -319.5 491t-216.5 375q-57 -356 -89 -603t-32 -322q0 -35 5.5 -52.5t18.5 -29.5q7 -6 47.5 -23t40.5 -53q0 -50 -45.5 -69t-183.5 -19q-128 0 -171.5 16.5t-43.5 59.5zM586 1704q0 20 22 65.5t49 75.5q29 31 62.5 45.5t75.5 14.5q41 0 130 -29t140 -29 q34 0 54.5 13.5t35.5 46.5q1 2 3 5q10 19 30 19q33 0 42 -6.5t9 -23.5q0 -74 -62 -137.5t-145 -63.5q-51 0 -145 29.5t-135 29.5q-27 0 -44.5 -13t-35.5 -50l-1 -1q-12 -22 -40 -22q-19 0 -32 9t-13 22z" />
<glyph unicode="&#xd2;" horiz-adv-x="1622" d="M59 649q0 210 84.5 386.5t245.5 303.5q108 87 246 133t291 46q285 0 461 -185.5t176 -486.5q0 -195 -69.5 -358t-211.5 -302q-109 -106 -257 -165.5t-302 -59.5q-144 0 -262 45.5t-209 136.5q-90 90 -141.5 224.5t-51.5 281.5zM358 659q0 -254 111.5 -406.5t294.5 -152.5 q213 0 357.5 198.5t144.5 500.5q0 267 -112 422t-304 155q-218 0 -355 -197.5t-137 -519.5zM625 1854q0 47 25 82.5t55 35.5q10 0 25 -5t32 -15l348 -211q13 -8 19 -17.5t6 -21.5q0 -27 -17.5 -50.5t-40.5 -23.5q-15 0 -79 29q-2 1 -5 2l-313 135q-26 12 -40.5 27.5 t-14.5 32.5z" />
<glyph unicode="&#xd3;" horiz-adv-x="1622" d="M59 649q0 210 84.5 386.5t245.5 303.5q108 87 246 133t291 46q285 0 461 -185.5t176 -486.5q0 -195 -69.5 -358t-211.5 -302q-109 -106 -257 -165.5t-302 -59.5q-144 0 -262 45.5t-209 136.5q-90 90 -141.5 224.5t-51.5 281.5zM358 659q0 -254 111.5 -406.5t294.5 -152.5 q213 0 357.5 198.5t144.5 500.5q0 267 -112 422t-304 155q-218 0 -355 -197.5t-137 -519.5zM699 1702q0 12 6 21.5t18 17.5l346 211q16 9 32 14.5t28 5.5q29 0 53 -36.5t24 -83.5q0 -16 -14.5 -31.5t-40.5 -26.5l-311 -135l-5 -2q-63 -29 -79 -29q-23 0 -40 23.5t-17 50.5z " />
<glyph unicode="&#xd4;" horiz-adv-x="1622" d="M59 649q0 210 84.5 386.5t245.5 303.5q108 87 246 133t291 46q285 0 461 -185.5t176 -486.5q0 -195 -69.5 -358t-211.5 -302q-109 -106 -257 -165.5t-302 -59.5q-144 0 -262 45.5t-209 136.5q-90 90 -141.5 224.5t-51.5 281.5zM358 659q0 -254 111.5 -406.5t294.5 -152.5 q213 0 357.5 198.5t144.5 500.5q0 267 -112 422t-304 155q-218 0 -355 -197.5t-137 -519.5zM660 1649q0 9 11 28.5t32 47.5l145 196l5 7q40 55 116 55q45 0 64 -7.5t36 -44.5l109 -233q7 -15 11.5 -28.5t4.5 -20.5q0 -12 -10.5 -17.5t-34.5 -5.5q-67 0 -133 115 q-35 60 -59 98q-33 -34 -83 -91q-108 -124 -165 -124q-23 0 -36 6.5t-13 18.5z" />
<glyph unicode="&#xd5;" horiz-adv-x="1622" d="M59 649q0 210 84.5 386.5t245.5 303.5q108 87 246 133t291 46q285 0 461 -185.5t176 -486.5q0 -195 -69.5 -358t-211.5 -302q-109 -106 -257 -165.5t-302 -59.5q-144 0 -262 45.5t-209 136.5q-90 90 -141.5 224.5t-51.5 281.5zM358 659q0 -254 111.5 -406.5t294.5 -152.5 q213 0 357.5 198.5t144.5 500.5q0 267 -112 422t-304 155q-218 0 -355 -197.5t-137 -519.5zM619 1704q0 20 22 65.5t49 75.5q29 31 62.5 45.5t75.5 14.5q41 0 130 -29t140 -29q34 0 54.5 13.5t35.5 46.5q1 2 3 5q10 19 30 19q33 0 42 -6.5t9 -23.5q0 -74 -62 -137.5 t-145 -63.5q-51 0 -145 29.5t-135 29.5q-27 0 -44.5 -13t-35.5 -50l-1 -1q-12 -22 -40 -22q-19 0 -32 9t-13 22z" />
<glyph unicode="&#xd6;" horiz-adv-x="1622" d="M59 649q0 210 84.5 386.5t245.5 303.5q108 87 246 133t291 46q285 0 461 -185.5t176 -486.5q0 -195 -69.5 -358t-211.5 -302q-109 -106 -257 -165.5t-302 -59.5q-144 0 -262 45.5t-209 136.5q-90 90 -141.5 224.5t-51.5 281.5zM358 659q0 -254 111.5 -406.5t294.5 -152.5 q213 0 357.5 198.5t144.5 500.5q0 267 -112 422t-304 155q-218 0 -355 -197.5t-137 -519.5zM641 1788q0 52 35 86.5t86 34.5q50 0 82.5 -31.5t32.5 -79.5q0 -46 -35 -80t-84 -34t-83 30t-34 74zM1004 1788q0 51 35 86t86 35q50 0 82 -31.5t32 -79.5q0 -44 -35.5 -79 t-83.5 -35q-49 0 -82.5 30t-33.5 74z" />
<glyph unicode="&#xd7;" horiz-adv-x="1706" d="M287 152l458 458l-458 461l116 117l459 -459l461 459l117 -117l-459 -461l459 -458l-117 -119l-461 461l-459 -461z" />
<glyph unicode="&#xd8;" horiz-adv-x="1622" d="M45 -147q0 16 7.5 32t27.5 41l174 213q-93 96 -144 229.5t-51 280.5q0 210 84.5 386.5t245.5 303.5q107 86 243 132.5t277 46.5q106 0 202 -27.5t179 -81.5l168 199l3 3q47 54 81 54q27 0 46.5 -15.5t19.5 -37.5q0 -17 -8 -34.5t-27 -41.5l-174 -213q83 -100 123.5 -218 t40.5 -259q0 -195 -69.5 -358t-211.5 -302q-107 -105 -255.5 -165t-303.5 -60q-96 0 -186 23t-177 69l-165 -198q-28 -34 -45.5 -45t-38.5 -11q-28 0 -47 16t-19 38zM340 670q0 -108 17 -192t53 -146l743 907q-43 71 -116 107t-173 36q-239 0 -381.5 -193t-142.5 -519z M492 215q56 -58 123.5 -86.5t150.5 -28.5q224 0 373 200t149 509q0 85 -14.5 161t-44.5 146z" />
<glyph unicode="&#xd9;" horiz-adv-x="1546" d="M141 1421q0 47 54 64.5t225 17.5q166 0 222 -18t56 -64q0 -22 -13.5 -36t-59.5 -31q-3 -1 -10 -4q-60 -23 -81 -77q-8 -22 -20 -81.5t-23 -139.5q-9 -68 -26 -190q-51 -358 -51 -450q0 -153 80.5 -231.5t238.5 -78.5q150 0 258 69t144 187q22 74 50 296q8 67 13 104 q23 178 36 306t13 169q0 51 -11 78.5t-33 37.5q-9 5 -25 11q-48 16 -48 53q0 50 47 69t185 19q134 0 176.5 -16t42.5 -60q0 -41 -64 -66q-23 -9 -36 -16q-41 -19 -69 -106.5t-52 -273.5q-11 -84 -27 -233q-45 -399 -104 -505q-75 -131 -211 -198.5t-330 -67.5 q-262 0 -396 104t-134 308q0 80 36 325q10 63 15 97q23 149 36 273t13 177q0 46 -12 70t-64 53l-3 2q-38 20 -38 53zM598 1854q0 47 25 82.5t55 35.5q10 0 25 -5t32 -15l348 -211q13 -8 19 -17.5t6 -21.5q0 -27 -17.5 -50.5t-40.5 -23.5q-15 0 -79 29q-2 1 -5 2l-313 135 q-26 12 -40.5 27.5t-14.5 32.5z" />
<glyph unicode="&#xda;" horiz-adv-x="1546" d="M141 1421q0 47 54 64.5t225 17.5q166 0 222 -18t56 -64q0 -22 -13.5 -36t-59.5 -31q-3 -1 -10 -4q-60 -23 -81 -77q-8 -22 -20 -81.5t-23 -139.5q-9 -68 -26 -190q-51 -358 -51 -450q0 -153 80.5 -231.5t238.5 -78.5q150 0 258 69t144 187q22 74 50 296q8 67 13 104 q23 178 36 306t13 169q0 51 -11 78.5t-33 37.5q-9 5 -25 11q-48 16 -48 53q0 50 47 69t185 19q134 0 176.5 -16t42.5 -60q0 -41 -64 -66q-23 -9 -36 -16q-41 -19 -69 -106.5t-52 -273.5q-11 -84 -27 -233q-45 -399 -104 -505q-75 -131 -211 -198.5t-330 -67.5 q-262 0 -396 104t-134 308q0 80 36 325q10 63 15 97q23 149 36 273t13 177q0 46 -12 70t-64 53l-3 2q-38 20 -38 53zM672 1702q0 12 6 21.5t18 17.5l346 211q16 9 32 14.5t28 5.5q29 0 53 -36.5t24 -83.5q0 -16 -14.5 -31.5t-40.5 -26.5l-311 -135l-5 -2q-63 -29 -79 -29 q-23 0 -40 23.5t-17 50.5z" />
<glyph unicode="&#xdb;" horiz-adv-x="1546" d="M141 1421q0 47 54 64.5t225 17.5q166 0 222 -18t56 -64q0 -22 -13.5 -36t-59.5 -31q-3 -1 -10 -4q-60 -23 -81 -77q-8 -22 -20 -81.5t-23 -139.5q-9 -68 -26 -190q-51 -358 -51 -450q0 -153 80.5 -231.5t238.5 -78.5q150 0 258 69t144 187q22 74 50 296q8 67 13 104 q23 178 36 306t13 169q0 51 -11 78.5t-33 37.5q-9 5 -25 11q-48 16 -48 53q0 50 47 69t185 19q134 0 176.5 -16t42.5 -60q0 -41 -64 -66q-23 -9 -36 -16q-41 -19 -69 -106.5t-52 -273.5q-11 -84 -27 -233q-45 -399 -104 -505q-75 -131 -211 -198.5t-330 -67.5 q-262 0 -396 104t-134 308q0 80 36 325q10 63 15 97q23 149 36 273t13 177q0 46 -12 70t-64 53l-3 2q-38 20 -38 53zM633 1649q0 9 11 28.5t32 47.5l145 196l5 7q40 55 116 55q45 0 64 -7.5t36 -44.5l109 -233q7 -15 11.5 -28.5t4.5 -20.5q0 -12 -10.5 -17.5t-34.5 -5.5 q-67 0 -133 115q-35 60 -59 98q-33 -34 -83 -91q-108 -124 -165 -124q-23 0 -36 6.5t-13 18.5z" />
<glyph unicode="&#xdc;" horiz-adv-x="1546" d="M141 1421q0 47 54 64.5t225 17.5q166 0 222 -18t56 -64q0 -22 -13.5 -36t-59.5 -31q-3 -1 -10 -4q-60 -23 -81 -77q-8 -22 -20 -81.5t-23 -139.5q-9 -68 -26 -190q-51 -358 -51 -450q0 -153 80.5 -231.5t238.5 -78.5q150 0 258 69t144 187q22 74 50 296q8 67 13 104 q23 178 36 306t13 169q0 51 -11 78.5t-33 37.5q-9 5 -25 11q-48 16 -48 53q0 50 47 69t185 19q134 0 176.5 -16t42.5 -60q0 -41 -64 -66q-23 -9 -36 -16q-41 -19 -69 -106.5t-52 -273.5q-11 -84 -27 -233q-45 -399 -104 -505q-75 -131 -211 -198.5t-330 -67.5 q-262 0 -396 104t-134 308q0 80 36 325q10 63 15 97q23 149 36 273t13 177q0 46 -12 70t-64 53l-3 2q-38 20 -38 53zM614 1788q0 52 35 86.5t86 34.5q50 0 82.5 -31.5t32.5 -79.5q0 -46 -35 -80t-84 -34t-83 30t-34 74zM977 1788q0 51 35 86t86 35q50 0 82 -31.5t32 -79.5 q0 -44 -35.5 -79t-83.5 -35q-49 0 -82.5 30t-33.5 74z" />
<glyph unicode="&#xdd;" horiz-adv-x="1290" d="M88 1421q0 47 56 64.5t231 17.5q185 0 241 -17.5t56 -64.5q0 -22 -14.5 -36.5t-67.5 -34.5q-9 -4 -22 -8q-40 -13 -40 -48t37.5 -112.5t163.5 -290.5q163 189 222 273.5t59 125.5q0 21 -9.5 38t-22.5 22q-7 3 -21 8q-66 25 -66 63q0 46 54 64t202 18q137 0 189.5 -18 t52.5 -64q0 -38 -67 -64q-35 -13 -54 -24q-52 -28 -143.5 -134t-352.5 -454q-34 -224 -50.5 -352.5t-16.5 -165.5q0 -32 9 -54.5t26 -29.5q7 -3 21 -8q66 -25 66 -63q0 -46 -52.5 -63t-227.5 -17q-174 0 -226.5 17t-52.5 63q0 37 63 62q38 15 56 28q41 29 92 337 q23 145 39 232q-100 174 -202.5 375.5t-118.5 218.5q-13 12 -61 37t-48 59zM533 1702q0 12 6 21.5t18 17.5l346 211q16 9 32 14.5t28 5.5q29 0 53 -36.5t24 -83.5q0 -16 -14.5 -31.5t-40.5 -26.5l-311 -135l-5 -2q-63 -29 -79 -29q-23 0 -40 23.5t-17 50.5z" />
<glyph unicode="&#xde;" horiz-adv-x="1237" d="M-47 72q0 20 11.5 33.5t41.5 25.5q5 2 14 6q68 26 82 64q12 30 30 126t46 275q38 248 59 419t21 222q0 79 -74 122q-1 1 -2 1l-3 2q-38 20 -38 53q0 47 56 64.5t233 17.5q155 0 210.5 -18t55.5 -64q0 -36 -61 -62q-23 -9 -35 -16q-45 -21 -63 -52.5t-31 -127.5 q57 0 130.5 1t90.5 1q253 0 360 -77.5t107 -256.5q0 -224 -176.5 -345t-505.5 -121q-20 0 -43 0.5t-72 2.5q-2 -25 -6 -67q-6 -58 -6 -74q0 -33 9 -55t26 -29q8 -3 21 -8q67 -25 67 -63q0 -46 -52 -63t-214 -17q-180 0 -234.5 17t-54.5 63zM412 508l30 -3q64 -5 88 -5 q186 0 284.5 83.5t98.5 239.5q0 108 -64.5 158.5t-201.5 50.5q-108 0 -141.5 -28.5t-50.5 -165.5z" />
<glyph unicode="&#xdf;" horiz-adv-x="1057" d="M-100 -338q0 31 43.5 58t54.5 40q32 41 67 315q3 24 5 38l92 747q27 226 64.5 333.5t103.5 182.5q61 71 145 106.5t189 35.5q152 0 238.5 -82t86.5 -226q0 -137 -80.5 -230t-242.5 -140q146 -28 221.5 -118.5t75.5 -238.5q0 -213 -142 -363.5t-340 -150.5q-58 0 -89.5 17 t-31.5 49q0 25 20 38t58 13q2 0 8 -1t9 -1q110 0 181 107t71 278q0 103 -25 173.5t-73 104.5q-17 12 -46 25q-57 26 -57 66t66 60q42 13 65 26q56 32 88.5 111t32.5 188q0 85 -34 132.5t-95 47.5q-86 0 -132.5 -96t-82.5 -379l-125 -973q-2 -13 -4 -34q-9 -72 -9 -99 q0 -33 7.5 -74.5t7.5 -50.5q0 -46 -77.5 -73t-207.5 -27q-52 0 -79 16.5t-27 48.5z" />
<glyph unicode="&#xe0;" horiz-adv-x="1180" d="M23 301q0 148 58.5 289.5t168.5 259.5q91 96 198 145t224 49q64 0 131.5 -23.5t70.5 -23.5q31 0 79 30t65 30q18 0 32.5 -19t14.5 -45q0 -31 -24 -172.5t-37 -245.5l-25 -192l-3 -22q-13 -112 -13 -123q0 -24 6 -30.5t24 -6.5q7 0 22 1t23 1q19 0 31 -13t12 -32 q0 -28 -22.5 -53t-77.5 -56q-66 -38 -113 -57t-77 -19q-40 0 -57 31t-17 105q0 23 0.5 36.5t0.5 23.5q-116 -104 -209.5 -151t-184.5 -47q-135 0 -218 91t-83 239zM276 319q0 -88 39 -132t117 -44q74 0 156 64.5t129 163.5q46 98 74 210t28 191q0 72 -34 114t-93 42 q-74 0 -146 -50.5t-136 -148.5q-62 -91 -98 -201.5t-36 -208.5zM379 1393q0 47 25 82.5t55 35.5q10 0 25 -5t32 -15l348 -211q13 -8 19 -17.5t6 -21.5q0 -27 -17.5 -50.5t-40.5 -23.5q-15 0 -79 29q-2 1 -5 2l-313 135q-26 12 -40.5 27.5t-14.5 32.5z" />
<glyph unicode="&#xe1;" horiz-adv-x="1180" d="M23 301q0 148 58.5 289.5t168.5 259.5q91 96 198 145t224 49q64 0 131.5 -23.5t70.5 -23.5q31 0 79 30t65 30q18 0 32.5 -19t14.5 -45q0 -31 -24 -172.5t-37 -245.5l-25 -192l-3 -22q-13 -112 -13 -123q0 -24 6 -30.5t24 -6.5q7 0 22 1t23 1q19 0 31 -13t12 -32 q0 -28 -22.5 -53t-77.5 -56q-66 -38 -113 -57t-77 -19q-40 0 -57 31t-17 105q0 23 0.5 36.5t0.5 23.5q-116 -104 -209.5 -151t-184.5 -47q-135 0 -218 91t-83 239zM276 319q0 -88 39 -132t117 -44q74 0 156 64.5t129 163.5q46 98 74 210t28 191q0 72 -34 114t-93 42 q-74 0 -146 -50.5t-136 -148.5q-62 -91 -98 -201.5t-36 -208.5zM453 1241q0 12 6 21.5t18 17.5l346 211q16 9 32 14.5t28 5.5q29 0 53 -36.5t24 -83.5q0 -16 -14.5 -31.5t-40.5 -26.5l-311 -135l-5 -2q-63 -29 -79 -29q-23 0 -40 23.5t-17 50.5z" />
<glyph unicode="&#xe2;" horiz-adv-x="1180" d="M23 301q0 148 58.5 289.5t168.5 259.5q91 96 198 145t224 49q64 0 131.5 -23.5t70.5 -23.5q31 0 79 30t65 30q18 0 32.5 -19t14.5 -45q0 -31 -24 -172.5t-37 -245.5l-25 -192l-3 -22q-13 -112 -13 -123q0 -24 6 -30.5t24 -6.5q7 0 22 1t23 1q19 0 31 -13t12 -32 q0 -28 -22.5 -53t-77.5 -56q-66 -38 -113 -57t-77 -19q-40 0 -57 31t-17 105q0 23 0.5 36.5t0.5 23.5q-116 -104 -209.5 -151t-184.5 -47q-135 0 -218 91t-83 239zM276 319q0 -88 39 -132t117 -44q74 0 156 64.5t129 163.5q46 98 74 210t28 191q0 72 -34 114t-93 42 q-74 0 -146 -50.5t-136 -148.5q-62 -91 -98 -201.5t-36 -208.5zM414 1188q0 9 11 28.5t32 47.5l145 196l5 7q40 55 116 55q45 0 64 -7.5t36 -44.5l109 -233q7 -15 11.5 -28.5t4.5 -20.5q0 -12 -10.5 -17.5t-34.5 -5.5q-67 0 -133 115q-35 60 -59 98q-33 -34 -83 -91 q-108 -124 -165 -124q-23 0 -36 6.5t-13 18.5z" />
<glyph unicode="&#xe3;" horiz-adv-x="1180" d="M23 301q0 148 58.5 289.5t168.5 259.5q91 96 198 145t224 49q64 0 131.5 -23.5t70.5 -23.5q31 0 79 30t65 30q18 0 32.5 -19t14.5 -45q0 -31 -24 -172.5t-37 -245.5l-25 -192l-3 -22q-13 -112 -13 -123q0 -24 6 -30.5t24 -6.5q7 0 22 1t23 1q19 0 31 -13t12 -32 q0 -28 -22.5 -53t-77.5 -56q-66 -38 -113 -57t-77 -19q-40 0 -57 31t-17 105q0 23 0.5 36.5t0.5 23.5q-116 -104 -209.5 -151t-184.5 -47q-135 0 -218 91t-83 239zM276 319q0 -88 39 -132t117 -44q74 0 156 64.5t129 163.5q46 98 74 210t28 191q0 72 -34 114t-93 42 q-74 0 -146 -50.5t-136 -148.5q-62 -91 -98 -201.5t-36 -208.5zM373 1243q0 20 22 65.5t49 75.5q29 31 62.5 45.5t75.5 14.5q41 0 130 -29t140 -29q34 0 54.5 13.5t35.5 46.5q1 2 3 5q10 19 30 19q33 0 42 -6.5t9 -23.5q0 -74 -62 -137.5t-145 -63.5q-51 0 -145 29.5 t-135 29.5q-27 0 -44.5 -13t-35.5 -50l-1 -1q-12 -22 -40 -22q-19 0 -32 9t-13 22z" />
<glyph unicode="&#xe4;" horiz-adv-x="1180" d="M23 301q0 148 58.5 289.5t168.5 259.5q91 96 198 145t224 49q64 0 131.5 -23.5t70.5 -23.5q31 0 79 30t65 30q18 0 32.5 -19t14.5 -45q0 -31 -24 -172.5t-37 -245.5l-25 -192l-3 -22q-13 -112 -13 -123q0 -24 6 -30.5t24 -6.5q7 0 22 1t23 1q19 0 31 -13t12 -32 q0 -28 -22.5 -53t-77.5 -56q-66 -38 -113 -57t-77 -19q-40 0 -57 31t-17 105q0 23 0.5 36.5t0.5 23.5q-116 -104 -209.5 -151t-184.5 -47q-135 0 -218 91t-83 239zM276 319q0 -88 39 -132t117 -44q74 0 156 64.5t129 163.5q46 98 74 210t28 191q0 72 -34 114t-93 42 q-74 0 -146 -50.5t-136 -148.5q-62 -91 -98 -201.5t-36 -208.5zM395 1327q0 52 35 86.5t86 34.5q50 0 82.5 -31.5t32.5 -79.5q0 -46 -35 -80t-84 -34t-83 30t-34 74zM758 1327q0 51 35 86t86 35q50 0 82 -31.5t32 -79.5q0 -44 -35.5 -79t-83.5 -35q-49 0 -82.5 30t-33.5 74z " />
<glyph unicode="&#xe5;" horiz-adv-x="1180" d="M23 301q0 148 58.5 289.5t168.5 259.5q91 96 198 145t224 49q64 0 131.5 -23.5t70.5 -23.5q31 0 79 30t65 30q18 0 32.5 -19t14.5 -45q0 -31 -24 -172.5t-37 -245.5l-25 -192l-3 -22q-13 -112 -13 -123q0 -24 6 -30.5t24 -6.5q7 0 22 1t23 1q19 0 31 -13t12 -32 q0 -28 -22.5 -53t-77.5 -56q-69 -40 -115 -59t-75 -19q-40 0 -57 31.5t-17 106.5q0 23 0.5 36.5t0.5 23.5q-116 -104 -209.5 -151t-184.5 -47q-135 0 -218 91t-83 239zM276 319q0 -88 39 -132t117 -44q74 0 156 64.5t129 163.5q46 98 74 210t28 191q0 72 -34 114t-93 42 q-74 0 -146 -50.5t-136 -148.5q-62 -91 -98 -201.5t-36 -208.5zM502 1368q0 108 73.5 182t180.5 74t181.5 -74t74.5 -182q0 -107 -74 -180.5t-182 -73.5t-181 73.5t-73 180.5zM618 1368q0 -57 40.5 -97t97.5 -40t97 40t40 97q0 58 -39.5 97.5t-97.5 39.5q-59 0 -98.5 -39.5 t-39.5 -97.5z" />
<glyph unicode="&#xe6;" horiz-adv-x="1716" d="M25 299q0 152 56.5 293t164.5 258q87 95 193 144.5t220 49.5q64 0 130 -23.5t69 -23.5q33 0 79.5 31t59.5 31q18 0 29.5 -19t11.5 -49q0 -13 -2 -32t-6 -41q80 70 168.5 105.5t183.5 35.5q135 0 211 -67.5t76 -186.5q0 -90 -46.5 -169t-137.5 -142q-83 -57 -186 -88 t-209 -31q-32 0 -60.5 2.5t-56.5 7.5q1 -136 59.5 -210.5t163.5 -74.5q48 0 98 18t113 58q10 7 28 20q53 37 76 37q25 0 39.5 -13t14.5 -36q0 -21 -18 -47t-50 -49q-78 -57 -165.5 -87t-176.5 -30q-157 0 -256 60.5t-143 183.5q-98 -117 -209.5 -180.5t-218.5 -63.5 q-140 0 -221.5 88.5t-81.5 239.5zM276 319q0 -88 39 -132t117 -44q74 0 156 64.5t129 163.5q46 98 74 210t28 191q0 72 -34 114t-93 42q-74 0 -146 -50.5t-136 -148.5q-62 -91 -98 -201.5t-36 -208.5zM987 502q29 -3 53.5 -4.5t44.5 -1.5q146 0 247.5 92t101.5 221 q0 63 -30 98t-83 35q-116 0 -207.5 -119.5t-126.5 -320.5z" />
<glyph unicode="&#xe7;" horiz-adv-x="1014" d="M33 379q0 128 48.5 247.5t139.5 217.5q96 102 215 156.5t246 54.5q133 0 219 -72t86 -180q0 -65 -34.5 -102t-94.5 -37q-57 0 -92 31.5t-35 84.5q0 13 6 41.5t6 44.5q0 28 -30 47t-76 19q-149 0 -249.5 -147.5t-100.5 -372.5q0 -151 58.5 -231.5t168.5 -80.5q48 0 98 18 t113 58q10 7 28 20q53 37 76 37q25 0 39.5 -13t14.5 -36q0 -68 -135 -140.5t-299 -72.5q-198 0 -307 107t-109 301zM166 -385q0 19 13 32t34 13q10 0 73.5 -15.5t117.5 -15.5q62 0 99.5 26t37.5 69q0 41 -25.5 60.5t-104.5 29.5q-11 1 -30 2q-33 2 -33 22q0 22 49 155l3 7 h96q-5 -13 -14 -38q-18 -49 -23 -68h22q105 0 160 -41.5t55 -120.5q0 -98 -71.5 -151.5t-202.5 -53.5q-118 0 -187 24t-69 64z" />
<glyph unicode="&#xe8;" horiz-adv-x="1038" d="M33 379q0 128 48.5 247.5t139.5 217.5q98 104 218.5 157.5t256.5 53.5q140 0 215.5 -65t75.5 -185q0 -89 -47 -167t-141 -144q-85 -58 -187.5 -88.5t-208.5 -30.5q-20 0 -48 2.5t-66 7.5q2 -137 60.5 -211t164.5 -74q48 0 98 18t113 58q10 7 28 20q53 37 76 37 q25 0 39.5 -13t14.5 -36q0 -68 -135 -140.5t-299 -72.5q-198 0 -307 107t-109 301zM291 502q30 -3 56 -4.5t46 -1.5q149 0 252 92t103 221q0 63 -30.5 98t-84.5 35q-118 0 -212 -120t-130 -320zM365 1393q0 47 25 82.5t55 35.5q10 0 25 -5t32 -15l348 -211q13 -8 19 -17.5 t6 -21.5q0 -27 -17.5 -50.5t-40.5 -23.5q-15 0 -79 29q-2 1 -5 2l-313 135q-26 12 -40.5 27.5t-14.5 32.5z" />
<glyph unicode="&#xe9;" horiz-adv-x="1038" d="M33 379q0 128 48.5 247.5t139.5 217.5q98 104 218.5 157.5t256.5 53.5q140 0 215.5 -65t75.5 -185q0 -89 -47 -167t-141 -144q-85 -58 -187.5 -88.5t-208.5 -30.5q-20 0 -48 2.5t-66 7.5q2 -137 60.5 -211t164.5 -74q48 0 98 18t113 58q10 7 28 20q53 37 76 37 q25 0 39.5 -13t14.5 -36q0 -68 -135 -140.5t-299 -72.5q-198 0 -307 107t-109 301zM291 502q30 -3 56 -4.5t46 -1.5q149 0 252 92t103 221q0 63 -30.5 98t-84.5 35q-118 0 -212 -120t-130 -320zM439 1241q0 12 6 21.5t18 17.5l346 211q16 9 32 14.5t28 5.5q29 0 53 -36.5 t24 -83.5q0 -16 -14.5 -31.5t-40.5 -26.5l-311 -135l-5 -2q-63 -29 -79 -29q-23 0 -40 23.5t-17 50.5z" />
<glyph unicode="&#xea;" horiz-adv-x="1038" d="M33 379q0 128 48.5 247.5t139.5 217.5q98 104 218.5 157.5t256.5 53.5q140 0 215.5 -65t75.5 -185q0 -89 -47 -167t-141 -144q-85 -58 -187.5 -88.5t-208.5 -30.5q-20 0 -48 2.5t-66 7.5q2 -137 60.5 -211t164.5 -74q48 0 98 18t113 58q10 7 28 20q53 37 76 37 q25 0 39.5 -13t14.5 -36q0 -68 -135 -140.5t-299 -72.5q-198 0 -307 107t-109 301zM291 502q30 -3 56 -4.5t46 -1.5q149 0 252 92t103 221q0 63 -30.5 98t-84.5 35q-118 0 -212 -120t-130 -320zM400 1188q0 9 11 28.5t32 47.5l145 196l5 7q40 55 116 55q45 0 64 -7.5 t36 -44.5l109 -233q7 -15 11.5 -28.5t4.5 -20.5q0 -12 -10.5 -17.5t-34.5 -5.5q-67 0 -133 115q-35 60 -59 98q-33 -34 -83 -91q-108 -124 -165 -124q-23 0 -36 6.5t-13 18.5z" />
<glyph unicode="&#xeb;" horiz-adv-x="1038" d="M33 379q0 128 48.5 247.5t139.5 217.5q98 104 218.5 157.5t256.5 53.5q140 0 215.5 -65t75.5 -185q0 -89 -47 -167t-141 -144q-85 -58 -187.5 -88.5t-208.5 -30.5q-20 0 -48 2.5t-66 7.5q2 -137 60.5 -211t164.5 -74q48 0 98 18t113 58q10 7 28 20q53 37 76 37 q25 0 39.5 -13t14.5 -36q0 -68 -135 -140.5t-299 -72.5q-198 0 -307 107t-109 301zM291 502q30 -3 56 -4.5t46 -1.5q149 0 252 92t103 221q0 63 -30.5 98t-84.5 35q-118 0 -212 -120t-130 -320zM381 1327q0 52 35 86.5t86 34.5q50 0 82.5 -31.5t32.5 -79.5q0 -46 -35 -80 t-84 -34t-83 30t-34 74zM744 1327q0 51 35 86t86 35q50 0 82 -31.5t32 -79.5q0 -44 -35.5 -79t-83.5 -35q-49 0 -82.5 30t-33.5 74z" />
<glyph unicode="&#xec;" d="M27 922q0 23 19 42.5t56 34.5q68 28 138 44t120 16q49 0 70 -18t21 -60q0 -12 -24 -145.5t-40 -260.5l-25 -192q-8 -62 -12 -95t-4 -48q0 -26 6.5 -33.5t28.5 -7.5q13 0 32.5 3t26.5 3q19 0 32 -14t13 -33q0 -21 -17 -43.5t-50 -44.5q-65 -44 -140.5 -71.5t-119.5 -27.5 t-66 20.5t-22 59.5q0 21 13 94t19 115l33 195q20 124 27.5 192t7.5 115q0 58 -11.5 77t-43.5 29q-12 4 -33 8q-55 12 -55 46zM23 1393q0 47 25 82.5t55 35.5q10 0 25 -5t32 -15l348 -211q13 -8 19 -17.5t6 -21.5q0 -27 -17.5 -50.5t-40.5 -23.5q-15 0 -79 29q-2 1 -5 2 l-313 135q-26 12 -40.5 27.5t-14.5 32.5z" />
<glyph unicode="&#xed;" d="M27 922q0 23 19 42.5t56 34.5q68 28 138 44t120 16q49 0 70 -18t21 -60q0 -12 -24 -145.5t-40 -260.5l-25 -192q-8 -62 -12 -95t-4 -48q0 -26 6.5 -33.5t28.5 -7.5q13 0 32.5 3t26.5 3q19 0 32 -14t13 -33q0 -21 -17 -43.5t-50 -44.5q-65 -44 -140.5 -71.5t-119.5 -27.5 t-66 20.5t-22 59.5q0 21 13 94t19 115l33 195q20 124 27.5 192t7.5 115q0 58 -11.5 77t-43.5 29q-12 4 -33 8q-55 12 -55 46zM97 1241q0 12 6 21.5t18 17.5l346 211q16 9 32 14.5t28 5.5q29 0 53 -36.5t24 -83.5q0 -16 -14.5 -31.5t-40.5 -26.5l-311 -135l-5 -2 q-63 -29 -79 -29q-23 0 -40 23.5t-17 50.5z" />
<glyph unicode="&#xee;" d="M27 922q0 23 19 42.5t56 34.5q68 28 138 44t120 16q49 0 70 -18t21 -60q0 -12 -24 -145.5t-40 -260.5l-25 -192q-8 -62 -12 -95t-4 -48q0 -26 6.5 -33.5t28.5 -7.5q13 0 32.5 3t26.5 3q19 0 32 -14t13 -33q0 -21 -17 -43.5t-50 -44.5q-65 -44 -140.5 -71.5t-119.5 -27.5 t-66 20.5t-22 59.5q0 21 13 94t19 115l33 195q20 124 27.5 192t7.5 115q0 58 -11.5 77t-43.5 29q-12 4 -33 8q-55 12 -55 46zM58 1188q0 9 11 28.5t32 47.5l145 196l5 7q40 55 116 55q45 0 64 -7.5t36 -44.5l109 -233q7 -15 11.5 -28.5t4.5 -20.5q0 -12 -10.5 -17.5 t-34.5 -5.5q-67 0 -133 115q-35 60 -59 98q-33 -34 -83 -91q-108 -124 -165 -124q-23 0 -36 6.5t-13 18.5z" />
<glyph unicode="&#xef;" d="M27 922q0 23 19 42.5t56 34.5q68 28 138 44t120 16q49 0 70 -18t21 -60q0 -12 -24 -145.5t-40 -260.5l-25 -192q-8 -62 -12 -95t-4 -48q0 -26 6.5 -33.5t28.5 -7.5q13 0 32.5 3t26.5 3q19 0 32 -14t13 -33q0 -21 -17 -43.5t-50 -44.5q-65 -44 -140.5 -71.5t-119.5 -27.5 t-66 20.5t-22 59.5q0 21 13 94t19 115l33 195q20 124 27.5 192t7.5 115q0 58 -11.5 77t-43.5 29q-12 4 -33 8q-55 12 -55 46zM39 1327q0 52 35 86.5t86 34.5q50 0 82.5 -31.5t32.5 -79.5q0 -46 -35 -80t-84 -34t-83 30t-34 74zM402 1327q0 51 35 86t86 35q50 0 82 -31.5 t32 -79.5q0 -44 -35.5 -79t-83.5 -35q-49 0 -82.5 30t-33.5 74z" />
<glyph unicode="&#xf0;" horiz-adv-x="1075" d="M29 385q0 105 39.5 203t115.5 180q77 81 174.5 126.5t194.5 45.5q34 0 71 -8.5t74 -26.5q-20 60 -47.5 114t-62.5 101l-252 -65q-21 -7 -35 -10t-22 -3q-30 0 -46 15t-16 43q0 27 19.5 44t68.5 32l201 57q-42 55 -116.5 132.5t-74.5 113.5q0 20 18.5 34.5t45.5 14.5 q48 0 124.5 -59t192.5 -187l221 59q17 5 33 8t27 3q29 0 44 -15t15 -43q0 -27 -20 -44.5t-65 -28.5l-173 -45q104 -130 156.5 -274t52.5 -298q0 -88 -18.5 -169.5t-53.5 -149.5q-76 -150 -204 -233t-283 -83q-178 0 -288.5 115.5t-110.5 300.5zM283 401q0 -144 50.5 -227.5 t135.5 -83.5q106 0 181 126t75 314q0 137 -51 219t-133 82q-104 0 -181 -124t-77 -306z" />
<glyph unicode="&#xf1;" horiz-adv-x="1208" d="M27 922q0 23 18.5 41.5t56.5 33.5q67 28 132 45t94 17q35 0 50 -15t15 -49q0 -11 -0.5 -17.5t-1.5 -11.5l-8 -51v-16q0 -11 2.5 -14.5t9.5 -3.5t40 28q24 22 40 35q71 57 147.5 87t151.5 30q130 0 199 -82t69 -236q0 -34 -3 -73t-9 -82l-27 -206l-2 -20 q-14 -113 -14 -124q0 -24 6 -30.5t25 -6.5q7 0 21.5 1t23.5 1q19 0 31 -13t12 -32q0 -28 -28 -55.5t-91 -61.5q-65 -35 -115 -53.5t-79 -18.5q-38 0 -60 22.5t-22 59.5q0 21 30 208q14 90 23 144q15 95 23 171.5t8 119.5q0 89 -35 133.5t-105 44.5q-137 0 -206 -126.5 t-97 -442.5q-4 -46 -6 -119q-4 -123 -31 -147q-30 -27 -87 -47.5t-101 -20.5q-29 0 -43 14.5t-14 45.5q0 12 3.5 40.5t12.5 84.5l74 492q5 33 7.5 64t2.5 60q0 49 -11.5 68t-43.5 30q-12 4 -33 8q-55 12 -55 46zM336 1243q0 20 22 65.5t49 75.5q29 31 62.5 45.5t75.5 14.5 q41 0 130 -29t140 -29q34 0 54.5 13.5t35.5 46.5q1 2 3 5q10 19 30 19q33 0 42 -6.5t9 -23.5q0 -74 -62 -137.5t-145 -63.5q-51 0 -145 29.5t-135 29.5q-27 0 -44.5 -13t-35.5 -50l-1 -1q-12 -22 -40 -22q-19 0 -32 9t-13 22z" />
<glyph unicode="&#xf2;" horiz-adv-x="1157" d="M29 434q0 115 44.5 223t129.5 199q89 95 205.5 148t236.5 53q199 0 319.5 -122t120.5 -325q0 -120 -43.5 -232t-126.5 -206q-87 -98 -201 -150.5t-241 -52.5q-199 0 -321.5 128.5t-122.5 336.5zM289 442q0 -161 62.5 -257.5t164.5 -96.5q126 0 216.5 146t90.5 362 q0 157 -61 250.5t-162 93.5q-128 0 -219.5 -143t-91.5 -355zM330 1393q0 47 25 82.5t55 35.5q10 0 25 -5t32 -15l348 -211q13 -8 19 -17.5t6 -21.5q0 -27 -17.5 -50.5t-40.5 -23.5q-15 0 -79 29q-2 1 -5 2l-313 135q-26 12 -40.5 27.5t-14.5 32.5z" />
<glyph unicode="&#xf3;" horiz-adv-x="1157" d="M29 434q0 115 44.5 223t129.5 199q89 95 205.5 148t236.5 53q199 0 319.5 -122t120.5 -325q0 -120 -43.5 -232t-126.5 -206q-87 -98 -201 -150.5t-241 -52.5q-199 0 -321.5 128.5t-122.5 336.5zM289 442q0 -161 62.5 -257.5t164.5 -96.5q126 0 216.5 146t90.5 362 q0 157 -61 250.5t-162 93.5q-128 0 -219.5 -143t-91.5 -355zM404 1241q0 12 6 21.5t18 17.5l346 211q16 9 32 14.5t28 5.5q29 0 53 -36.5t24 -83.5q0 -16 -14.5 -31.5t-40.5 -26.5l-311 -135l-5 -2q-63 -29 -79 -29q-23 0 -40 23.5t-17 50.5z" />
<glyph unicode="&#xf4;" horiz-adv-x="1157" d="M29 434q0 115 44.5 223t129.5 199q89 95 205.5 148t236.5 53q199 0 319.5 -122t120.5 -325q0 -120 -43.5 -232t-126.5 -206q-87 -98 -201 -150.5t-241 -52.5q-199 0 -321.5 128.5t-122.5 336.5zM289 442q0 -161 62.5 -257.5t164.5 -96.5q126 0 216.5 146t90.5 362 q0 157 -61 250.5t-162 93.5q-128 0 -219.5 -143t-91.5 -355zM365 1188q0 9 11 28.5t32 47.5l145 196l5 7q40 55 116 55q45 0 64 -7.5t36 -44.5l109 -233q7 -15 11.5 -28.5t4.5 -20.5q0 -12 -10.5 -17.5t-34.5 -5.5q-67 0 -133 115q-35 60 -59 98q-33 -34 -83 -91 q-108 -124 -165 -124q-23 0 -36 6.5t-13 18.5z" />
<glyph unicode="&#xf5;" horiz-adv-x="1157" d="M29 434q0 115 44.5 223t129.5 199q89 95 205.5 148t236.5 53q199 0 319.5 -122t120.5 -325q0 -120 -43.5 -232t-126.5 -206q-87 -98 -201 -150.5t-241 -52.5q-199 0 -321.5 128.5t-122.5 336.5zM289 442q0 -161 62.5 -257.5t164.5 -96.5q126 0 216.5 146t90.5 362 q0 157 -61 250.5t-162 93.5q-128 0 -219.5 -143t-91.5 -355zM324 1243q0 20 22 65.5t49 75.5q29 31 62.5 45.5t75.5 14.5q41 0 130 -29t140 -29q34 0 54.5 13.5t35.5 46.5q1 2 3 5q10 19 30 19q33 0 42 -6.5t9 -23.5q0 -74 -62 -137.5t-145 -63.5q-51 0 -145 29.5t-135 29.5 q-27 0 -44.5 -13t-35.5 -50l-1 -1q-12 -22 -40 -22q-19 0 -32 9t-13 22z" />
<glyph unicode="&#xf6;" horiz-adv-x="1157" d="M29 434q0 115 44.5 223t129.5 199q89 95 205.5 148t236.5 53q199 0 319.5 -122t120.5 -325q0 -120 -43.5 -232t-126.5 -206q-87 -98 -201 -150.5t-241 -52.5q-199 0 -321.5 128.5t-122.5 336.5zM289 442q0 -161 62.5 -257.5t164.5 -96.5q126 0 216.5 146t90.5 362 q0 157 -61 250.5t-162 93.5q-128 0 -219.5 -143t-91.5 -355zM346 1327q0 52 35 86.5t86 34.5q50 0 82.5 -31.5t32.5 -79.5q0 -46 -35 -80t-84 -34t-83 30t-34 74zM709 1327q0 51 35 86t86 35q50 0 82 -31.5t32 -79.5q0 -44 -35.5 -79t-83.5 -35q-49 0 -82.5 30t-33.5 74z " />
<glyph unicode="&#xf7;" horiz-adv-x="1706" d="M254 528v166h1198v-166h-1198zM717 229q0 57 40.5 97.5t96.5 40.5q57 0 97 -40.5t40 -97.5q0 -56 -39.5 -95.5t-97.5 -39.5t-97.5 39t-39.5 96zM717 989q0 57 40.5 98t96.5 41q57 0 97 -41t40 -98q0 -56 -39.5 -95.5t-97.5 -39.5t-97.5 39t-39.5 96z" />
<glyph unicode="&#xf8;" horiz-adv-x="1157" d="M29 422q0 125 43.5 234t130.5 200q90 96 208 149.5t240 53.5q49 0 97 -11t96 -32l61 88q15 21 32 32t34 11q21 0 35 -11t14 -28q0 -12 -5.5 -25t-21.5 -34l-63 -84q77 -56 116 -145t39 -210q0 -120 -43.5 -232t-126.5 -206q-87 -98 -201 -150.5t-241 -52.5q-58 0 -115 14 t-112 42l-84 -113q-15 -21 -32 -32t-34 -11q-21 0 -35 11t-14 28q0 18 28 56l1 1l90 121q-69 68 -103 151t-34 185zM287 422q0 -35 5 -71t15 -72l432 595q-28 33 -62 49.5t-75 16.5q-132 0 -223.5 -147t-91.5 -371zM358 176q34 -44 72.5 -66t83.5 -22q128 0 219.5 146 t91.5 362q0 47 -7.5 92t-22.5 90z" />
<glyph unicode="&#xf9;" horiz-adv-x="1208" d="M37 883q0 23 19 46t57 44q67 38 136.5 62t102.5 24q39 0 59.5 -23t20.5 -65q0 -59 -41 -272.5t-41 -360.5q0 -88 35.5 -133t103.5 -45q137 0 206.5 126.5t97.5 440.5q3 45 6 119q4 121 30 145q30 27 87.5 47.5t101.5 20.5q29 0 43 -14.5t14 -45.5q0 -19 -3.5 -50.5 t-10.5 -73.5l-43 -269q-14 -89 -21.5 -177.5t-7.5 -160.5q0 -44 10 -69.5t31 -34.5q10 -4 31 -9q57 -13 57 -44q0 -24 -16 -44.5t-45 -33.5q-56 -27 -118.5 -43.5t-96.5 -16.5q-41 0 -57.5 31t-27.5 151q-107 -94 -201 -139t-185 -45q-130 0 -199.5 82t-69.5 236 q0 39 3 77.5t10 77.5l30 205l8 56q11 71 11 88q0 39 -69 45q-9 1 -16 2q-18 1 -30 13t-12 30zM342 1393q0 47 25 82.5t55 35.5q10 0 25 -5t32 -15l348 -211q13 -8 19 -17.5t6 -21.5q0 -27 -17.5 -50.5t-40.5 -23.5q-15 0 -79 29q-2 1 -5 2l-313 135q-26 12 -40.5 27.5 t-14.5 32.5z" />
<glyph unicode="&#xfa;" horiz-adv-x="1208" d="M37 883q0 23 19 46t57 44q67 38 136.5 62t102.5 24q39 0 59.5 -23t20.5 -65q0 -59 -41 -272.5t-41 -360.5q0 -88 35.5 -133t103.5 -45q137 0 206.5 126.5t97.5 440.5q3 45 6 119q4 121 30 145q30 27 87.5 47.5t101.5 20.5q29 0 43 -14.5t14 -45.5q0 -19 -3.5 -50.5 t-10.5 -73.5l-43 -269q-14 -89 -21.5 -177.5t-7.5 -160.5q0 -44 10 -69.5t31 -34.5q10 -4 31 -9q57 -13 57 -44q0 -24 -16 -44.5t-45 -33.5q-56 -27 -118.5 -43.5t-96.5 -16.5q-41 0 -57.5 31t-27.5 151q-107 -94 -201 -139t-185 -45q-130 0 -199.5 82t-69.5 236 q0 39 3 77.5t10 77.5l30 205l8 56q11 71 11 88q0 39 -69 45q-9 1 -16 2q-18 1 -30 13t-12 30zM416 1241q0 12 6 21.5t18 17.5l346 211q16 9 32 14.5t28 5.5q29 0 53 -36.5t24 -83.5q0 -16 -14.5 -31.5t-40.5 -26.5l-311 -135l-5 -2q-63 -29 -79 -29q-23 0 -40 23.5t-17 50.5 z" />
<glyph unicode="&#xfb;" horiz-adv-x="1208" d="M37 883q0 23 19 46t57 44q67 38 136.5 62t102.5 24q39 0 59.5 -23t20.5 -65q0 -59 -41 -272.5t-41 -360.5q0 -88 35.5 -133t103.5 -45q137 0 206.5 126.5t97.5 440.5q3 45 6 119q4 121 30 145q30 27 87.5 47.5t101.5 20.5q29 0 43 -14.5t14 -45.5q0 -19 -3.5 -50.5 t-10.5 -73.5l-43 -269q-14 -89 -21.5 -177.5t-7.5 -160.5q0 -44 10 -69.5t31 -34.5q10 -4 31 -9q57 -13 57 -44q0 -24 -16 -44.5t-45 -33.5q-56 -27 -118.5 -43.5t-96.5 -16.5q-41 0 -57.5 31t-27.5 151q-107 -94 -201 -139t-185 -45q-130 0 -199.5 82t-69.5 236 q0 39 3 77.5t10 77.5l30 205l8 56q11 71 11 88q0 39 -69 45q-9 1 -16 2q-18 1 -30 13t-12 30zM377 1188q0 9 11 28.5t32 47.5l145 196l5 7q40 55 116 55q45 0 64 -7.5t36 -44.5l109 -233q7 -15 11.5 -28.5t4.5 -20.5q0 -12 -10.5 -17.5t-34.5 -5.5q-67 0 -133 115 q-35 60 -59 98q-33 -34 -83 -91q-108 -124 -165 -124q-23 0 -36 6.5t-13 18.5z" />
<glyph unicode="&#xfc;" horiz-adv-x="1208" d="M37 883q0 23 19 46t57 44q67 38 136.5 62t102.5 24q39 0 59.5 -23t20.5 -65q0 -59 -41 -272.5t-41 -360.5q0 -88 35.5 -133t103.5 -45q137 0 206.5 126.5t97.5 440.5q3 45 6 119q4 121 30 145q30 27 87.5 47.5t101.5 20.5q29 0 43 -14.5t14 -45.5q0 -19 -3.5 -50.5 t-10.5 -73.5l-43 -269q-14 -89 -21.5 -177.5t-7.5 -160.5q0 -44 10 -69.5t31 -34.5q10 -4 31 -9q57 -13 57 -44q0 -24 -16 -44.5t-45 -33.5q-56 -27 -118.5 -43.5t-96.5 -16.5q-41 0 -57.5 31t-27.5 151q-107 -94 -201 -139t-185 -45q-130 0 -199.5 82t-69.5 236 q0 39 3 77.5t10 77.5l30 205l8 56q11 71 11 88q0 39 -69 45q-9 1 -16 2q-18 1 -30 13t-12 30zM358 1327q0 52 35 86.5t86 34.5q50 0 82.5 -31.5t32.5 -79.5q0 -46 -35 -80t-84 -34t-83 30t-34 74zM721 1327q0 51 35 86t86 35q50 0 82 -31.5t32 -79.5q0 -44 -35.5 -79 t-83.5 -35q-49 0 -82.5 30t-33.5 74z" />
<glyph unicode="&#xfd;" horiz-adv-x="1020" d="M-229 -225q0 54 30.5 86.5t81.5 32.5q47 0 69 -26t26 -86q3 -57 20 -74t57 -17q125 0 226.5 95t101.5 216q0 57 -20 144.5t-58 195.5q-51 145 -104.5 264t-87.5 168q-30 42 -53.5 57.5t-73.5 20.5q-38 4 -49 13.5t-11 29.5q0 21 18 39.5t62 42.5q59 33 110.5 52.5 t78.5 19.5q81 0 183.5 -246t199.5 -676q71 104 111 232t40 249q0 93 -37 210.5t-37 146.5q0 44 25 64t82 20q64 0 101.5 -70.5t37.5 -192.5q0 -192 -62.5 -396.5t-176.5 -387.5q-128 -204 -294 -315t-341 -111q-114 0 -185 55.5t-71 143.5zM322 1241q0 12 6 21.5t18 17.5 l346 211q16 9 32 14.5t28 5.5q29 0 53 -36.5t24 -83.5q0 -16 -14.5 -31.5t-40.5 -26.5l-311 -135l-5 -2q-63 -29 -79 -29q-23 0 -40 23.5t-17 50.5z" />
<glyph unicode="&#xfe;" horiz-adv-x="1208" d="M-106 -315q0 36 46.5 57t56.5 30q46 39 78 261l1 4l133 928q14 93 19 149t5 98q0 63 -11.5 83t-45.5 32q-11 4 -33 9q-55 13 -55 40t17 45.5t57 34.5q70 30 136.5 46t117.5 16q54 0 75 -17.5t21 -60.5q0 -17 -31 -173t-49 -300l-6 -52q0 -4 -1 -10t-1 -8q0 -8 3.5 -12 t10.5 -4q10 0 34.5 30.5t43.5 46.5q61 51 130.5 77t144.5 26q151 0 239 -103.5t88 -281.5q0 -129 -41.5 -250t-120.5 -223q-81 -105 -191 -165.5t-220 -60.5q-91 0 -189 53q-24 13 -30 13q-9 0 -17 -43q-1 -5 -2 -8l-20 -123q-1 -2 -1 -6q-3 -26 -3 -37q0 -27 8.5 -45 t23.5 -25q14 -5 40 -13q65 -19 65 -62q0 -42 -61.5 -60t-208.5 -18q-145 0 -200.5 18.5t-55.5 63.5zM350 250q0 -67 49.5 -110.5t126.5 -43.5q57 0 109.5 32t93.5 91q61 90 95 200.5t34 221.5q0 112 -50.5 172.5t-143.5 60.5q-107 0 -185 -85.5t-94 -225.5l-27 -221 q-4 -30 -6 -54.5t-2 -37.5z" />
<glyph unicode="&#xff;" horiz-adv-x="1020" d="M-229 -225q0 54 30.5 86.5t81.5 32.5q47 0 69 -26t26 -86q3 -57 20 -74t57 -17q125 0 226.5 95t101.5 216q0 57 -20 144.5t-58 195.5q-51 145 -104.5 264t-87.5 168q-30 42 -53.5 57.5t-73.5 20.5q-38 4 -49 13.5t-11 29.5q0 21 18 39.5t62 42.5q59 33 110.5 52.5 t78.5 19.5q81 0 183.5 -246t199.5 -676q71 104 111 232t40 249q0 93 -37 210.5t-37 146.5q0 44 25 64t82 20q64 0 101.5 -70.5t37.5 -192.5q0 -192 -62.5 -396.5t-176.5 -387.5q-128 -204 -294 -315t-341 -111q-114 0 -185 55.5t-71 143.5zM264 1327q0 52 35 86.5t86 34.5 q50 0 82.5 -31.5t32.5 -79.5q0 -46 -35 -80t-84 -34t-83 30t-34 74zM627 1327q0 51 35 86t86 35q50 0 82 -31.5t32 -79.5q0 -44 -35.5 -79t-83.5 -35q-49 0 -82.5 30t-33.5 74z" />
<glyph unicode="&#x131;" d="M27 922q0 23 19 42.5t56 34.5q68 28 138 44t120 16q49 0 70 -18t21 -60q0 -12 -24 -145.5t-40 -260.5l-25 -192q-8 -62 -12 -95t-4 -48q0 -26 6.5 -33.5t28.5 -7.5q13 0 32.5 3t26.5 3q19 0 32 -14t13 -33q0 -21 -17 -43.5t-50 -44.5q-65 -44 -140.5 -71.5t-119.5 -27.5 t-66 20.5t-22 59.5q0 21 13 94t19 115l33 195q20 124 27.5 192t7.5 115q0 58 -11.5 77t-43.5 29q-12 4 -33 8q-55 12 -55 46z" />
<glyph unicode="&#x152;" horiz-adv-x="2236" d="M59 657q0 202 85 377.5t245 304.5q108 88 240 133.5t282 45.5q72 0 187.5 -12.5t158.5 -12.5h725q95 0 162 18q9 2 10 2q33 0 46.5 -35t13.5 -126q0 -92 -16.5 -132t-53.5 -40q-40 0 -78 71q-13 27 -22 41q-16 27 -53.5 42.5t-89.5 15.5h-250q-56 0 -97 -17.5t-57 -48.5 q-11 -23 -17.5 -44t-8.5 -39q-20 -114 -30.5 -191.5t-10.5 -102.5q0 -34 8 -42.5t37 -8.5h147q93 0 126 19t54 73q9 22 19 62q23 84 71 84q34 0 48 -21.5t14 -75.5q0 -59 -15 -169.5t-41 -229.5q-15 -75 -34 -102t-52 -27q-28 0 -40.5 20t-16.5 89q-5 74 -29 104.5t-75 30.5 h-199q-27 0 -41 -18.5t-25 -73.5q-20 -101 -31.5 -196t-11.5 -153q0 -71 42.5 -101t142.5 -30h180q96 0 158.5 27t107.5 88q22 29 50 86q41 80 77 80q25 0 36 -14t11 -46q0 -37 -18 -96.5t-64 -169.5q-25 -61 -49.5 -91t-50.5 -30q-3 0 -46.5 12.5t-88.5 12.5h-729 q-52 0 -178.5 -19.5t-200.5 -19.5q-298 0 -481 192.5t-183 503.5zM358 659q0 -260 113.5 -410.5t308.5 -150.5q106 0 183 41t104 111q35 92 65 296l3 15q36 243 47.5 346.5t11.5 167.5q0 156 -75.5 228.5t-237.5 72.5q-243 0 -383 -191.5t-140 -525.5z" />
<glyph unicode="&#x153;" horiz-adv-x="1759" d="M29 422q0 124 42 231.5t128 202.5t198 148t228 53q114 0 207.5 -47t162.5 -140q95 92 204.5 139.5t225.5 47.5q135 0 209 -66t74 -186q0 -90 -46 -168.5t-136 -142.5q-79 -57 -181.5 -88t-207.5 -31q-32 0 -61 2.5t-58 7.5v-12q0 -130 57 -201.5t162 -71.5q50 0 100 18 t111 58l30 21q50 36 74 36q25 0 39.5 -13t14.5 -36q0 -68 -134.5 -141.5t-295.5 -73.5q-114 0 -195.5 40t-130.5 120q-82 -79 -181 -119.5t-210 -40.5q-189 0 -309.5 126.5t-120.5 326.5zM281 442q0 -160 60.5 -257t158.5 -97q124 0 212.5 146t88.5 364q0 156 -60 249 t-157 93q-125 0 -214 -143t-89 -355zM1034 502q29 -3 53.5 -4.5t45.5 -1.5q144 0 244 91.5t100 221.5q0 62 -29 96.5t-82 34.5q-115 0 -205.5 -118.5t-126.5 -319.5z" />
<glyph unicode="&#x178;" horiz-adv-x="1290" d="M88 1421q0 47 56 64.5t231 17.5q185 0 241 -17.5t56 -64.5q0 -22 -14.5 -36.5t-67.5 -34.5q-9 -4 -22 -8q-40 -13 -40 -48t37.5 -112.5t163.5 -290.5q163 189 222 273.5t59 125.5q0 21 -9.5 38t-22.5 22q-7 3 -21 8q-66 25 -66 63q0 46 54 64t202 18q137 0 189.5 -18 t52.5 -64q0 -38 -67 -64q-35 -13 -54 -24q-52 -28 -143.5 -134t-352.5 -454q-34 -224 -50.5 -352.5t-16.5 -165.5q0 -32 9 -54.5t26 -29.5q7 -3 21 -8q66 -25 66 -63q0 -46 -52.5 -63t-227.5 -17q-174 0 -226.5 17t-52.5 63q0 37 63 62q38 15 56 28q41 29 92 337 q23 145 39 232q-100 174 -202.5 375.5t-118.5 218.5q-13 12 -61 37t-48 59zM475 1788q0 52 35 86.5t86 34.5q50 0 82.5 -31.5t32.5 -79.5q0 -46 -35 -80t-84 -34t-83 30t-34 74zM838 1788q0 51 35 86t86 35q50 0 82 -31.5t32 -79.5q0 -44 -35.5 -79t-83.5 -35 q-49 0 -82.5 30t-33.5 74z" />
<glyph unicode="&#x2c6;" horiz-adv-x="1024" d="M285 1188q0 9 11 28.5t32 47.5l145 196l5 7q40 55 116 55q45 0 64 -7.5t36 -44.5l109 -233q7 -15 11.5 -28.5t4.5 -20.5q0 -12 -10.5 -17.5t-34.5 -5.5q-67 0 -133 115q-35 60 -59 98q-33 -34 -83 -91q-108 -124 -165 -124q-23 0 -36 6.5t-13 18.5z" />
<glyph unicode="&#x2dc;" horiz-adv-x="1024" d="M244 1243q0 20 22 65.5t49 75.5q29 31 62.5 45.5t75.5 14.5q41 0 130 -29t140 -29q34 0 54.5 13.5t35.5 46.5q1 2 3 5q10 19 30 19q33 0 42 -6.5t9 -23.5q0 -74 -62 -137.5t-145 -63.5q-51 0 -145 29.5t-135 29.5q-27 0 -44.5 -13t-35.5 -50l-1 -1q-12 -22 -40 -22 q-19 0 -32 9t-13 22z" />
<glyph unicode="&#x2000;" horiz-adv-x="991" />
<glyph unicode="&#x2001;" horiz-adv-x="1983" />
<glyph unicode="&#x2002;" horiz-adv-x="991" />
<glyph unicode="&#x2003;" horiz-adv-x="1983" />
<glyph unicode="&#x2004;" horiz-adv-x="661" />
<glyph unicode="&#x2005;" horiz-adv-x="495" />
<glyph unicode="&#x2006;" horiz-adv-x="330" />
<glyph unicode="&#x2007;" horiz-adv-x="330" />
<glyph unicode="&#x2008;" horiz-adv-x="247" />
<glyph unicode="&#x2009;" horiz-adv-x="396" />
<glyph unicode="&#x200a;" horiz-adv-x="110" />
<glyph unicode="&#x2010;" horiz-adv-x="711" d="M68 471q0 18 8.5 45t25.5 64q14 29 29 39t57 10q2 0 50.5 -1t95.5 -1q85 0 177 6q23 2 28 2q32 0 46.5 -12t14.5 -39q0 -62 -32 -111t-81 -49q-12 0 -48 2t-58 2q-119 0 -233 -9q-17 -1 -21 -1q-32 0 -45.5 12t-13.5 41z" />
<glyph unicode="&#x2011;" horiz-adv-x="711" d="M68 471q0 18 8.5 45t25.5 64q14 29 29 39t57 10q2 0 50.5 -1t95.5 -1q85 0 177 6q23 2 28 2q32 0 46.5 -12t14.5 -39q0 -62 -32 -111t-81 -49q-12 0 -48 2t-58 2q-119 0 -233 -9q-17 -1 -21 -1q-32 0 -45.5 12t-13.5 41z" />
<glyph unicode="&#x2012;" horiz-adv-x="711" d="M68 471q0 18 8.5 45t25.5 64q14 29 29 39t57 10q2 0 50.5 -1t95.5 -1q85 0 177 6q23 2 28 2q32 0 46.5 -12t14.5 -39q0 -62 -32 -111t-81 -49q-12 0 -48 2t-58 2q-119 0 -233 -9q-17 -1 -21 -1q-32 0 -45.5 12t-13.5 41z" />
<glyph unicode="&#x2013;" horiz-adv-x="1024" d="M0 492v8l10 57q3 18 13.5 29.5t23.5 11.5h940q18 0 27.5 -9t9.5 -26v-8l-10 -59q-3 -18 -13 -28.5t-24 -10.5h-940q-18 0 -27.5 9t-9.5 26z" />
<glyph unicode="&#x2014;" horiz-adv-x="2048" d="M-25 489q0 3 1 6t1 5l15 58q5 18 17.5 29t29.5 11h1939q24 0 37 -9t13 -26q-1 -1 -1.5 -3t-1.5 -5l-14 -59q-4 -20 -16.5 -30.5t-30.5 -10.5h-1939q-24 0 -37 9t-13 25z" />
<glyph unicode="&#x2018;" d="M156 1053q0 69 34 147t121 201l1 1q84 116 137 116q20 0 35.5 -10.5t15.5 -22.5q0 -7 -30 -43.5t-50 -65.5q-44 -63 -62 -98.5t-18 -56.5q0 -19 30 -31q12 -5 19 -8q41 -20 56.5 -45t15.5 -70q0 -79 -48 -129.5t-122 -50.5q-64 0 -99.5 43.5t-35.5 122.5z" />
<glyph unicode="&#x2019;" d="M174 918q0 6 30 43t50 65q44 64 62 99t18 57q0 19 -32 33q-12 5 -18 8q-40 19 -54.5 43t-14.5 69q0 80 47 131.5t121 51.5q64 0 99.5 -44.5t35.5 -123.5q0 -70 -34 -148t-122 -201q-54 -75 -80 -94.5t-57 -19.5q-21 0 -36 9.5t-15 21.5z" />
<glyph unicode="&#x201a;" d="M31 -307q0 6 29.5 41.5t50.5 64.5q42 62 60.5 99t18.5 59q0 18 -29 30q-12 5 -20 9q-41 20 -56 44t-15 69q0 79 48 130.5t122 51.5q64 0 99.5 -43.5t35.5 -122.5q0 -70 -35 -149.5t-121 -200.5q-54 -76 -80.5 -95.5t-56.5 -19.5q-21 0 -36 10.5t-15 22.5z" />
<glyph unicode="&#x201c;" horiz-adv-x="981" d="M154 1053q0 69 34 147t121 201l1 1q84 116 136 116q21 0 36.5 -10.5t15.5 -22.5q0 -7 -30 -43.5t-50 -65.5q-44 -63 -62 -98.5t-18 -56.5q0 -19 30 -31q12 -5 19 -8q40 -19 55 -44t15 -71q0 -80 -47 -130t-121 -50q-64 0 -99.5 43.5t-35.5 122.5zM569 1053q0 70 34.5 149 t119.5 199l1 1q83 116 136 116q21 0 36 -10.5t15 -22.5q0 -7 -29.5 -43.5t-50.5 -65.5q-41 -59 -59 -95.5t-18 -59.5q0 -19 28 -31q12 -5 18 -8q42 -20 57 -45t15 -70q0 -79 -47.5 -129.5t-122.5 -50.5q-63 0 -98 43t-35 123z" />
<glyph unicode="&#x201d;" horiz-adv-x="981" d="M174 918q0 6 30 43t50 65q44 64 62 99t18 57q0 19 -32 33q-12 5 -18 8q-40 19 -54.5 43t-14.5 69q0 80 47 131.5t121 51.5q64 0 99.5 -44.5t35.5 -123.5q0 -70 -34 -148t-122 -201q-54 -75 -80 -94.5t-57 -19.5q-21 0 -36 9.5t-15 21.5zM590 918q0 6 30 43t50 65 q41 60 59.5 96.5t18.5 59.5q-1 20 -31 33q-11 5 -17 8q-41 20 -56 44t-15 68q0 80 48 131.5t122 51.5q63 0 99 -44.5t36 -123.5q0 -70 -34 -148t-122 -201q-54 -75 -80.5 -94.5t-56.5 -19.5q-21 0 -36 9.5t-15 21.5z" />
<glyph unicode="&#x201e;" horiz-adv-x="981" d="M31 -307q0 6 29.5 41.5t50.5 64.5q42 62 60.5 99t18.5 59q0 18 -29 30q-12 5 -20 9q-41 20 -56 44t-15 69q0 79 48 130.5t122 51.5q64 0 99.5 -43.5t35.5 -122.5q0 -70 -35 -149.5t-121 -200.5q-54 -76 -80.5 -95.5t-56.5 -19.5q-21 0 -36 10.5t-15 22.5zM444 -307 q0 7 29 42.5t49 63.5q43 62 61.5 99t18.5 59q0 19 -29 31q-12 5 -18 8q-42 20 -57 44t-15 69q0 79 48 130.5t122 51.5q64 0 98.5 -43.5t34.5 -122.5q0 -72 -34.5 -152t-118.5 -198q-55 -76 -81 -95.5t-56 -19.5q-21 0 -36.5 10.5t-15.5 22.5z" />
<glyph unicode="&#x2022;" horiz-adv-x="1208" d="M307 762q0 123 87 209t210 86q122 0 208.5 -86.5t86.5 -208.5t-87.5 -209.5t-209.5 -87.5q-123 0 -209 87t-86 210z" />
<glyph unicode="&#x2026;" horiz-adv-x="2048" d="M131 133q0 69 46.5 115.5t115.5 46.5q68 0 114.5 -46.5t46.5 -115.5q0 -67 -47 -114.5t-114 -47.5q-68 0 -115 47.5t-47 114.5zM813 133q0 69 46.5 115.5t115.5 46.5q68 0 114.5 -46.5t46.5 -115.5q0 -67 -47 -114.5t-114 -47.5q-68 0 -115 47.5t-47 114.5zM1497 133 q0 69 46.5 115.5t115.5 46.5q68 0 114.5 -46.5t46.5 -115.5q0 -67 -47 -114.5t-114 -47.5q-68 0 -115 47.5t-47 114.5z" />
<glyph unicode="&#x202f;" horiz-adv-x="396" />
<glyph unicode="&#x2039;" horiz-adv-x="551" d="M35 518q0 12 15 31.5t42 44.5l240 223q8 8 23 22q74 70 106 70q15 0 21.5 -7.5t6.5 -24.5q0 -30 -66 -123.5t-187 -235.5q77 -135 117 -224t40 -124q0 -21 -10.5 -33t-28.5 -12q-16 0 -32 11.5t-50 53.5l-194 244q-21 27 -32 48.5t-11 35.5z" />
<glyph unicode="&#x203a;" horiz-adv-x="551" d="M14 160q0 28 65 118.5t191 237.5q-77 135 -117 224t-40 124q0 21 9.5 33t27.5 12q16 0 31.5 -11.5t49.5 -53.5l195 -244q24 -31 34.5 -50t10.5 -32q0 -11 -15 -31t-42 -45l-240 -225q-6 -6 -18 -17q-80 -75 -113 -75q-15 0 -22 8.5t-7 26.5z" />
<glyph unicode="&#x205f;" horiz-adv-x="495" />
<glyph unicode="&#x2122;" horiz-adv-x="1683" d="M233 1260l11 188h448l10 -188h-30q-8 80 -40 116.5t-93 36.5h-11v-422q0 -23 10.5 -37t28.5 -16l31 -4v-29h-260v29l32 4q19 2 28.5 15.5t9.5 37.5v422h-15q-59 0 -91 -37.5t-40 -115.5h-29zM770 905v29l33 4q20 2 30.5 15t10.5 36v373q0 23 -11 37t-30 16l-33 2v31h199 l135 -381l137 381h189v-27l-28 -2q-19 -3 -29.5 -16.5t-10.5 -36.5v-375q0 -23 10.5 -36.5t30.5 -16.5l27 -4v-29h-246v29l30 4q20 2 29.5 15.5t9.5 37.5v375l-163 -463h-27l-170 469v-381q0 -24 10 -38t29 -15l35 -4v-29h-197z" />
<glyph unicode="&#xe000;" horiz-adv-x="1050" d="M0 1050h1050v-1050h-1050v1050z" />
<glyph unicode="&#xfb01;" horiz-adv-x="1222" d="M680 922q0 23 19 42.5t56 34.5q68 28 138 44t120 16q49 0 70 -18t21 -60q0 -12 -24 -145.5t-40 -260.5l-25 -192q-8 -62 -12 -95t-4 -48q0 -26 6.5 -33.5t28.5 -7.5q13 0 32.5 3t26.5 3q19 0 32 -14t13 -33q0 -21 -17 -43.5t-50 -44.5q-65 -44 -140.5 -71.5t-119.5 -27.5 t-66 20.5t-22 59.5q0 21 13 94t19 115l33 195q20 124 27.5 192t7.5 115q0 58 -11.5 77t-43.5 29q-12 4 -33 8q-55 12 -55 46zM827 1358q0 67 58 113.5t145 46.5q57 0 96 -34t39 -83q0 -62 -56.5 -110t-133.5 -48q-69 0 -108.5 31t-39.5 84zM-59 -338q0 31 42.5 58t53.5 40 q35 43 73 350l1 3l98 794h-135q-17 0 -24 5t-7 18q0 3 1 8t1 8l8 53q3 17 10 23t27 6h135v6q0 231 108.5 357.5t305.5 126.5q109 0 176.5 -50t67.5 -129q0 -45 -31 -73.5t-80 -28.5q-36 0 -59 16.5t-35 50.5l-9 27q-26 78 -73 78q-67 0 -95 -64t-38 -317h174q15 0 22 -6 t7 -18v-13l-9 -56q-2 -16 -9 -22t-27 -6h-172l-119 -952q-6 -44 -9.5 -77.5t-3.5 -55.5q0 -33 6.5 -74.5t6.5 -50.5q0 -46 -77.5 -73t-207.5 -27q-52 0 -78 16.5t-26 48.5z" />
<glyph unicode="&#xfb02;" horiz-adv-x="1222" d="M723 51q0 14 28.5 184.5t51.5 323.5q6 45 18 127q65 436 65 526q0 63 -11.5 83t-45.5 32q-10 3 -31 8q-57 13 -57 47q0 23 18 40.5t56 33.5q70 30 136.5 46t117.5 16q54 0 75 -17.5t21 -60.5q0 -15 -28 -159.5t-48 -276.5q-39 -265 -64.5 -490.5t-25.5 -273.5 q0 -26 6.5 -33.5t28.5 -7.5q13 0 32.5 3t26.5 3q19 0 32 -14t13 -33q0 -21 -17 -43.5t-50 -44.5q-65 -44 -140.5 -71.5t-119.5 -27.5t-66 20.5t-22 59.5zM-59 -338q0 31 42.5 58t53.5 40q35 43 73 350l1 3l98 794h-135q-17 0 -24 5t-7 18q0 3 1 8t1 8l8 53q3 17 10 23t27 6 h135v6q0 231 108.5 357.5t305.5 126.5q109 0 176.5 -50t67.5 -129q0 -45 -31 -73.5t-80 -28.5q-36 0 -59 16.5t-35 50.5l-9 27q-26 78 -73 78q-67 0 -95 -64t-38 -317h174q15 0 22 -6t7 -18v-13l-9 -56q-2 -16 -9 -22t-27 -6h-172l-119 -952q-6 -44 -9.5 -77.5t-3.5 -55.5 q0 -33 6.5 -74.5t6.5 -50.5q0 -46 -77.5 -73t-207.5 -27q-52 0 -78 16.5t-26 48.5z" />
<glyph unicode="&#xfb03;" horiz-adv-x="1875" d="M1333 922q0 23 19 42.5t56 34.5q68 28 138 44t120 16q49 0 70 -18t21 -60q0 -12 -24 -145.5t-40 -260.5l-25 -192q-8 -62 -12 -95t-4 -48q0 -26 6.5 -33.5t28.5 -7.5q13 0 32.5 3t26.5 3q19 0 32 -14t13 -33q0 -21 -17 -43.5t-50 -44.5q-65 -44 -140.5 -71.5 t-119.5 -27.5t-66 20.5t-22 59.5q0 21 13 94t19 115l33 195q20 124 27.5 192t7.5 115q0 58 -11.5 77t-43.5 29q-12 4 -33 8q-55 12 -55 46zM1480 1358q0 67 58 113.5t145 46.5q57 0 96 -34t39 -83q0 -62 -56.5 -110t-133.5 -48q-69 0 -108.5 31t-39.5 84zM594 -338 q0 31 42.5 58t53.5 40q35 43 73 350l1 3l98 794h-135q-17 0 -24 5t-7 18q0 3 1 8t1 8l8 53q3 17 10 23t27 6h135v6q0 231 108.5 357.5t305.5 126.5q109 0 176.5 -50t67.5 -129q0 -45 -31 -73.5t-80 -28.5q-36 0 -59 16.5t-35 50.5l-9 27q-26 78 -73 78q-67 0 -95 -64 t-38 -317h174q15 0 22 -6t7 -18v-13l-9 -56q-2 -16 -9 -22t-27 -6h-172l-119 -952q-6 -44 -9.5 -77.5t-3.5 -55.5q0 -33 6.5 -74.5t6.5 -50.5q0 -46 -77.5 -73t-207.5 -27q-52 0 -78 16.5t-26 48.5zM-59 -338q0 31 42.5 58t53.5 40q35 43 73 350l1 3l98 794h-135 q-17 0 -24 5t-7 18q0 3 1 8t1 8l8 53q3 17 10 23t27 6h135v6q0 231 108.5 357.5t305.5 126.5q109 0 176.5 -50t67.5 -129q0 -45 -31 -73.5t-80 -28.5q-36 0 -59 16.5t-35 50.5l-9 27q-26 78 -73 78q-67 0 -95 -64t-38 -317h174q15 0 22 -6t7 -18v-13l-9 -56q-2 -16 -9 -22 t-27 -6h-172l-119 -952q-6 -44 -9.5 -77.5t-3.5 -55.5q0 -33 6.5 -74.5t6.5 -50.5q0 -46 -77.5 -73t-207.5 -27q-52 0 -78 16.5t-26 48.5z" />
<glyph unicode="&#xfb04;" horiz-adv-x="1875" d="M1376 51q0 14 28.5 184.5t51.5 323.5q6 45 18 127q65 436 65 526q0 63 -11.5 83t-45.5 32q-10 3 -31 8q-57 13 -57 47q0 23 18 40.5t56 33.5q70 30 136.5 46t117.5 16q54 0 75 -17.5t21 -60.5q0 -15 -28 -159.5t-48 -276.5q-39 -265 -64.5 -490.5t-25.5 -273.5 q0 -26 6.5 -33.5t28.5 -7.5q13 0 32.5 3t26.5 3q19 0 32 -14t13 -33q0 -21 -17 -43.5t-50 -44.5q-65 -44 -140.5 -71.5t-119.5 -27.5t-66 20.5t-22 59.5zM594 -338q0 31 42.5 58t53.5 40q35 43 73 350l1 3l98 794h-135q-17 0 -24 5t-7 18q0 3 1 8t1 8l8 53q3 17 10 23t27 6 h135v6q0 231 108.5 357.5t305.5 126.5q109 0 176.5 -50t67.5 -129q0 -45 -31 -73.5t-80 -28.5q-36 0 -59 16.5t-35 50.5l-9 27q-26 78 -73 78q-67 0 -95 -64t-38 -317h174q15 0 22 -6t7 -18v-13l-9 -56q-2 -16 -9 -22t-27 -6h-172l-119 -952q-6 -44 -9.5 -77.5t-3.5 -55.5 q0 -33 6.5 -74.5t6.5 -50.5q0 -46 -77.5 -73t-207.5 -27q-52 0 -78 16.5t-26 48.5zM-59 -338q0 31 42.5 58t53.5 40q35 43 73 350l1 3l98 794h-135q-17 0 -24 5t-7 18q0 3 1 8t1 8l8 53q3 17 10 23t27 6h135v6q0 231 108.5 357.5t305.5 126.5q109 0 176.5 -50t67.5 -129 q0 -45 -31 -73.5t-80 -28.5q-36 0 -59 16.5t-35 50.5l-9 27q-26 78 -73 78q-67 0 -95 -64t-38 -317h174q15 0 22 -6t7 -18v-13l-9 -56q-2 -16 -9 -22t-27 -6h-172l-119 -952q-6 -44 -9.5 -77.5t-3.5 -55.5q0 -33 6.5 -74.5t6.5 -50.5q0 -46 -77.5 -73t-207.5 -27 q-52 0 -78 16.5t-26 48.5z" />
</font>
</defs>
</svg>
